<mxfile host="app.diagrams.net" modified="2022-05-12T23:15:02.765Z" agent="5.0 (Windows)" etag="rrWRfrJehQn6bYW1JP-H" version="17.5.0" type="github">
  <diagram id="O1Vs_p4csBpPoHUYh1wK" name="Page-1">
    <mxGraphModel dx="1422" dy="762" grid="1" gridSize="10" guides="1" tooltips="1" connect="1" arrows="1" fold="1" page="1" pageScale="1" pageWidth="850" pageHeight="1100" math="0" shadow="0">
      <root>
        <mxCell id="0" />
        <mxCell id="1" parent="0" />
        <mxCell id="VRBC31q7FGMIH4JONmhq-1" value="&lt;div&gt;Canvas&lt;/div&gt;&lt;div&gt;&lt;br&gt;&lt;/div&gt;&lt;div&gt;&lt;br&gt;&lt;/div&gt;&lt;div&gt;&lt;br&gt;&lt;/div&gt;&lt;div&gt;&lt;br&gt;&lt;/div&gt;&lt;div&gt;&lt;br&gt;&lt;/div&gt;&lt;div&gt;&lt;br&gt;&lt;/div&gt;&lt;div&gt;&lt;br&gt;&lt;/div&gt;&lt;div&gt;&lt;br&gt;&lt;/div&gt;&lt;div&gt;&lt;br&gt;&lt;/div&gt;&lt;div&gt;&lt;br&gt;&lt;/div&gt;&lt;div&gt;&lt;br&gt;&lt;/div&gt;&lt;div&gt;&lt;br&gt;&lt;/div&gt;&lt;div&gt;&lt;br&gt;&lt;/div&gt;&lt;div&gt;&lt;br&gt;&lt;/div&gt;&lt;div&gt;&lt;br&gt;&lt;/div&gt;&lt;div&gt;&lt;br&gt;&lt;/div&gt;&lt;div&gt;&lt;br&gt;&lt;/div&gt;&lt;div&gt;&lt;br&gt;&lt;/div&gt;&lt;div&gt;&lt;br&gt;&lt;/div&gt;&lt;div&gt;&lt;br&gt;&lt;/div&gt;&lt;div&gt;&lt;br&gt;&lt;/div&gt;&lt;div&gt;&lt;br&gt;&lt;/div&gt;&lt;div&gt;&lt;br&gt;&lt;/div&gt;" style="rounded=0;whiteSpace=wrap;html=1;fillColor=#fff2cc;strokeColor=#d6b656;" parent="1" vertex="1">
          <mxGeometry x="440" y="160" width="360" height="360" as="geometry" />
        </mxCell>
        <mxCell id="VRBC31q7FGMIH4JONmhq-4" value="&lt;div&gt;Controls/input frame&lt;br&gt;&lt;/div&gt;&lt;div&gt;&lt;br&gt;&lt;/div&gt;&lt;div&gt;&lt;br&gt;&lt;/div&gt;" style="rounded=0;whiteSpace=wrap;html=1;fillColor=#ffe6cc;strokeColor=#d79b00;" parent="1" vertex="1">
          <mxGeometry x="440" y="520" width="360" height="60" as="geometry" />
        </mxCell>
        <mxCell id="VRBC31q7FGMIH4JONmhq-6" value="" style="ellipse;whiteSpace=wrap;html=1;aspect=fixed;dashed=1;fillColor=none;" parent="1" vertex="1">
          <mxGeometry x="467.5" y="187.5" width="305" height="305" as="geometry" />
        </mxCell>
        <mxCell id="VRBC31q7FGMIH4JONmhq-7" value="" style="endArrow=classic;startArrow=classic;html=1;rounded=0;entryX=0.5;entryY=1;entryDx=0;entryDy=0;exitX=0.5;exitY=0;exitDx=0;exitDy=0;" parent="1" target="VRBC31q7FGMIH4JONmhq-6" edge="1">
          <mxGeometry width="50" height="50" relative="1" as="geometry">
            <mxPoint x="620" y="520" as="sourcePoint" />
            <mxPoint x="550" y="500" as="targetPoint" />
          </mxGeometry>
        </mxCell>
        <mxCell id="VRBC31q7FGMIH4JONmhq-8" value="device_area-&amp;gt;window_border delimiter" style="edgeLabel;html=1;align=center;verticalAlign=middle;resizable=0;points=[];" parent="VRBC31q7FGMIH4JONmhq-7" vertex="1" connectable="0">
          <mxGeometry x="-0.3714" relative="1" as="geometry">
            <mxPoint x="-100" y="-2" as="offset" />
          </mxGeometry>
        </mxCell>
        <mxCell id="VRBC31q7FGMIH4JONmhq-10" value="" style="endArrow=none;html=1;rounded=0;entryX=0.5;entryY=0;entryDx=0;entryDy=0;startArrow=none;dashed=1;" parent="1" source="VRBC31q7FGMIH4JONmhq-12" target="VRBC31q7FGMIH4JONmhq-6" edge="1">
          <mxGeometry width="50" height="50" relative="1" as="geometry">
            <mxPoint x="620" y="340" as="sourcePoint" />
            <mxPoint x="620" y="200" as="targetPoint" />
          </mxGeometry>
        </mxCell>
        <mxCell id="VRBC31q7FGMIH4JONmhq-13" value="Known radius" style="edgeLabel;html=1;align=center;verticalAlign=middle;resizable=0;points=[];" parent="VRBC31q7FGMIH4JONmhq-10" vertex="1" connectable="0">
          <mxGeometry x="0.1511" y="1" relative="1" as="geometry">
            <mxPoint as="offset" />
          </mxGeometry>
        </mxCell>
        <mxCell id="VRBC31q7FGMIH4JONmhq-11" value="" style="endArrow=none;html=1;rounded=0;entryX=1;entryY=0;entryDx=0;entryDy=0;" parent="1" target="VRBC31q7FGMIH4JONmhq-6" edge="1">
          <mxGeometry width="50" height="50" relative="1" as="geometry">
            <mxPoint x="620" y="340" as="sourcePoint" />
            <mxPoint x="619.71" y="187.5" as="targetPoint" />
          </mxGeometry>
        </mxCell>
        <mxCell id="VRBC31q7FGMIH4JONmhq-15" value="Device 1" style="edgeLabel;html=1;align=center;verticalAlign=middle;resizable=0;points=[];" parent="VRBC31q7FGMIH4JONmhq-11" vertex="1" connectable="0">
          <mxGeometry x="0.1331" y="1" relative="1" as="geometry">
            <mxPoint as="offset" />
          </mxGeometry>
        </mxCell>
        <mxCell id="VRBC31q7FGMIH4JONmhq-17" value="" style="endArrow=none;html=1;rounded=0;entryX=1;entryY=0.5;entryDx=0;entryDy=0;" parent="1" target="VRBC31q7FGMIH4JONmhq-6" edge="1">
          <mxGeometry width="50" height="50" relative="1" as="geometry">
            <mxPoint x="620" y="340" as="sourcePoint" />
            <mxPoint x="728.1237841309487" y="229.99621586905138" as="targetPoint" />
          </mxGeometry>
        </mxCell>
        <mxCell id="VRBC31q7FGMIH4JONmhq-18" value="Device 2" style="edgeLabel;html=1;align=center;verticalAlign=middle;resizable=0;points=[];" parent="VRBC31q7FGMIH4JONmhq-17" vertex="1" connectable="0">
          <mxGeometry x="0.1331" y="1" relative="1" as="geometry">
            <mxPoint as="offset" />
          </mxGeometry>
        </mxCell>
        <mxCell id="VRBC31q7FGMIH4JONmhq-19" value="" style="endArrow=none;html=1;rounded=0;entryX=1;entryY=1;entryDx=0;entryDy=0;" parent="1" target="VRBC31q7FGMIH4JONmhq-6" edge="1">
          <mxGeometry width="50" height="50" relative="1" as="geometry">
            <mxPoint x="620" y="339.71" as="sourcePoint" />
            <mxPoint x="772.5000000000002" y="339.71" as="targetPoint" />
          </mxGeometry>
        </mxCell>
        <mxCell id="VRBC31q7FGMIH4JONmhq-20" value="Device i" style="edgeLabel;html=1;align=center;verticalAlign=middle;resizable=0;points=[];" parent="VRBC31q7FGMIH4JONmhq-19" vertex="1" connectable="0">
          <mxGeometry x="0.1331" y="1" relative="1" as="geometry">
            <mxPoint as="offset" />
          </mxGeometry>
        </mxCell>
        <mxCell id="VRBC31q7FGMIH4JONmhq-22" value="Device n" style="endArrow=none;html=1;rounded=0;entryX=0;entryY=0;entryDx=0;entryDy=0;" parent="1" target="VRBC31q7FGMIH4JONmhq-6" edge="1">
          <mxGeometry width="50" height="50" relative="1" as="geometry">
            <mxPoint x="620" y="340.00000000000006" as="sourcePoint" />
            <mxPoint x="727.8337841309487" y="448.12378413094876" as="targetPoint" />
          </mxGeometry>
        </mxCell>
        <mxCell id="VRBC31q7FGMIH4JONmhq-27" value="" style="rounded=0;whiteSpace=wrap;html=1;fillColor=#dae8fc;strokeColor=#6c8ebf;" parent="1" vertex="1">
          <mxGeometry x="600" y="550" width="40" height="20" as="geometry" />
        </mxCell>
        <mxCell id="VRBC31q7FGMIH4JONmhq-28" value="" style="rounded=0;whiteSpace=wrap;html=1;fillColor=#dae8fc;strokeColor=#6c8ebf;" parent="1" vertex="1">
          <mxGeometry x="550" y="550" width="40" height="20" as="geometry" />
        </mxCell>
        <mxCell id="VRBC31q7FGMIH4JONmhq-29" value="" style="rounded=0;whiteSpace=wrap;html=1;fillColor=#dae8fc;strokeColor=#6c8ebf;" parent="1" vertex="1">
          <mxGeometry x="650" y="550" width="40" height="20" as="geometry" />
        </mxCell>
        <mxCell id="VRBC31q7FGMIH4JONmhq-30" value="" style="rounded=0;whiteSpace=wrap;html=1;fillColor=#dae8fc;strokeColor=#6c8ebf;" parent="1" vertex="1">
          <mxGeometry x="700" y="550" width="40" height="20" as="geometry" />
        </mxCell>
        <mxCell id="VRBC31q7FGMIH4JONmhq-31" value="" style="rounded=0;whiteSpace=wrap;html=1;fillColor=#dae8fc;strokeColor=#6c8ebf;" parent="1" vertex="1">
          <mxGeometry x="500" y="550" width="40" height="20" as="geometry" />
        </mxCell>
        <mxCell id="VRBC31q7FGMIH4JONmhq-32" value="" style="endArrow=none;html=1;rounded=0;entryX=0.5;entryY=0;entryDx=0;entryDy=0;" parent="1" target="VRBC31q7FGMIH4JONmhq-12" edge="1">
          <mxGeometry width="50" height="50" relative="1" as="geometry">
            <mxPoint x="620" y="340" as="sourcePoint" />
            <mxPoint x="620" y="187.5" as="targetPoint" />
          </mxGeometry>
        </mxCell>
        <mxCell id="VRBC31q7FGMIH4JONmhq-12" value="&lt;div&gt;&lt;br&gt;&lt;/div&gt;&lt;div&gt;&lt;br&gt;&lt;/div&gt;&lt;div&gt;&lt;br&gt;&lt;/div&gt;&lt;div&gt;Known Coordinate&lt;/div&gt;" style="ellipse;whiteSpace=wrap;html=1;aspect=fixed;" parent="1" vertex="1">
          <mxGeometry x="614" y="334" width="12" height="12" as="geometry" />
        </mxCell>
        <mxCell id="VRBC31q7FGMIH4JONmhq-37" value="&lt;h1&gt;Notes&lt;/h1&gt;&lt;div&gt;Figure: dotted circle, lines and center circle are only for this illustration to help show how to calculate the placements&lt;br&gt;&lt;/div&gt;&lt;div&gt;r = radius (distance from center to each device)&lt;/div&gt;&lt;div&gt;n = number of devices&lt;/div&gt;&lt;div&gt;i = current device&lt;br&gt;&lt;/div&gt;&lt;div&gt;S = 2pi (Space available)&lt;/div&gt;&lt;div&gt;returns x, y (scaled and offset in relation to center and radius)&lt;/div&gt;&lt;div&gt;&lt;br&gt;&lt;/div&gt;&lt;div&gt;x = sin((i*2pi)/n)&lt;/div&gt;&lt;div&gt;y = cos((i*2pi)/n)&lt;/div&gt;&lt;div&gt;&lt;br&gt;&lt;/div&gt;&lt;div&gt;returns center[0]-(r*x), center[1]-(r*y)&lt;/div&gt;" style="text;html=1;strokeColor=none;fillColor=none;spacing=5;spacingTop=-20;whiteSpace=wrap;overflow=hidden;rounded=0;" parent="1" vertex="1">
          <mxGeometry x="800" y="350" width="420" height="230" as="geometry" />
        </mxCell>
        <mxCell id="VRBC31q7FGMIH4JONmhq-39" value="Main window" style="text;html=1;strokeColor=none;fillColor=none;align=center;verticalAlign=middle;whiteSpace=wrap;rounded=0;" parent="1" vertex="1">
          <mxGeometry x="440" y="140" width="90" height="20" as="geometry" />
        </mxCell>
        <mxCell id="VRBC31q7FGMIH4JONmhq-41" value="plotting function" style="shape=image;verticalLabelPosition=bottom;labelBackgroundColor=default;verticalAlign=top;aspect=fixed;imageAspect=0;image=data:image/png,iVBORw0KGgoAAAANSUhEUgAAAwwAAAFOCAYAAAArcJo1AAAgAElEQVR4Xu29e5BlV3XmuQspJaGSVGBhKRhZkJJB0TJSdw4wRgSCNCocsuQ2HivpaIk/PPZYuJ2ys+TonjZjcNhuB9bUCOe05Wnb04YK4wxbhXtoEeFuCbAtNQ/hLrtwdxpoa0aAjMUAgZKCLInUKxE1Z99H1r237mOtu3/31jo3vxOhEKh2rbvWt7+19vrO3uecPSeqKwHX8ePH0759+wBLKVG2KDvvfe9709ve9rZ08803p8OHDxfHSPmVHaFsUXZIn7Ktj33sY2lxcXEmMSexIuePwjxqfCRWlC0v5o899li69dZbG3lx++23p/379+/kCOXTbpg/L+6DClFEzMn5I21RmJM+kbaicoHCfVh8d9xxRzpy5Ei67LLL0l133TVy3Y6IFekThXkUfu6RYBjJ6STBMBqjzhERE470KaIt0qdZK3K97CWxomx5MZdgYG5OeXGXYCjHncKcbKJIW1RNIH2a1s03CYbuChGR6yX8lGAw9MISDAaQOoaUELL3l6iEI32KaIv0icKcXPDI+CLa8mIuwVDeuE6rifJVT27XmMw/0paX68Pwi5jLEX2aFtclGGZcMGxubiJHkra2ttLevXu9tbHveMoWZWdtbS0dOHAgLS0tpUOHDhXHSPmVHaFsUXZIn7Kt9fX1tLCwMJOYk1iR80dhHjU+EivKlhfzjY2NtLKy0siL5eXlrmN7lE+7Yf68uA8qRBExJ+ePtEVhTvpE2orKBQr3YfGtrq6mo0ePpvn5+XTw4MGR63ZErEifKMyj8FM7DCMpnXQkyYBR5xDyDgt1N4r0KaIt0icKc/KuJBlfRFtezLXDoB0GS1meBa5rh6E+XNcOw4zvMOgZhtFlV0eSRmMkweDDqD2aWtApO9kvb/M6jQWdjC+iLS/mEgz1aaK8lSEiP0nx7+X6NOoLGV/U+aNw10PP9oymMI/CT+0wGOZegsEAUscQsmBSCUf6FNEW6ROFeZQi18teEivKlhdzCQYJBktVpvhJ5rKX6xIM9eG6dhi0w2CpS9jrPcnCRBVLCQYTBXYGUbiTd7tJnyLaIn2KuKCT8UW05cVcgqE+TZSveuqhZw9eEXM5ok/TWkslGCQYTPkbMUkonyQYTBSQYPDB1BhNcZSyQy4sUeMjsaJsSTDYk4fCnOQ66dOs2/JyXTsM9RHHEgwSDKZKHrHIUT5JMJgoIMHgg0mCwYEXlcukiCFteZso7TDUp4ly0BytCSQ/SVterksw1IfrEgwSDKZ6F3FBp3ySYDBRQILBBxPaHFBcJ++6kk0GGV9EW94mSoKhPk2UtyxE5CeZy16uSzDUh+sSDBIMpnoXschRPkkwmCggweCDSYLBgReVy2TjQ9ryNlESDPVpohw0R2sCyU/SlpfrEgz14boEgwSDqd5FXNApnyQYTBSQYPDBhDYHFNe1w+CbRAp3bxMlwVCfJsrHKO65JrLJJ215uS7BUB+uSzBIMJjqHbVwkoWJ8kmCwUQBCQYfTBIMDryoXCbrC2nL20RJMNSniXLQHK0JJD9JW16uSzDUh+sSDBIMpnoXcUGnfJJgMFFAgsEHE9ocUFzXDoNvEincvU2UBEN9migfo7TD4MGLyj9SEEX0iazrw+KTYJBgMOVvxCShfJJgMFFAgsEHkwSDAy8ql8nGgLQlwWAnA8kFL+6DvCR9mnVbFOZk/pG2os4fhbsEg71WUZhH4ae+9GyYewkGA0gdQ8iCSSUc6VNEW6RPFOZRilwve0msKFtezLXDoB0GS1Wm+Enmspfrw+KMGF9En7TDYMmW5hhy/iJyvSQ+CQYDjyQYDCBJMPhAao0uSd7OH6TskAsLWXzJ+CLa8i4sEgwSDJaCMwtcl2CoD9d1JKmbrd66Pg2ul9QECQZD1ZVgMIAkweADSYLBhVdJkdMOgwvqrsEU7pQdUoSS4jhqfBH9ithEkbyKiPm0uC7BIMFgWm0iJgnlkwSDiQI7gyjcp1XkfNGxW5YUVpQdEvPdsAhTuHubKO0w1Oeu6yzUFzKXvVyfxl1XMj6qJpA+kXVdzzDYMzoi10v4qR0Gw9xLMBhA0g6DDyTtMLjwKily2mFwQa0dhjHgmnV+ks1rxCaKjC8qFyjcJRjsBYLCPAo/92xubp6whz945NbWVtq7dy9hKlG2KDtra2vpwIEDaWlpKR06dKg4Rsqv7Ahli7JD+pRtra+vp4WFhZnEnMSKnD8K86jxkVhRtryYb2xspJWVlUZeLC8vp8XFxZ0coXzaDfPnxX1QIYqIOTl/pC0Kc9In0lZULlC4D4tvdXU1HT16NM3Pz6eDBw+OXLcjYkX6RGEehZ/aYRhJ6ZS0w2AAqWMIeYeFUuikTxFtkT5RmEe5K9LLXhIrypYXcx1J0pEkS1Wm+Enmspfrw+KMGF9EnzKGFO7aYbBkXnMMhTmZfyX8lGAwzL0EgwEkCQYfSK3RJcnb+YOUnVkschIMY1Gz8ZcoXlF2SJ9IrkeNL6JfEZsoklcRMZ8W1/XQc3etjcj1En5KMBjWUgkGA0gSDD6QJBhceJUUOQkGF9RdgyncKTtkYzetJsqLflSsKL8iNlEkryicSJ+mxXUJBgkGU72LmCSUTxIMJgrsDKJwn1aR80XH3XUlF4SImEeNj8SKsuVtonQkSUeSLHWL4ieZy16uD4szYnwRfZrWWirBIMFgqUvY1jVZmKjElWAwUUCCwQdTYzTFUcoOubBEjY/EirLlbaIkGCQYLOWG4ieZy16uSzDUh+sSDBIMlrqENT5kYaKKpQSDiQISDD6YJBgceFG5TNYX0pa3iZJgqE8T5aA5WhNIfpK2vFyXYKgP1yUYJBhM9S7igk75JMFgooAEgw8mtDmguK4dBt8kUrh7mygJhvo0UT5GcbuOZJNP2vJyXYKhPlyXYJBgMNU7auEkCxPlkwSDiQISDD6YJBgceFG5TNYX0pa3iZJgqE8T5aA5WhNIfpK2vFyXYKgP1yUYJBhM9S7igk75JMFgooAEgw8mtDmguK4dBt8kUrh7mygJhvo0UT5GaYfBgxeVf6QgiugTWdeHxSfBIMFgyt+ISUL5JMFgooAEgw8mCQYHXlQuk40BaUuCwU4Gkgte3Ad5Sfo067YozMn8I21FnT8KdwkGe62iMI/CT32HwTD3EgwGkDqGkAWTSjjSp4i2SJ8ozKMUuV72klhRtryYa4dBOwyWqkzxk8xlL9eHxRkxvog+aYfBki3NMeT8ReR6SXwSDAYeSTAYQJJg8IHUGl2SvJ0/SNkhFxay+JLxRbTlXVgkGCQYLAVnFrguwVAfrutIUjdbvXV9GlwvqQkSDIaqK8FgAEmCwQeSBIMLr5Iipx0GF9RdgyncKTukCCXFcdT4IvoVsYkieRUR82lxXYJBgsG02kRMEsonCQYTBXYGUbhPq8j5omO3LCmsKDsk5rthEaZw9zZR2mGoz13XWagvZC57uT6Nu65kfFRNIH0i67qeYbBndESul/BTOwyGuZdgMICkHQYfSNphcOFVUuS0w+CCWjsMY8A16/wkm9eITRQZX1QuULhLMNgLBIV5FH5KMBjmXoLBAJIEgw8kCQYXXlEXYcov78KiHQbtMFgSiOIn2bB4ua4dhvpwXUeSutkakeslNUGCwVB1JRgMIEkw+ECSYHDhVVLktMPgglo7DGPANev8lGCwkyIqF6jmVTsMdi5QmJP5V8JPCQbD3EswGECSYPCBJMHgwqukyEkwuKCWYBgDrlnnJ9mwRGyiyPiicoHCXYLBXiAozKPwc8/m5uYJe/iDR25tbaW9e/cSphJli7KztraWDhw4kJaWltKhQ4eKY6T8yo5Qtig7pE/Z1vr6elpYWJhJzEmsyPmjMI8aH4kVZcuL+cbGRlpZWWnkxfLyclpcXNzJEcqn3TB/XtwHFaKImJPzR9qiMCd9Im1F5QKF+7D4VldX09GjR9P8/Hw6ePDgyHU7IlakTxTmUfipHYaRlE5JOwwGkDqGkHdYKIVO+hTRFukThXmUuyK97CWxomx5MdczDPU51+2rnjHfwkbmspfrw/Cj8o+ML6JPOT4Kd+0w2DOawjwKPyUYDHMvwWAASYLBB1JrNLW4UHbIhSVKkZNgGIuajb9E8YqyQ/pEcj1qfBH9ithEkbyKiPm0uK6HnrtrbUSul/BTgsGwlkowGECSYPCBJMHgwqukyEkwuKDuGkzhTtkhG7tpNVFe9KNiRfkVsYkieUXhRPo0La5LMEgwmOpdxCShfJJgMFFgZxCF+7SKnC867q4ruSBExDxqfCRWlC1vE6UjSTqSZKlbFD/JXPZyfVicEeOL6NO01lIJBgkGS13Ctq7JwkQlrgSDiQISDD6YGqMpjlJ2yIUlanwkVpQtbxMlwSDBYCk3FD/JXPZyXYKhPlyXYJBgsNQlrPEhCxNVLCUYTBSQYPDBJMHgwIvKZbK+kLa8TZQEQ32aKAfN0ZpA8pO05eW6BEN9uC7BIMFgqncRF3TKJwkGEwUkGHwwoc0BxXXtMPgmkcLd20RJMNSnifIxitt1JJt80paX6xIM9eG6BIMEg6neUQsnWZgonyQYTBSQYPDBJMHgwIvKZbK+kLa8TZQEQ32aKAfN0ZpA8pO05eW6BEN9uC7BIMFgqncRF3TKJwkGEwUkGHwwoc0BxXXtMPgmkcLd20RJMNSnifIxSjsMHryo/CMFUUSfyLo+LD4JBgkGU/5GTBLKJwkGEwUkGHwwSTA48KJymWwMSFsSDHYykFzw4j7IS9KnWbdFYU7mH2kr6vxRuEsw2GsVhXkUfuo7DIa5l2AwgNQxhCyYVMKRPkW0RfpEYR6lyPWyl8SKsuXFXDsM2mGwVGWKn2Que7k+LM6I8UX0STsMlmxpjiHnLyLXS+KTYDDwSILBAJIEgw+k1uiS5O38QcoOubCQxZeML6It78IiwSDBYCk4s8B1CYb6cF1HkrrZ6q3r0+B6SU2QYDBUXQkGA0gSDD6QJBhceJUUOe0wuKDuGkzhTtkhRSgpjqPGF9GviE0UyauImE+L6xIMEgym1SZiklA+STCYKLAziMJ9WkXOFx27ZUlhRdkhMd8NizCFu7eJ0g5Dfe66zkJ9IXPZy/Vp3HUl46NqAukTWdf1DIM9oyNyvYSf2mEwzL0EgwEk7TD4QNIOgwuvkiKnHQYX1NphGAOuWecn2bxGbKLI+KJygcJdgsFeICjMo/BTgsEw9xIMBpAkGHwgSTC48Iq6CFN+eRcW7TBoh8GSQBQ/yYbFy3XtMNSH6zqS1M3WiFwvqQkSDIaqK8FgAEmCwQeSBIMLr5Iipx0GF9TaYRgDrlnnpwSDnRRRuUA1r9phsHOBwpzMvxJ+SjAY5l6CwQCSBIMPJAkGF14lRU6CwQW1BMMYcM06P8mGJWITRcYXlQsU7hIM9gJBYR6Fn3s2NzdP2MMfPHJrayvt3buXMJUoW5SdtbW1dODAgbS0tJQOHTpUHCPlV3aEskXZIX3KttbX19PCwsJMYk5iRc4fhXnU+EisKFtezDc2NtLKykojL5aXl9Pi4uJOjlA+7Yb58+I+qBBFxJycP9IWhTnpE2krKhco3IfFt7q6mo4ePZrm5+fTwYMHR67bEbEifaIwj8JP7TCMpHRK2mEwgNQxhLzDQil00qeItkifKMyj3BXpZS+JFWXLi7meYajPuW5f9Yz5FjYyl71cH4YflX9kfBF9yvFRuGuHwZ7RFOZR+CnBYJh7CQYDSBIMPpBao6nFhbJDLixRipwEw1jUbPwlileUHdInkutR44voV8QmiuRVRMynxXU99NxdayNyvYSfEgyGtVSCwQCSBIMPJAkGF14lRU6CwQV112AKd8oO2dhNq4nyoh8VK8qviE0UySsKJ9KnaXFdgkGCwVTvIiYJ5ZMEg4kCO4Mo3KdV5HzRcXddyQUhIuZR4yOxomx5mygdSdKRJEvdovhJ5rKX68PijBhfRJ+mtZZKMEgwWOoStnVNFiYqcSUYTBSQYPDB1BhNcZSyQy4sUeMjsaJseZsoCQYJBku5ofhJ5rKX6xIM9eG6BIMEg6UuYY0PWZioYinBYKKABIMPJgkGB15ULpP1hbTlbaIkGOrTRDlojtYEkp+kLS/XJRjqw3UJBgkGU72LuKBTPo0UDD9zSUrf+EoTp383+i21lF9kEY/oE3m3O2p8lF+UHRLz3cBPCndvEyXBUJ8myrSAdgyiOEXmH2nLy3UJhvpwXYJBgsFU7yIWOcqnoYLh3/50Sve/J6U//k5Ke/bseqzIhYVsXiku0PFRflF2SMxJrMj4ItryNlESDPVpokyLggSDF6awuzER6wtZ14fFJ8EgwWBK5IhJQvkkwWCiwM4gCvdpFTlfdNxzB1Ebam/zOo07gCSnItryYi7BIMFgqVuzwPVp1JeotZicP2+NGYS7BIMl85pjKMyj8FOvVTXM/UDB8PZXpfR3/+Wkhf1vS+mf/d5Ii2QRoGxRdkhikwkXNT7KL8oOiTnJBTK+iLa8C4sEgwTDyIWmGjALXJdgqA/XtcOgHQZLXQpZmKhiqR0GEwW0w+CDqTGa4ihlR4LBN4kU7hIMdtwpzEmukz7Nui0v1yUYJBgs1YHKG8oOWV+i9AraYTAwUYLBAFLHkIgJR/oU0RbpU8QFnYwvoi0v5tphqE8T5aue3E0EsskgbXm5LsFQH65rh0E7DKZ6F3ERpnySYDBRQDsMPpi0w+DAi8plsvEhbXmbKAmG+jRRDpqjNYHkJ2nLy3UJhvpwXYJBgsFU7yIu6KN8uvPOO9MDDzyQPvzhDw+NUYLBRAEJBh9MaHMwiuse1yIu6GR8EW15MZdgqE8T5ck9sjGPasvLdQmG+nBdgkGCwVTvIi7Cw3zKYuHtb397uv766yUYqhmOOH+ZeNTiEjU+yi/KDok52bCQ8UW05eW5BEN9mijTAtoxKCI/yVz2cl2CoT5cl2CQYDDVu4hFbpBPN9xwQzpx4kS6/PLL0yOPPCLBIMFg4nh7UJ247gqsNTjigh4R89PZREkw1KeJ8uaguG5HLCJWEX0ibwQNi0+CQYLBlL0Rk2SUT7fddptZMPzz296WfrgSGof/zZ1NPJ5fLVgvujQlfbjtFH6Mwt1EKLh5JX2KaIv0SYLBzlAKdy/mEgwSDBaWUvw8neJYOwwBuX7Omc1peXorpWeqf/JV/fuOf/3b6chn/p902ff9w3TXXXeNpGhEfpI+eev6NLheEt+ej370oydGzuqMDZifn08vfelLU1sw3HfffekTn/jEwCjvv/s96SMf+KN0yUUvSu/5kSsa456376L0wnd+sEswfPPuf5U2v/blZh5d8OK0/fwXpmfPfWHjfz935jkzhqLCEQJC4HQh8M1vfjO9+93vbvz8W97ylvTKV77ydLmi3xUCQmDGEDjj20+ncx7/ajrryW+m520/lc56arPx/8+o/vfcU9+s/v1034j/9ZH/L33qK99KF3/Ppel//lejBcOMwTbz4ezq16qadxh+/R3pPf/H/5Yuv/SSdPiWjoX5R/55St/3A02SPHg4pU9W/wy7rrgmpbP3pifPuzid+w9ek9JFlxUTrEQtdv44ZSfbJG1RCp30KaIt0icKc5ILZHwRbXkx1w5DwLuu+xifIvKTzGUv14ctkhGxiuhTxnAg7o/9XarudKa0Uf370c9Wdzu/lVL+bwOu7e3tNDc31/dP7/hPn0tHHv1muuwfXJXuuufPR/Y3EbEifYrI9ZL4JBiMzzD8zE+/Lf2TH2kdSXqqSqj2de4F1Vbckyl9cT2lxx9rbtEdr5LvePW/LQmXRcQFF6V06VUp5f/tvEomX4LBCXZrOIU5uQiTPs1akeudZRIrypYXcwkGpjn34j6oYlA8IGtCVFsU5lHji8qFBu7XvLopBr72SEqf+8vqf1f/zj3LqOucvc0+5QUXp6fmzk/Pf/7zU6pOWeQboI2r+u/5uuP/+oN05FP/tRIMr9CRpAqPiFwv4acEg1EwvO1tb0s333xzOnx4xC5CVxdeiYacmFlIZAGRE/XRz6RhCr0hGvLOw0uuboqIEVfJ5EswjEK3/59TmJMLHunTrBU5CYbxeB6VnxG5Tvo067Yi1peZ5np+xuAz96dH7/+/00vO+fZggdAhCnZ6kCwIOoVBBdQwfuqh5+5aG5HrJfVFgmGSgmHAOv34lz6fLtj8+6aAaImIgUv61ftTell1fGnA7kPJ5EswjNdIUZhHXaRmrchJMIzH86j8JPOP4jrp06zbojAn+UnaOu3zlwVCu694+MjO8aJjx46lCy+88GQxyAKhfWMy/7tHGAyqGhIM9noakesl/NzVgsE67UM/3GY10jGu74TlxM5nCDsS/BTTr35zUzh07DyUTL4EwxiTN+IOi9dixPmbtSInweBl5cnxEflJ+ZSjpLhO+jTrtijMySaftHXa5u9L1fMH1QmGQT3EY49vpYteV/UQuX+4+PKxn6GUYLDX04hcL+GnBINh7qciGDr9aG0hplwAsoDod2XxUO0+HD/7u9I+4GG7EhJNsiGjEi5qfJRflB2yiZqJRXhEfaBw9/JczzDoGQbD0oW+gOJ0cX1YnJRPta1VuVf41J8MvtGYdw5eUgmEl1+TPvbQo2lxcdFCm6FjJBjsEHrr+jS4XpIzEgyGuZ+6YOj1KYuGz1cPKFXnEHuvZy6+Ip39qhsa4qHkKiGRBMP4yFO4U3YkGHxzSeHuXVgkGCQYLEyl+Ek21F6uT6OJIuObOObtI0d//p6TL1rpBCmLhJdXx5grkdA4ZtS6KNwlGCyZ1xxDYR6FnxIMhrk/7YKh08csGrJ4aO08dD1AnXcd8j8dRcIQXmPIxIuc1ZGecVTCRY2P8ouyM4tFbpKClsLdy3MJBgkGS0ml+EmuEV6uSzC0uD5sN6FjJ2HQ69op3CUYLJknwTAUpYiFifIplGBoz0J+69LnjqRn/+IDjY+qdF35OYf8oLRj14HCilxYyOY1anyUX5QdEnOSC2R8EW15F3MJBgkGS9syC1zf9YLh8S81bxB+trpZ2PkK1PzQcr5BmHcSDN908taYQbhLMFgyT4JBgsH7WtUBiOFF/GsP9T+ylItI61mHURTHfQKeqyCb16jxUX5RdkjMJRhGZd3JP/cu5hIMEgwWdpF1gbLl5fquFQzVM4zP3P++dPbXHu6GoH3kKN8QbH8HwUAGCncJBgPYrSEU5lHWUh1JMsx9yB2Glt9dyZt3HfJdiPzV6c4r34m4qiou+28dGC21GJDEJpvXqPFRflF2SMxJLpDxRbTlXVgkGCQYDEtXyKOmXq7vOsGQX3aSn0+oXo26c+Q4r+EXVW82ymu4YTehH2YU7hIMlszTDoN2GKLuMPS7m5/fnJD/6fzidC4611UFp89RpYhNFNm8Ro2P8ouyQ2IuwTC5hUWCQYLBwi6yLlC2qMaVrC+krbFx6hAK7bndPuOsNPfapeYNvzGeTezkCIW7BIMl8yQYJBjqJBjas2UUDmMXuT6sIG1No8jZ0785koyPskXZkWDwsYHC3ctzCQYJBgtTKX6Sdc/L9ZnfYegjFFLr+YTHr/iBdMF3v9gy1SPHULhLMIyEemcAhTmZfyU1QUeSDHNfmyNJw2LJb1f6ZHVUqXPHId+xeN0tze85HD+OfM+BJDbZvEaNj/KLskNiTnKBjC+iLe/CIsEgwWBYukLWdS/XZ1YwZKGQjw/nj621rywUWmtyfj6BrFUU7hIMlszTDoN2GOq4w9A7a/12HKozkd/6Rz+Sznvlm+yZMGRk3YqcN2gyPsoWZUeCwccGCnfvYi7BIMFgYSrFT1L8e7k+c4KhejahcfOu86OsPUKhHTM5fxTuEgyWzJNgkGCYBcHQnsUe4dB4uOoVr28+41B4VrJuRc6e/s2RZHyULcqOBIOPDRTu3sVcgkGCwcJUip9k3fNyfWYEQ/6OQt5R6Hw9avvVqPlthn3eeETOH4W7BIMl8yQYJBhmSTB0Cof733vybQz5v+fiNeSNSqPSpW5FblQ8vX9OxkfZouxIMPjYQOHuXcwlGCQYLEyl+CnBYEF7wA2lLBTybkLnkeAsFPLrUUfcoCPnz1tjBkUswWDnAoU5mX8lnNIzDIa5n4lnGIbFWRW0p+/9N+mcz33y5Kghb1QaBVkJIXttUwlH+hTRFukThXmUIlcHwefFXIJBgmFUHSbzj7Tl5Xqtdxj6PdCchYLx9agR67oEgyXzZnSHYXNz84Q9/MEjt7a20t69lWoGLsoWZWdtbS0dOHAgLS0tpUOHDhVHSPmVHaFsZTvnP/X1NPc3H0pn/O1Hd2I88d3z6ekb/0U6ccF3m+OmfMo/uL6+nhYWFsy/PWgg6VNEW6RPFOY0P6PVFzI+L+YbGxtpZWWlQffl5eW0uLi4Q32SC5Qtyg6JueqLr6xSc+jl+jAvKZ9IXmWfzpvbk+b+8gPpzPX7Tq6l1Rr67YUb0/Y/usEMPBkfhfswn1ZXV9PRo0fT/Px8Onjw4Mg4yfgoW5Qdsr7Q/Bx3LdUOw0hKpzTzOwwVBl13Dfq9UclxTKlud0UMFOgaQsZH2aLs5EAj3gEk44toy4u5dhi0w2CpW7PA9WFxRozvW//lz9N5f/X+k28kHPBA87Tnz1tjBvmnHQbLzDXHUJhnWxTXS+xIMBjmftcJhjYm1bMNjY+/ta/8hcn8yrcrrhmKWgkhew1TCUf6FNEW6ROFeZQi18spEivKlhdzCQYJBsPShTUZZC57uV4bwdB6+9H2f/tEmpuba7qdjx/dePvYLxKh6gvZvEowWDJPgmFqTSKVJJSdXSsY8oznInjvbzb/3b5G7DZQuE+ryNnTvzmSjI+yRdkhMSexIuOLaMvbREkwSDBY6tYscD28YOh5+1HjjYPnv6D5QHP1jaOSi5w/b40Z5LcEg31GKcyjrKXaYTDM/a4WDG188k5D3nFoX3mb9Ybqzkmf3Ya6FTkDBbqGkPFRtig7Egw+NlC4excWCQYJBgtTKX6SDYuX6+OUZ/gAACAASURBVKEFQ58bak+//HXpnB/+ub6vSbXMWecYcv4o3CUY7LNIYU7mXwmnJBgMcy/B0AIp30m5767uD8702W0oIWTvdFAJR/oU0RbpE4V5lCLXyykSK8qWF3MJBgkGw9IVcjfUy/WwgiHfRMuvSn26Whfz1Tqye/ziK9O+fQw/qfpC3giSYLBkXnNMRK6XcEqCwTD3Egw9II3YbSghpASDgZB9hkTEXILBPpfehUWCgWnIvLgPmlEy/2bdFoU5WV9ctnq/1NzzUHPU+aNwl2CYXF2fhjgu4acEg2HuJRj6gDRkt6GEkBIMBkJKMIwHUutvkfykbHkXcwkGCQZLElD8dDXUIxzzcn0aTZQ5vvwGwQeqo7k9uwqdR3MjYk7e7ZZgsGSedhiGohQxSSifJBiGTH3vbkO1LfvEG34qnf+9/9CeVUNGUosLxQXzwmKMnvKLskMuLCRWZHwRbXl5LsEgwWApMbPA9RCCYdANsmurtwae3f39qYiYk3VdgsGSeRIMEgw335wOH67OLBZeEQtKkU+5mN79jp03KTXeEvFDyynl5xsKL28jNejniuLrMRrRFukThbkEg538XswlGCQYLOwi6wJly8v10y4Y8tea85sCjz/WdGXICz/ImkfbonCXYLBkngSDBIMEw/BMyQ+APXg4NQRDfg91fgjspneO/Q7qad0Vsad/cyS1cJK2SJ+ohSVqfCRWlC0v5hIMEgyWukXxk8xlL9dPm2DoeV1qw4/8VsD8XYWeXYVOHyNiPq219I477khHjhxJl112WbrrruoFKSOuiFiRPkXkekl8eoZhFKOrP9eRJANI7SHVA2HPvv9X0llPbTb/S74bk0XDpVc5jJwcSiVcSZL0Oh7RFukThTnZZJDxRbTlxVyCQYLBUlBngeunRTAMerDZsGseEXMJBku2NMeQ8+et69Pgekl8EgwGHkkwGEDqGNIg5Cffl1J+QKx95bOe+SvRzotKuJIkkWBwTlovF4BXDM76/Hl5LsEgwWDJyoh54+X6NJqorkbx4SMpfai6O975YPMP/3xzx9xwRcRcgsEwca0h5PxF5HpJfBIMBh5JMBhA6tckZsGQv9vQvnLBfesdrg/aUAlXkiQSDL757xxN4U7Z6WoMxg9r529Sfnl5LsEgwWChL8VPMm+8XJ+WYHh846vpgk/fm1J+kUf7yjsKfR5snpZP5PxRuOsZBkvmNcdQmJP5V8IpCQbD3EswGEDqJxjyf+v9EqbziBKVcCVJIsHgm38JBj9eXp5LMEgwWFgWse55uT6V5rx6XuHpe/73dM6j682fG/Fg81R8qn6EnD8KdwkGS+ZJMAxFiSQ2ZYuyI8FgT5CBSjjvNIxxRGkaRc4XHVvEKY5SdmbxrkgdBJ+X5xIMEgyWukXWBcqWl+sTb85bb0Ha/vqXmy/reMnVzQeb911kgfiUMRRO5F1lsq5LMNhpEY7rhSJUOwyGuZdgMIDUMWRgQen9ZkMuzLe8q/qbewb+AJVwUYs45Rdlh1xYyAWPjC+iLS/PJRgkGCxVeRa4PlHBkN/sl9el6nmFxtv9XrvkPoJUhxsSZF2XYLBknnYYtMOg16qaMmXoIpWPKN3z6yffaZ2faxjyQJm3kRrkYMSFM2pDTWEeNb6IXPBiLsEgwWApxrPA9YkIht4PsVVHkLZec0vae035t4MiYi7BYMmW5hhy/rx1fSJc7zFaEp92GAw80g6DASTLDkN7TL+vZv7YL1bvuH7tKT9EJVxJktThDhIZH4U5WXzJ+CLa8mIuwSDBYKnKs8B1vIkacNPq+NnflfbN8BvdvDVmnJtv+g5DN2oU5lHW0j2bm5snLIVn1Jitra20d2/3J9JH/Z1Bf07Zouysra2lAwcOpKWlpXTo0KFxw9r5e5Rf2SBli7Lj8Wnurz6Q5v7yAzu4bL/mLWn7+9/She/6+npaWFiYScw9WI0CgJw/CvOo8ZFYUba8mG9sbKSVlZUGLZaXl9Pi4qLqy6gk6fPnXtwnvWaRORPVFoX5OPGd8ZWH0tn3/sbOK1O/8z2vSM/88L9IJ846t9ZrqYX6FO7Dat7q6mo6evRomp+fTwcPHhzpFlU/x+HCNHKZwjxKfNphGElpfbjNAFHXENddrfzA2d3Vh91SS7c2nmuojiy1Lkqhu3waEXBEW6RPFOYZRsovyg7pE2nLi7l2GLTDYKnLEfPGy/Vhcbriy88q5GcW2t9XyK9Lza9NbX212WVriFOUHbK+ZFsU7nqGwZJ5zTEU5iQXSvgpwWCYex1JMoDUMcRNyN5Xr+bnGvLXoau3VFAJ5/apZgsCGR+FeZQi1zuVJFaULS/mEgwSDJaqTPGTzGUv14sFQz4Ce/97T76lL78y9bpbU7p6//g3umq2PpDNqwSDJfMkGIaiFLEwUT5JMNgTpGhh+WD1Ubf8lc18tb7X8LFHjnUdt/B5cnI0xYWi+Po4T/lF2SEXFhIrMr6ItrxNlASDBIOlFs4C14sEQ+/zckNeskFhRdkh6ydZ1yUYLJknwSDBoLckmTKlqGDmO0EdX9r87MXXpKt+4h2m3y1aWBy/UBRfz+9Qtig75MJCLnhkfBFtSTDYE5CcPy/ug7wkfZp1WxTmI+tL78PN+bjrTdVa0jqC1DuXFO6UnZHx2VOmMZLCXYLBDjyFOcmFEn7qSJJh7rXDYACpY0gJIRtmOr7XcOzYsXThj/5cSq+rzpsWXMU+kfFNwBYZ36wVuUk1BmQR92KuHQbtMFjKIVkXKFtero91Iyg/G5df391+XiE/q5CfWRggFshcpnAifZJgsGRLcww5f1Phuj204vgkGAxgSzAYQKKb4Hx36PA70rEvP5ouvPDC5tc3R3zkbayFxRdaccJNqnlVkbNPJIkVZcu7sEgwSDBYGE/xk2ykvFx31/XOh5vz0dZ8sykLhhEXhRVlh8RcgmHU7J/8c3L+Js51e1g7I0vik2AwAC7BYACJFgyNavlY+vL/eVu6ZO7ZpvV8/vSt1V2js8/zOZRNHT+OvGObLuKUX5QdcmEhsSLji2jLu7BIMEgwWIrgLHDdLBj6Pdx8w+3V932usUCFrRERMSfruo4kmejUGOSt62au2104ZWQJPyUYDMBLMBhAmoRgaCfcV/40pUc/0/yFfMcov3b1ostdTpUkSe8PRbRF+jRrRa4O8+fFXIJBgsFSAMm6QNnyct3URDkebh5kj4qPskPecCGbVwkGS+Y1x0yE6/af7zuyhJ8SDAbwJRgMIE1SMOSPUnU+DN16g1K69CqzYyVJUoeGk4xv1opcHebPi7kEgwSDpfiRdYGy5eX6SMGQnknpvrtO3lTKx1dvrHYWqtdyey4qPsqOBINn9rhTBOT84Vw/zV8il2AwcFKCwQDSpAVDtp8/uvNg9U/72l+9S9twNpUuvGRBoWxRdmbxrogEgy9/O0dTvKLs0LlMLehR44voF4V55sITX/h0Ov/PfqtxfLVx5eNHWSwMebh5UDZQWFF26sj1O+64Ix05ciRddtll6a67KhE34oqIFekTyXXKrxI7EgyjGF39uQSDAaRpCIb8G71fhs5vvjC8QakkSerQcJLxzVqRq8P8eTHXDoN2GCxVmawLlC0v1wfGWa0F23/8q2nuudYzboY3IQ3DjIqPsiPBYGH4yTEU7pSdWbz5JsFg4KQEgwGkaQmG/DutNyjtvDIvf7Ez31UacpFFIKIt0idsQa/mg/KLskMvwpRfXswlGCQYLFWZ4ieZN16u942z9Sak7Sc209zcXEqO3eZBuFFYUXZIzMnmdVh82mHoZhfC9ZZJilcldiQYDFVXgsEA0jQFQ6OSVlvQ+T3bWTzkq/Ha1er/D7hKkqTXZERbpE+zVuTqMH9ezCUYJBgsVZmsC5QtL9dPibPjOz3bZ5yV5q5fTinfNCq8qPgoOxIMvgmlcKfskCKN5EJJfBIMBk5KMBhAmrZgyL+X34xxd/XlzrZoaLx29Y6+51dLkqQODScZX/GCPgEukPFFtOXFXIJBgsFSlWeB6ztx5nqfn2HLgiFf1csvvvX6n0rnvfJNFihGjqGwouyQTSLZvGqHYSSVdgZ46/owyxSvSuxIMBjmXoLBANIEmkRzkTv8zpNvyMii4abq//e8IaMkSSQYfPPfOZrCnbJDL8KUX96FRYJBgsGSlRQ/ybzxcr0RZ+83FnJ9v+WOdDydHe77OhExN6+lBlJJMBhAag0Zi+sDzFO8KrEjwWCYewkGA0inUzDk386v1fvM/U0v+nyroSRJJBh88y/B4MfLu7BIMEgwWFgWse55ud4QC7m+P3ykGXLHTaGI8UX0SYLBki3NMeT8ubk+xE3KrxI7EgwGHkkwGEA63YIh//4p32qojitdWj3bABeBkoSblPggfZq1IjcpzEleeTGXYJBgsFRlsi5Qtlxcz2LhnuqYafvDnflZtZt+sTp2el7Yuk7hRNYXCQZLtkgwjEJpz+bm5olRgyx/vrW1lfburb7CC1yULcrO2tpaOnDgQFpaWkqHDh0qjpDyKztC2aLskD5lW+vr62lhYcGM+dxffSDN/eUHdsY/s/TL6bn/7vswnOj4KNwpO+NgPmxyKL8oO1Hnz8vzjY2NtLKy0oB+eXk5LeaPG7auiFhF9InketT4Ivpl5frzvv736ex7fyPteXyjweznvvd/SM++aTmdOOtccd28Ip4caMV9lOlhnFpdXU1Hjx5N8/Pz6eDBg6NMhVyXyZyhMCfXrZL4tMMwktL6DoMBoq4h5B0W192othe932qoXrl6/CWvDnfWNbtLYUXZyT6NhfkAklB+UXZIzElbXsy1w6AdBktdjpg3Jq7nF1nkt+C1P8g24BsLEeOL6BNZ1/UMgyXzmmNMXDeao3hVYkeCwTBZOpJkAKljSAkhe39p7ITrEQ1Pvvat6dw33OwLZMJNMNlwhsC8D16UX5QdEnPSlpfnEgwSDJZiFjFvRnK99zs7WSzk7yxMsL6QuRwRc7J5lWCwZJ4Ew1CUIiYJ5ZMEgz1ByMJbXOTywvP7P1+ZOZG2t7fT3Bt/3PRV6FHRUrwisSJ9GrmgjwJoAuKRjC+iLS/mEgwSDJY0rB3X842evLPwdPXsQr5GfJAtYnwRfSpeS401XR9u685Kb10fltMUr0rsaIfBUHUlGAwgGQuKzxKwpde6W7XzRdBrbykWDSUJ1xs/ZYuyQy4sUQURiRVly7uwSDBIMFhqKcVPMpcHcj2/5e6B9zbFQn7T3XXVrsKID7JFjC+iT2Rd1w6DJfO0w6AdhptvTocPVx+OKbwiFpSIPmFFrjoH++z7fyWdtfnl5syN+Cr0qOmNiBXpk7d5jX5XZFIibSpN1ABwJRgkGEbVKZKfpK2+9SV/jO2T1draFgs33J7SFdeMDJGse5Qtyg6JObaWVoYkGEbScmfArK2l2mEwzL12GAwgdQwhCyaVcI9vfDVd8B+rtza0vwpdIBrI+ChblB1yYSEXPDK+iLa8PJdgkGCwVOVacD2LhfxK7HzlnQWjWCDrC2krIuZkXZdgsGRec4y3rke/+SbBYJh7CQYDSMEFQ6PInXNmSndX32YoFA0RFwTSp1krcr3sJbGibHkxl2CQYLBUZYqfZEPdxfUCsUD6RNqKiDnZvEowWDJPgmEoShGThPJJgsGeIGThnUiR6/0QUP5q6E/+ZvVTe8xBUrwisSJ98jav0e+KSDCYqX3KQIpXlB0yZyZSX8aHeudvRsWK8munvuQjSA+2jvjmnYVbqg+05XrsuCifSF5F9GlaXNdDz93knbW1VDsMhuIkwWAAqQ47DPs67koefufJr4fmReqt1Zs5Wl8PHRVtxAWB9GnWipwEwyhGD/5zileUHbKxm1YT5UU/KlaUX436srWeUn7IOV/7LqrEQlV/913shQr7jg3JKwon0qdpcV2CQYLBlMQRk4TySYLBRIGJ3CGjmte+XPhgdUfr4SNNvx2igeIVuSCQPlGYR42PxIqy5cVcR5J0JMlSlSl+Yrlc7fB+/t/+r+llT/39ybp7U3VMdAyxgPnUApLCirJDx+etMYP4pSNJlsxrjqEwJ7lQwk/tMBjmXoLBAFLHkBJC9v4SlXADfbrvru47Xfl40oidBjI+yhZlZxaLXC+nSKwoW16eSzBIMFiqMsVPpGHJx0Grh5uPffTfpQsvvLB5k6ZALCA+TWDdCoV5R3zeGiPBYMmw4WMozEmul/BTgsHACQkGA0gTKLxk8zo0SXpFw03VcaUhZ2lLEm5SzSvp06wVuUlhThZxL+YSDBIMlqpM1oUiW1ks5Dpb7egeO3YsXXjlq13HQMdpXi34dI4pim9C6x/l07TWUh1J6madt64P4yzFhRI7EgyGqiLBYABpQgWTSriRSZJf65ff2JGvEQ/gjbTlgIuyRdkhFxayoSbji2jLy3MJBgkGS5kJwfUOsZB9/vL2WemSf/m+kTu5tYmvx9EQmPcBz1tjxhFpEgwSDJa8nemHjyQYTBTYGUQWzGkUuR3HjaKBjI+yRdmRYDg9XPfyXIJBgsHCVLIujGWrRyzkj2Y+eNEb0rX7r7e4P3LMWD4NsErZouyQN1zIuj4sPgkGCYaRSUsTm0o4yo4Eg4kC9RcMOQLDq/4oXpF5Q/rkbV6HsYPyi7JDYk7a8mIuwSDBYKnKpzVv+oiF/MzCx458Ki0uLlrcHznmtMY3YeFB1hcJhpFUCt2/kFwoyRkdSTLwSILBAFLHkBJC9v6St5Ea5KnLpxGiwWVrBHSULcoOubBEKXK9U0BiRdny8lyCQYLBUpUpfrpzuVcsXL0/pf23VseQ9oZ8c4w7viHgnzbMRxDCW2PGWUu1w9CNGoV5FH5KMBiqrgSDAaRZEgw5lt4vkHZ8VCjigkD6NGtFToLBl7+doyleUXbIhZMUx1HjOy1+9X4cs0MskJjTXKCwouzQ8VF1XUeS7PWUwpzkQgk/JRgMcy/BYABp1gTDENFQknCTal5Jn2atyE0Kc7KIezHXDoN2GCxVmawLJltZLNxdvWXusUea7r36zSlde0tjZ6F9ebk+LE6TTxagqjGULcoOWV9IoSbBYCRUNSwi10v4uWdzc/OEPfzBI7e2ttLevSeLQolNyhZlZ21tLR04cCAtLS2lQ4cOlYTW+LuUX6StiD7l+NbX19PCwsJpw/yMLxxNZ9+3uvP7zyz9cnp830tnlusk5ruBn1TeeHm+sbGRVlZWGrxcXl7uOhNO+bQb5s+L+6BCFBFzcv4stvY8+2Q6555fS3s2vtiA6dsLN6bt17wlnTjr3C7YKMwtPnkWDmoOKTt0fBTuw+JbXV1NR48eTfPz8+ngwYMj4Y+IFekThTnJhZL4tMMwktIpaYfBAFLHkBIF2/tLlEIv8ulLn63umlVfI21d33rzL6bzrnytD5QBo4v8Co55di9ifJRPZHxenmuHQTsMlgI0Na4bdhba/nq5PizOqcVnAbs1JqJP2TUKd+0w2MlAYU6uNSX8lGAwzL0EgwGk4M1rSZI0QusQDdvb22nuf7ozpUuv9gHTZ3SxXxNYpGatyPXCTmFOFnEv5hIMEgyW4jMVrh9/LKXD1Q2V/O985WNI+QHnAZeX6xIM9eG6HnruZmtErpfUBAkGQ9WVYDCANOuCYUc0vDNtbz+b5ubmml8qLRQNJcnbOSuUHfJOFNlQk/FFtOVdWCQY6tNE+aontytH5t9AW06xELW+kFhFrC8k7tphsGe0t65PQxyX8FOCwTD3EgwGkHaDYGiJhu0/+IVKMJzZjPitd1Si4SofQBPAqqQI9Do/a0WuNz4SK8qWF3MJBgkGS9Gh+Nm3oR5DLJCNK9nkk7Ymirll0geM8daYQT8lwWCfBArzKPyUYDDMvQSDAaQJNMHk4kIW8W89dCSd9yeVUGhfBaKB8ouyQ2IepchJMPjyt3M0xSvKDskpkutR45uYX2OKBRJzmgsUVpQdOj6qeZVgsNdTCnOSCyX8lGAwzL0EgwGkXSQYGgn3+Jearw9MrZeMjSkaSpJ3Eo1d1AWdwoksvKQt78KiHQbtMFiq8kTy5rG/S+me6jim8ZmFXj+9XB8W50TiswA7ZExEn8i6LsFgJ0hErpfwU4LBMPcSDAaQdptg2Fc1LD1vTxrneFJJ8kow+HjZHk1hLsFgxz8i5tNqouwoNUdGxarh1zPfKBILJOZRsYo6f1TzKsFgz2gKc5LrJfyUYDDMvQSDAaTdKBhyzIWioSR5JRh8vJRg8OMVkZ+UT2TzSvoU1dYTX/h0Ov/PfmvsnYU2+yI2UVEast4MJblA4S7BYK+jFOZR+CnBYJh7CQYDSLtVMBSKBmpBoOyQTVSUIjfJRZjC3buw6EiSjiRZqjLFz1QdQ3r2/b+Sznpqs/mzI16dOsw3L9eH2cLiq36EskXZIesnWdclGCyZ1xwTkesl/JRgMMy9BIMBpN0sGPqJhhtvT+nq/SOBK0neTuOUnVkschIMI2k4cADFK8pOHZsoL/rhsGo9s7D99S83XyddIBai1heSV+Hmr0VAqnmVYLBnNIV5FH5KMBjmXoLBANJuFwxjigZqcaHsRF3Qyfgi2vIuLNph0A6DpSoXc73jAefGBytfuzT0o2wWn7xcH2azOL4JrFsRfSLrugSDheXaYRiKUsQkoXySYLAnCKmEp1XkfNGN2LrufaZhxE4DxVHKDok5yQUyvoi2vE2UBIMEg6VuFXG9521IT73iB9Pz//GK5WeHjvFyXYKhPlzXl5672RqR6yU1QTsMhvInwWAAaQJ3asjmtSRJeqMfacshGkbaMkJP2SExl2AwTl41zLuwSDDUp4mys6A5kszlsW31eXXq8Vf/k7Qvvx2u8PJyXYKhHHOyrmuHwZ4AEbk+dk2owpZgMMy9BIMBJAmGbpCMoqEkeTt/kLJDLixk80PGF9GWd2GRYKhPE+WrngEEw4DvLFB54+W6BEN9uK4dBu0wmOodVUwiNhkSDCYK7AwiuUAtLqRPZlsN0dDxcbc+x5PMtkZMAWVHguH0cN3LcwmG+jRRPkadZsEw5KNsVI3xcl2CoT5cl2CQYDDVO6qYSDCY4Mab84jzRzavpy2+EaKB8ouyQ2IeMZdJn0hb3iZKgqE+TZSvop9GwTDiC85UjfFyXYKhPlyXYJBgMNU7qpiQizDlk3YYTBTARQzZvFJcGIufQ0QD5Rdlh8R8LKwGUI2ML6ItbxMlwVCfJspXPU+TYOgVC9fektLrqn86LipvvFyXYKgP1yUYJBhM9Y4qJhGbDAkGEwUkGIbBNOCZBipvKDsSDKeH694mSoKhPk2Uj1GnQTAYxAK5Lnu5LsFQH65LMMy4YKjCO+EtaBovBISAH4Grqrp/x1Un/95dn0vp/sf8dvQ3hIAQEAIEApftTemdV6Z00dlNa4e/VP3zKGFZNoSAEJg1BPSWJMOMaofBAFLHkIh3u0mfimz17DRsLd6a9l7zZh/AfUYX+dRjL+IdQDK+iLa8mGuHoT53Xb3JPTV+GncW2v5Tfnm5rh2G+nBdOwwzvsNworq8Ba3feKqYZNuULcqOBIOPIRTu+VepxYX0qdhWh2hofD31R/+XlK7e7wO5Z3SxTx32KMwj5jLpE2nLi7kEQ32aKG9ik7k80JZTLJxOrksw1IfrEgwSDKZ6N5UiZ/Lk5CDKJwkGH/AU7jMrGHJgLdHQEAxzcymN+CL0qBmIiDnZZJDxRbQlwTCK4Xxdn+n60oKrL9fHEAtkLnu5LsEgwWCpDlRdp+yQ9YXMv5L4dCTJwEQJBgNIHUNKCNn7S9TiQvqE2apEw/Yf/MumYMhXgWjAfKrcoDCPUuR6OUViRdnyYq4dhvo0Ub7qye2w982/McUCmcterksw1Ifr2mHoZmtErpesWRIMhmouwWAASYLBB1Jr9LceOpLO+5M7Tv7dMUVDSRGYlEgjmwwyvoi2vAuLBEN9mihvYZgYPwvEApnLXq5LMNSH6xIMEgymejexImf69f6DKJ8kGHyTQOGef/Xhhx9OV1xxhc+BPqNJn3Bbj1evJrn7HUWigfTpySefTOeee24x5mSTQcYX0dYzzzyTzj679aoaA/ISDEwT9dd//dfpVa96lQHx4UMicqor/wrFApnL3/nOd9Lznve8YsxJn0hbUbmwc/y1EPlh8UkwdIObHxHes2dPIeLNv07xqsTOrt1haE/i937v96bPf/7zQydUgsHH9xJC9vulO++8Mz3wwAPpQx/60NjJR/o0EVsjvgg9agYon2677bb0u7/7uzs/V/pOBMovyg5ZeClbmd9vf/vbG5hff/316cMf/vCo6U4SDIxgyLw6duxYyuvAJz7xiXTttdeOxL7fgND8fOYbKd3z61XH0XqHc5+PslmCJmLs5Hqb77NW1wmc2vNB2soirV3PJ8V1CYbmzPXyvD2fX/jCF9Lll19uSbdTxlBcKLGzKwXDDTfckN74xjemX/iFX0i5QcrX7/zO7wycRAkGH79LCNn7S+3Ey43UrC0spzScBaKBwPz9739/et/73reD88/+7M+mXOAsDewghhB+UY35JBbh0vgefPDB9JM/+ZPpc5+rPspRXS972cvST//0Tzdq07BLgoERDBnjH/qhH0of+chHZlIwPPGFT6fz/+y3isUClYMZ6+uuu24kv60rTmn+df4OZYuyQ2Ge7XT2PLnm/MRP/MTIG6Xj1HQJhv6oWfrMUZyneFViZ9cJhkceeaSxKOddhaz0cvK8/vWv31He/SZNgmEUlbv/vISQnZby4pKvPE953mZeMORgxxQNFOad+GcB8Uu/9EtjLyzkgkfGF9VWxsu6sEgwMIKhLZJnUjBUx5Ceff+vpLOe2mym9Zg7C+2aQORNXnvzTYlxd3J6VyLCJzI+suZRtvLamW+45eO9xPEYHUny9UOWHtNikeJ6iZ1dJxjy5L3hDW9I+RxlvnIy5e3oYVtFEgwWOp8cU0LIfr+Um6hdIxjGFA0k5l/72tfSxRdf3NhWzUfBtMMw3OoFkQAAIABJREFUmP8k7vlXckP1rne9K918881Dk06CgREMuYHKtX/mjiTlZxYOvyNtP7HZfAtboVigmtfehjWvwyVNLJl/lC3KDoV5WxRne1kY52tSR2O0w3Bq2aZ21SheldiRYJBgaDC8hESTvOuTbe86wZCDzgv+799+EtoRb08i5y8v4n/xF3/RENYf//jHi+4GUn5RdqJyPS/qb33rWxs7nZbnRiQYygVDrivz8/ON4zG5aZ3UuW7f7RagFrfEQnp6KzUedH3jj6f0ulu8bpwyvjQH23da281qPvKYG9h8HG9c0VDqU2eQlC3KDlWr2rXlj/7oj9Itt9zSuBH0e7/3e2PvHGuHwZ5K7RvSlpo+yirFqxI7EgwSDBIMozK1589LEs4lrhyigfSpfWyvvcA44ekaTvlF2aEW4XaQpF/ZZl7c86I+aoGRYCgTDL3nuGdGMHSIhcynJ1/5o+ncH/ypkhTe+bs019t1JguGvMMzzkX6RNmi7FC1qn20tC3MLKcqhs2FBIOdqVmcffGLXxz6jKzVGsWrEju7TjDoGYb+9CwhkasJtmZHx7hducPQjt8oGqj5ax/Zy+9Kz8/2lF6UX5QdahGelGCwLuYSDGWCYdBbTPKO2ji8D8HPHrGQjyEdv+rGtG9fGVaT5Ho+gifBMLjKErxq1/TnnnuusZNjrTGDvJJgsK+K+ThSfsB81BFTi0WCC6Xr364TDBkwvSXpVHpSZCwlZL/E2dWCIQNiEA3E/LUXkvxCgHHv+E1KPBLxTaLxKfWr9+5f5vqf/umfjjwuIMHANMFtTtR+h6GPWMjHkEr52ZnPpbZ6X6LQfgvbrL3MohQnEvO2rZe//OXp137t1xq7l+31dNxn0yQYLO19c0z7GalxX6U6CS6U8HNXCob2ROZ/6zsMTUqWkGhSTWLb7q4XDAbRQMxf7zcY2viPOh4zrHwSfkXmJxFf791uC94SDIxgeOKJJ9L5559f72cYesXC/ltTevWbQ9b1Tq7ntbfk+YWodYGoCZO4udH5HQZLjRlU1yUYbIKBfH6B5HoJP3etYLBNeXOU3pLkQYsVHw899FC68sorfQ70GV2SJJMURC6/huw0uOwUo2k3QPlF2SELL23Ljmq16fTYY+nWW6vGsLpuv/32tH///p2/HhGriD5lwGpfX3rFQs/LEaLi7uH6NG5IkLm8mzHXW5IoZp9qh+JViR0JBsP8SjAYQOoYUkLI3l/KZ+kXFxd9DsyqYMhxDbibSGKeH9LKb48hLsovyg7ZGJC28p3WfGzAekkwMDsMta4vI8QCyU/SlpfrEgwM1/Md70kfjZFg6GZr+5XN1ro+Da6XrKUSDIaZlGAwgCTB4AOpNXqs5O0jGo6/fBF7uJFqosgmYyycBsxIRFtezCUYmCbKi/ugJJ86p/IHHu/59ZRfndq4Brx2eep+GaoghTlZX0hbETHP8VG460iSgeStIRTmUfi5Z3Nz84Q9/MEjt7a20t69ewlTibJF2VlbW0sHDhxIS0tL6dChQ8UxUn5lRyhblB3Sp2xrfX09LSwszCTmJVg97+t/n8754K/tNAxPfP8/TWe85seKcSIxL4mvN5Co/KT88vJ8Y2MjraysNGBaXl7u2oWjfNoN8+fFfVCCTRPzM77yUDr73t9o5v45e9Oz1/54+vaV/Xdhp+mXtfhQmJP8JG1FxJys68PiW11dTUePHm3sUB88eHAkJSJiRfoUkesl8WmHYSSl9QyDAaKuIeQdFkqhkz6FsTWhDzRRmEe5K9LL3zDz1+GYF3PtMOzSHYbOnYVKLKTrqudYrj75/Moscn3Y+hMxlyP6lDH01phBuGuHwd4RUZhHWUslGAxzryNJBpA6hpAFk0o40qdQto4/ltL7fj5tP/HNNDc3l/K710u/6kphHqXIzWITJcGwCwWDUyyQ+UfailhfyPhCrQ8FNyUkGHx9T7/REblewk8JBgMnJBgMIEkw+EBqjS5J3p0frETD9ntuS3PPPdv8T/mVivnVimNes1bkJBjGJEL11xB+gnbIxi7borhO4TQwvs/cn9ID7905hpRuuD2lK64ZObET92ukB6cOoDCnuUBhRdmh46Nw1w6DnfQU5iQXSvgpwWCYewkGA0gSDD6QSMFQ2Xp846vpgv9YnRnNx5QKRcOsFTkJhrGo2fhLJYtL569SdkifaiMYPvUnKX3ysFss0FhRcxixvpBYUTiRPk2L63pLUnetjcj1En5KMBjWUgkGA0gSDD6QYMHQKALnnJnS3e84KRpecnVKt1RvUnFes1bkJBicBJhALpcsUpOcP4rrE4uvQCzQDScVI4V51PgonOj4KNy1w2CvpxTmJBdK+CnBYJh7CQYDSBNoMqZ1V8QXHXfXdSJF4JnqzSmniIZ3VT+1xxzmrBW5STacJcW30y8v5nqGYRc8w5DFwv3VMaR85QecjceQOnlF8ZOsVV6uDytcEeOL6NO01lLtMHSzNSLXS/gpwWBooyQYDCBJMPhAao0uSd6BjUGhaJi1IifBMBY1G39pIvwc3x3Up2k1Ud5wG5h/7mPFYoGcP9JWxPpCxkflDOnTtLguwSDBYKp3EZOE8kmCwUSBnUEU7tMqcr7ouCaKXBBOwbxANERc0ElORbTlxVw7DLO7w/Dkx9+fzv3PdzfL0pg7C+2aNgtcH1afI8YX0adpraUSDBIMpn4qYpJQPkkwmCggweCDCb1bOpDrh9+Z0qOfaXp20WUp/eRvVv9j+PEkb/M6jQWdymVSpJG2vJhLMMyoYKgebt7+T2vNVyRnsZCfQbro8jEqS/OvRMwbL9enUV9IrCJiLsFgTyFy/iJyvSQ+HUky8EiCwQBSx5ASQvb+EpVwpE8RbQ316fAvVaLh0ydFw1vvSOnswV9lpzDfDYswxQUv5hIMMygY7rsrper1qdvb22nuRZc0xcK+i33Ft2c0xU8yl71cl2CoD9e1w9DN1ohcL6kJEgyGcizBYABJgsEHUmt0SfJ2/uBIOx+sRMLDR0yiYdaKXO/EjMTKMZOULS/mEgz1aaJG0ikfH8wPN+dvLVTXsy+4JJ11868WiwWyySdtebkuwVAfrkswSDCMrHdkMSFtUYu5BIOJAjuDKNyzQWpxIX2KaMvkU+sOZmOi9l2U0k3VcaV8TKnnojCPmMukT6QtL+YSDPVpooZWzywWcl52iPnH37SSLrj0Zb6iO2C0qS4Yf4my5eW6BEN9uC7BIMFgKidUMSEXYconCQYTBSQYfDA1RlMcNdvpFA2NM9LVzkOPaIi4oJvjM8xBRFtezCUY6tNEDaRkH7GQquOCx5/+dtq3j4lvFrguwcBwwVtjBuE+jFMSDBIMhiWYa3xOSxM1IkIJBhMFJBh8MJ0ewZB/NR9/yO94z1cf0UAtLBFzmfSJtOXFXIKhPk1U37LQKxbyRxZvqj66WD1bFLHJP51cl2CoD9clGCQYTG1QxCJH+STBYKKABIMPptMnGPIvV29jSQ9W/7Sv/CD0pVc1/p+3eZ3Ggk7lMtn4kLa8mEsw1KeJOiU/jj+W0j3VA82P/V3zjzrEAsmpqLa8XJ9GfSGxilqrKNy1w2Bf6CnMo/BTDz0b5l6CwQBSxxCyYFIJR/oU0dZYPuWHLPMRpfb1Y9UdziuukWBw0H0s3PvY9/JcgqGmgiGLhCwWsmjI16vfnNK1t3S9tYziFNlkkLa8XJdgqA/XtcPQzdaIXC+pLxIMhuZAgsEAkgSDD6TW6JLk7fzBse186bMp3V0JhfZ14+3pY984My0uLo4VT+9fGtuvHkOUHbLxIW15FxYJhvo0UTtUzmLhcJVrT1cPOg8QCySnotrycl2CoT5cl2CYccGwubl5gugMtra20t69g9/t7vkNyhZlZ21tLR04cCAtLS2lQ4cOeULpO5byKxunbFF2SJ+yrfX19bSwsDCTmJNYlczfGV95KJ397//VDsb/7/e8Pl36Yz9bjHmU+HoDKcFqUra8PN/Y2EgrKysNd5aXl7sEXsT4Ivo0zfrSyLF7f2NHLGy/5i1p+/vfUpv1gcxlL9eHFaKIvIro07S4vrq6mo4ePZrm5+fTwYMHR64hEbEifYrI9ZL4tMMwktIpaYfBAFLHEPJuMHU3ivQpoq1inzrufh47dixd+KM/l9LrqqMShVexX63fp+xkcxFteXmuHYb63HVtfF/hgepFA+2dhf23No8iDbgi8pPMGy/Xh5WgiFhF9CljSOGuZxjsiyKFOZl/JfyUYDDMvQSDASQJBh9IcCNcUgR2HG+drz72yEPpwgsvbD6Mmb82W3AhfgVt8ski7l1YJBhqIhjy28jyCwayWMhvJLuuEgtX7x+aUVTOkPwkbXm5LsFQE65XE6UjSd1sjcj1kvoiwWBohiQYDCBJMPhAiigYsk/V6x6//O6fSJfMPdP0sFA0lBSnTkApO2TjQ9ryLiwSDDVoojrfRJbFwg23N14qMOoS10chdPLPI2IV0aeMmLfGDJoF7TDY+UlhTq41JfyUYDDMvQSDASQJBh9IUQVD5deD938kXfvYx1N69DNNL/OH3fJrV6t3xHuvkuIkwTAYbQmGwIIhf2Mhf+skH0XKl0MskI1BVFsRmygSK6rmkT5JMNhXLnL+InK9JD4JBgOPJBgMIEkw+EAKLBh2itzhX6pEw6ebnu67qPqw1DtP+Sr0qKBLipMEgwRDPwQoTk2kier39eacNzl/jBcZX0RbEZsosjmPiPlEuN6HzzqS1A1KRK6X8FOCwVDEJRgMIEkw+ECqg2DIPvZ+FTo3P60PvFkCLilOEgwSDLUSDOec2fyuycNHmm6PuTNH5QzZBJO2IjZRZHxR54/CXUeSLCtfcwyFeRR+SjAY5l6CwQCSBIMPpLoIhuxn71ehWx94swRMLZ6UHbLwkra8C4uOJMU6kvTEFz6dzv+z3zr5QbaerzdbcqU9Rly3oxURq4g+kc2rBIOdn966PswyxasSOxIMhrmXYDCAJMHgA6lOgiH7mu+afrB6jqF9jXg1JN38lBS53omJaMu7sEgwBBIM1ccPt//4V9Pcc882qdbn682e4hCRn6dTHE+jiSLjizp/3hozCHcJBns2U5hH4acEg2HuJRgMIEkw+ECqm2DI/vZ+FTo3Rlk4DLmoxZOyQxZe0pZ3YZFgCCIYWq9N3X5iM83NzaV0bfXtksLvl4jr9lIaEauIPmVEvTVGgsHOw0EjKczJtaaEnxIMBk5IMBhAkmDwgVRHwZB9bn2rIR1/rBlB47Wr76r+x56+8ZcUp06DlB2y8JK2vAuLBEMAwdBxVG/7jLPS3PXLI7+xYCkS4roFpeaYiFhF9EmC4fRwylvXh3lJ8arEjgSDgUcSDAaQJBh8INVVMGS/85tg7n5HUzzkKz/ceVP1//ddfAoGJcVJgmEwpSQYTqNg6PPa1G+9/qfSea9801g1oPcvUTkTtaGO2ESRWEWdPwp3HUmypzmFeRR+SjAY5l6CwQCSBIMPpDoLhnak+ZmG9hth8rvm81ehL7q8Cwdq8aTskIWXtOVdWCQYTpNg6Pva1Hek4+mctG8f45O4bi+lEbGK6FNG1FtjBs2CBIOdnxTm5FpTwk8JBsPcSzAYQJJg8IE0C4Ihx9D52tX8/3/sF6uv2b52B4uS4tQJKGWHLLykLe/CIsHANOcu3Psdx7up4vvZ54U8GkPyk7TlwnxEVY1YFyL6JMFgX57J+YvI9ZL4JBgMPJJgMIAkweADaVYEQ44jP/iZhUP76njws6Q4STAMppQEw5QFQ37g/55qB+3p6jhevnrehETxnGzMo9qK2ESRWEXlAoW7dhjsSz2FeRR+SjAY5l6CwQCSBIMPpFkSDDmWxhuUqo+6pRPNyK64ptptqI5qHD+OHNWg7JCFl7TlXVgkGKYoGFpvQtoRC31eKTzr/DydXB9WWCPiHtGnjKG3xgzCXYLBvtRTmJP5V8JPCQbD3EswGECSYPCBNGuCIceTj2zc+5tdD0M//qaVdMGlLxsLm86/VFLken88oi3vwiLBMAXB0Ofh5nTD7U0x3HNF5BTZZJC2vFyXYJgC1x0VWoLBDlZErpfUKgkGw9xLMBhAkmDwgTSLgiHHlJuse6qHoR/9TCPCxusm/+mvpnTpVWPh0/5LJUWuDs2dd2GRYJhwE5VfG/xAdcyu/VD/votS+uGfH8jjWeenBIO9fEXlgrfGDIpYgsHOBQpzMv9K+CnBYJh7CQYDSBIMPpBmVTC0UWg9DL29vd38oJXxy9DjLFJe4EsK5qTEh3dhkWCYoGDIx+vyTlnnt0ZurHYWsmgYcEXkFNlkkLa8XB+W3xFxj+hTxpDCXYLBvuJQmJP5V8LPPZubm61Dx3YQ+o3c2tpKe/dWr1YELsoWZWdtbS0dOHAgLS0tpUOHDhVHSPmVHaFsUXZIn7Kt9fX1tLCwMJOYk1iR80dhfsYXjqYz/8Od6YwzzmjM37cXbkzPvv7Hx5pLMr6ItryYb2xspJWVlQaWy8vLaXFxcQfXiPFF9KlffZn7mw+lub/6wM7DzZmz2695Szpx1rlDeRs1voh+ebk+DPiI8UX0aVpr6erqajp69Gian59PBw8eHFnrI2JF+hSR6yXxaYdhJKVT0g6DAaSOISUKtveXKIVO+hTRFukThXmeyye+8Ol0/p/91sm7tUM+8jaMZWR8EW15MdcOA7zD0O95hetuNX+5OSKncj5F9MvL9brVhYiYZwwp3LXDYO+HKMzJXC7hpwSDYe4lGAwgSTD4QGqNLknezh+k7JALy06RO+fMrucaUv7I24CHRweBSMYX0ZZ3YZFgAAXDlS9pvha49dxN4+jRkOcV+nE0IqfIJoO05eW6BAPI9Y6dyLEWrBEi9I477khHjhxJl112WbrrrrtG/kTEvCF9isj1kvgkGEZSWjsMBoi6hpQQUjsMXrSb4yNifopfvR956/hew6ioyfgi2vIuLBIMTBP1qQ++L7360Y+c/L7CS65OqfUxtlGcnJRgj8hPssZ4uS7BwHCdwl07DPbKQGFO5l9JfZFgMMy9dhgMIHUMKSGkBIMP6/boiJj3LXK932vIR5TeWr1V6ezhzz+R8UW05V1YJBgKm6h8BOnBw+nYR34/XXjhhc006vkYmycTI3KKbDJIW16uSzAUcr0FIIW7BIO9MlCYk/lXUqskGAxzL8FgAEmCwQdSa3RJ8k7qDufEi1zv9xryEaWbqo++DXn1KoUTWXhJW17MJRgKmqjMv08ebrwy9dixY+nCS6ojSc4jcr3JPuv8PJ1cl2Ao4HoHeN4aMwh3CQb7Uk9hTuZfSa2SYDDMvQSDASQJBh9Iu1kwtJFyHFEqKXJ1aO68C4sEw5hNVN7huufXd44gPZr2pZf8zOrQV6ZaEnvW+Uk2LF6uSzCMyfUe4CjcJRgsFaE5hsKczL+SWiXBYJh7CQYDSBIMPpAkGJoIfOpPmg+ctq/GW5Sq3Yaed96XFDkJhrGo2fhLFO6UnbF9ah1BavCtfVVHkB5Ml6Zr918/PkBwHo8d34AITjvuffyK2ESRuEfEnGxeJRjs5SIi10v4KcFgmHsJBgNIEgw+kOBGo6QI9Do+9SLXe0QpO5Q/lHX1/h3XyPgi2vJirh0Gx13XfkfgWq9M9eI+KMkjcopsgklbFOakT6StqFygcJdgsC/1FOZR+CnBYJh7CQYDSBIMPpAkGE7Fq/eIUn4INX8hurqiLsKUX96FRYLBKBjyjkJ+XuHp6iHnfOW3IHV8tdmLuwSDEfch1ZDCPGpdoGoCHR+FuwSDfamnMCe5UMJPCQbD3EswGECSYPCBJMHQH6+eM+YpH1F609vS8QsuTfv2lTcrZOElbXkXFgmGEVzIR5Duq94DXz3Y3Ljyg/Wvu6W5a9XxRi4v7hIM5TlIYU7mH2mrpCHr5Rdpi8JdgsG+1FOYR+GnBINh7iUYDCBJMPhAkmAYjFdu9u6pXrXa/pBWNfKpV/xgev4/XhkL40kuwtSC7l1YJBiGNK4DRGe/t3B5cZdgkGAYVYSomkA2idnWNLiuD7d1s4PCnORCCT8lGEZlf/XnEgwGkCQYfCBJMIzGq+OB6O3t7TR3yRXNL/DmXYeCq6RgTkp8eBcWCYY+jWvvrkKerLyjkI+1DfjOhxd3CQYJhlGlJ2J9kWAYNWsn/5ycP6q+SDAMmT9qwig7Egz2ZCOJPa0i54su5nl6iusk5ggXWg+sbn/54TQ3N9ecqo5nG7xzh/g0AXHsXVgkGHoa18/cn9ID1du22s8q5CNIrQebh3HEi7sEgwTDqJpD1mLS1jS4rh2GbnZQmJPrVgmntMMwKvurP5dgMIA0gSaKbF5LkqQ3+oi2SJ8iFrknP/7+dO5/vvvkVORdhjF3G0isKFtezCUYWo1rv12F/GDzTe8Y+fVw1ZfTU9e9XB/mJZV/URqySa41FO56hsGeNxTmUfgpwWCYewkGA0gSDD6QWqOpBY+yQzZReJF75hsp3fubKeVdh/Y1xm4DiRVly7uw7HrBcM6ZzQeae3cVnF9s9uKuHQbtMIwq9FRNIOsnWdclGEYx4OSfU/WF5EIJPyUYDHMvwWAASYLBB5IEgwuvriLX+7E34/GT9g+WFMxJ3QH0Liy7WTB866Ej6bwj1atSO4XjiGcVBpHNi7sEgwTDqMIVsb5IMIyatZN/Ts4fVV8kGIbMHzVhlB0JBnuykcSeVpHzRadnGDx4UTl4ip3cLOb367dfm5mduuKa5rn1nq9ET6rJJ7nuXVh2pWBofa15+79+OM0992xzWvPRtPy61Dz3Y1xe3CUYJBhG0YyqeWR9mdZaqmcYutlB1ReSCyX81A7DqOyv/lyCwQBSx5ASQvb+EpVwpE8RbZE+UZhPpcj1Puyaf3TEMSUSK8qWF/NdJxjyq1LzcbTjj6XGG7POf0Hf7yr4KtV0XjXp9YniFJl/pC0v14fhFxGriD5JMNizkJy/iFwviW/P5ubmCTuUg0dubW2lvXurN1MAF2WLsrO2tpYOHDiQlpaW0qFDh4ojpPzKjlC2KDukT9nW+vp6WlhYmEnMSazI+aMwn1Z8e559Mp31ibV0xt9+9CRPqmNKz1774+nbVy6ewh0SK8qWF/ONjY20stL8LsXy8nJaXDwZJ+XTtOZvWHKf8ZWH0lkf/4O0Z+OLO8OeufiKdOK6n0rfedFLi+uCF/dBPxgRc3L+SFsU5qRPpK2oXKBwHxbf6upqOnr0aJqfn08HDx4cmZ8RsSJ9ojCPwk/tMIyktHYYDBB1DSlRsL2/RSl00qeItkifKMzzXFJ+mey0XsHadba9z9uUTLaMpKdseTGf+R2G1vGj9Nnqdamdr0qtjh8df/ki9tVvL+6DaEHxgMyZqLYozKPGF5ULFO7D4tORpO4KQWFOcr2EnxIMhsZAR5IMIHUMKSGkBIMP6/boiJiftiKXH4rO/1THV3au/FBsPutePd9AYkXZ8i4sMysYBgmFfMws/1N9gI3CPHPDi7sEg55hGFWhSX6StqbBdQkGCYZR+dH4c5LYlC3KjgSDiQI7gyjctaDbcY+IOVkXxoovPxT9YPVP51U1nY9f8QPpgktfZgd3yMix/Opjz7uYz5xgyEIhi7z8TEqn0MvfVLjx9q4H2SnMVV98KUDh7uX6MC8pn057rRoQJBkfhbt2GOx5Q2EehZ/aYTDMvQSDAaSOIXUrcr7oZlsck01UiCKXjym1G9HWRDcemn3tUkr7qzcqFV4U170Ly8wIhiwUskjo3RHKQiHPTz5S1nNRmJNcJ32adVterkswlO/qTIvr2mHoZmtErpfUFwkGQ8MgwWAASYLBB1JrdEnydv4gZYdcWEIIhjZIHcKhIRjm5pp/0j7qMuJVrIMml8Ldu7DUXjAMEgpZIOTjY3leBlwU5iTXSZ9m3ZaX6xIMEgyWxZXKG8oOWV+irKUSDAYmSjAYQJJg8IEkweDCCyvilXB4+v7fT+c8ut79+2MKB8ovbxNVW8HQPnqUv5/R+eG1tlDIYqF6TmFaTaIX92mIGIpTZJNB2qIwJ30ibUWdPwp3HUmyL10U5lH4KcFgmHsJBgNIEgw+kCQYXHjhi/DXHkrpr/9DSo9+ptuPjoejLQ5SfnkXlroJhsc3vpou+PS9qeutRxngvLOTxZpBKLTng8KcvANI+jTrtrxcn5Z4pHCn7JBN4rS4riNJ3WyNyPUSfkowGLoCCQYDSBIMPpAkGFx4lRS53h/qspU/CJbP0Od/Oq/85eCXvabZyA65KL+8C0ttBEPGt9pN6Po6c8YzP6Pw8ha+I3YUhs6fi0WnDvbiPujnKB7QTWJEvyjMo2IVEXMJBnuhIOcvItdL4pNgMPBIgsEAkgSDDyQJBhdeJUXO1HD2eTi68ffyHfCXV+Ih3wXv85wD5Zd3YQktGPKxo3zkKD/I3Dp2tPPcSBYK11avt81HkJxCoT2PFObTaqJcRK8Gk/FFtOXl+jQEOyk+ImI+La5rh6GbrRG5XsJPCQZDNZdgMIAkweADSYLBhVdJkTMJhvag3OB+rmp2e1/Hmv+8z64D5Zd3YQkpGFq7CaccO6q+uv3MvkvS2Tf+bN+3HrmIADfUXtwH+UrxgGxco9qiMI8aX1QuULjrGQZ7xaIwJ7lewk8JBsPcSzAYQJJg8IEkweDCq6TIuQRD5+D261g7H85t/3necagExPELLkW+OuxdWMIIhrbA6n2IOeNUCYXGzky1Q3P87O9CcCIXzmnddXURHRZEpyVvRgTs5fowcxHji+jTtLiuHYZutkbkegk/JRgM1VyCwQCSBIMPJAkGF14lRW5swdD+i4Oec6j+/NnnvyCd9Yo3NHcfLr3KFVPnYO/CcloFwyiRcNHlpxw7Oq3zN2RWvLgPMhU1voh+UZjT4pHCirJDx0fhrh0Ge5mnMCe5UMJPCQbD3EswGECSYPCBJMHgwqukyBULhk4D+U76f3ugeUa/urq+6ZD/Q35IOguHEQ9L9/rkXVimKhjOObP5LEI6oshnAAAU7UlEQVR+o1S/nYQcTH424SVV3FdV8U/wWQ9y4cy2vLhLMJR/E4DCnOYCVWMoO3R8FO4SDPali8Kc5EIJP3e1YLjzzjvTAw88kD784Q8PZYAEgz1BSGJrQbfjXlIESpvXYV5SflF2UH5WR5ae+ezH09lfe7g/BHnXIT/cm5vpEbsP3oVlooIhP7R8/LGGQGjEd/zLKT1d/bfeqy0S8kPhfb7I3Dk85PxJMNgLTDWSmkMv16dRX8i6QOFE+jSttVRHkrrZGpHrJfzctYIhi4W3v/3t6frrr5dgABeDOhY516oZFKuSIiDB4GXAyfEN3PMd+Hzn/fN/ubPz0NdibrBzY53/ecHFXSLCu7CggiHvHmx+LaWN6t85jscrsdASCF07KPmZhHzcKO8kGESCBMN4vCJzOaItL9clGMp3dSQY7LlI5kxErpfEtysFww033JBOnDiRLr/88vTII49IMARtgqdV5OylpDmyJOF6f4uyRdkhMSexIuObuK3cdLeb734PTHeSIB/fufjy9NCxp9OVr1lsCokLqv/W51hP519zC4b2rkFbGOQdhK890iUO+uXBsy+4JJ31slc1n9EI8ipUcv6oBZ30adZtUZiT9YW0FXX+KNx1JMneMVCYR+HnrhQM7em+7bbbJBhaYOzmImdPfwmG04VVVH6a/GoLiEerj5j1flm6BeixY8fShRde2A1vvqOfxUMWEflqf7eg+vdjTz2Xbj34e43/fPv/+ANp/39/ZXNMJQyefvrpdM4zj1e7BN9qCoJ89TtS1DuZ7d9r74RUQoZ6u5EJJyO5SFvUgk76NOu2KMzJJoq0FXX+KNwlGIyFqhpGYR6Fn3s++tGPnrCHH3/kK17xivSiF71ooKOf//zn09zcXHrpS1+a2oLhvvvuS5/4xCcG/p177703vfvd707XXXdd+uVf/uX4IMhDISAEwiIw9+Q30/Mf/2o654mvpr3H/i6d9dQ3U/5vnuvrT26n2z/8hcZf+WevenF6w0t9xxa2z31h9YanF6anL3hx401PWxdenvJ/e+7MczxuaKwQEAJCYAeBP/zDP0x/+7d/m1784henlZUVITNjCMzkDsOePXv6TtPy8nL67d/+7dT+c+0wnIRpN98V8eZ0RKxIn2btrkjv/JJYUbYamC9UuwT5mFA+PpR3BvKxofxPvvJuQf7v+ar+/djXv5Fu/fd/0/i/t7/x+9L+K07uQjz77LPprPNf2NyZyLsS+Z/W0aed/238yjIVH2Unx0vaorhO+jTrtijMaS5QuFN26Pgo3LXDYO8YKMxJLpTwcyYFg3U6JRgkGKxc6RxXknCTal5Jn2atyE0Kc7KIezF3P8MwDtHB5pzkJ2nLi/sgGEmfZt0WhTmZf6StqPNH4S7BYC+mFOZR+DnTguG5555LZ5xxxsDZlWCQYLCnfmysyEVq1oqcBMM4LG/+HYpXlB3Sp2yL4nrU+CL6RWFOc4HCirJDx0fhLsFgr6cU5iQXSvg504JhFDASDLGbYC3o9sI0iut2S1wTFaXISTB4Zr97LMUryg7JKdUXHy+oOYzYRJG8onAifZoW1/Udhu6cisj1En7uasFgLZf6cJsVKfau5LSKnC867q4ruSCUFIHe+GetyEkweBnO30gg+UnaorhO+jTrtijMyfpJ2oo6fxTu2mGw11MK8yj8lGAwzL0EgwGkjiFkwaQSjvQpoi3SJwrzKEVOgsGXv52jKV5RdkhO6YaEjxfUHEasLySvKJxIn6bFde0waIfBVFUiJgnlkwSDiQI7gyjcp1XkfNFph8GDF8UFyg69CFN+eZsoPfTse43sIM56cR9kh+JBVH6SflGYkz6RtqJygcJdOwz2FZDCPAo/tcNgmHsJBgNI2mHwgdQaTS0ulB1SpEUpctphGIuajb9E8YqyQ/pEcj1qfBH9ithEkbyKiPm0uK4dBu0wmFabiElC+STBYKKAdhh8MIVtyCIu6FQuk40BacuLuXYYtMNgKTcR88bL9WFxRowvok8SDJZsaY4h5y8i10vi0w6DgUcSDAaQtMPgA0k7DC68SoqcdhhcUHcNpnCn7ERd0KPGF9GviE0UyauImEsw2GsgOX8RuV4SnwSDgUcSDAaQJBh8IEkwuPAqKXISDC6oJRjGgGvW+Uk21BGbKDK+qFygcNczDPYCQWEehZ8SDIa5l2AwgCTB4ANJgsGFV9RFmPLLu7DoSJKOJFkSiOIn2bB4uT4szojxRfRJOwyWbGmOIecvItdL4pNgMPBIgsEAkgSDDyQJBhdeJUVOOwwuqLXDMAZcs85PspGK2ESR8UXlAoW7dhjsBYLCPAo/JRgMcy/BYABJgsEHkgSDC6+oizDll3dh0Q6DdhgsCUTxk2xYvFzXDkN9uK63JHWzNSLXS2qCBIOh6kowGECSYPCBJMHgwqukyGmHwQW1dhjGgGvW+SnBYCdFVC5Qzat2GOxcoDAn86+EnxIMhrmXYDCAJMHgA0mCwYVXSZGTYHBBLcEwBlyzzk+yYYnYRJHxReUChbsEg71AUJhH4acEg2HuJRgMIEkw+ECSYHDhFXURpvzyLiw6klSfYxouoleDKU6RTQZpy8v1YfhFxCqiTxlDCncJBntGU5iT+VfCTwkGw9xLMBhAkmDwgSTB4MKrpMhph8EFtXYYxoBr1vlJNiwRmygyvqhcoHCXYLAXCArzKPzcs7m5ecIe/uCRW1tbae/evYSpRNmi7KytraUDBw6kpaWldOjQoeIYKb+yI5Qtyg7pU7a1vr6eFhYWZhJzEity/ijMo8ZHYkXZ8mK+sbGRVlZWGnmxvLycFhcXd3KE8mk3zJ8X90GFKCLm5PyRtijMSZ9IW1G5QOE+LL7V1dV09OjRND8/nw4ePDhy3Y6IFekThXkUfmqHYSSlU9IOgwGkjiHkHRZKoZM+RbRF+kRhHuWuSC97SawoW17MdSRJR5IsVZniJ5nLXq4PizNifBF9yhhSuGuHwZJ5zTEU5mT+lfBTgsEw9xIMBpAkGHwgtUaXJG/nD1J2ZrHISTCMRc3GX6J4RdkhfSK5HjW+iH5FbKJIXkXEfFpc12tVu2ttRK6X8FOCwbCWSjAYQJJg8IEkweDCq6TISTC4oO4aTOFO2SEbu2k1UV70o2JF+RWxiSJ5ReFE+jQtrkswSDCY6l3EJKF8kmAwUWBnEIX7tIqcLzruriu5IETEPGp8JFaULW8TpSNJOpJkqVsUP8lc9nJ9WJwR44vo07TWUgkGCQZLXcK2rsnCRCWuBIOJAhIMPpgaoymOUnbIhSVqfCRWlC1vEyXBIMFgKTcUP8lc9nJdgqE+XJdgkGCw1CWs8SELE1UsJRhMFJBg8MEkweDAi8plsr6QtrxNlARDfZooB83RmkDyk7Tl5boEQ324LsEgwWCqdxEXdMonCQYTBSQYfDChzQHFde0w+CaRwt3bREkw1KeJ8jGK23Ukm3zSlpfrEgz14boEgwSDqd5RCydZmCifJBhMFJBg8MEkweDAi8plsr6QtrxNlARDfZooB83RmkDyk7Tl5boEQ324LsEgwWCqdxEXdMonCQYTBSQYfDChzQHFde0w+CaRwt3bREkw1KeJ8jFKOwwevKj8IwVRRJ/Iuj4sPgkGCQZT/kZMEsonCQYTBSQYfDBJMDjwonKZbAxIWxIMdjKQXPDiPshL0qdZt0VhTuYfaSvq/FG4SzDYaxWFeRR+6jsMhrmXYDCA1DGELJhUwpE+RbRF+kRhHqXI9bKXxIqy5cVcOwzaYbBUZYqfZC57uT4szojxRfRJOwyWbGmOIecvItdL4pNgMPBIgsEAkgSDD6TW6JLk7fxByg65sJDFl4wvoi3vwiLBIMFgKTizwHUJhvpwXUeSutnqrevT4HpJTZBgMFRdCQYDSBIMPpAkGFx4lRQ57TC4oO4aTOFO2SFFKCmOo8YX0a+ITRTJq4iYT4vrEgwSDKbVJmKSUD5JMJgosDOIwn1aRc4XHbtlSWFF2SEx3w2LMIW7t4nSDkN97rrOQn0hc9nL9WncdSXjo2oC6RNZ1/UMgz2jI3K9hJ/aYTDMvQSDASTtMPhA0g6DC6+SIqcdBhfU2mEYA65Z5yfZvEZsosj4onKBwl2CwV4gKMyj8FOCwTD3EgwGkCQYfCBJMLjwiroIU355FxbtMGiHwZJAFD/JhsXLde0w1IfrOpLUzdaIXC+pCRIMhqorwWAASYLBB5IEgwuvkiKnHQYX1NphGAOuWeenBIOdFFG5QDWv2mGwc4HCnMy/En5KMBjmXoLBAJIEgw8kCQYXXiVFToLBBbUEwxhwzTo/yYYlYhNFxheVCxTuEgz2AkFhHoWfezY3N0/Ywx88cmtrK+3du5cwlShblJ21tbV04MCBtLS0lA4dOlQcI+VXdoSyRdkhfcq21tfX08LCwkxiTmJFzh+FedT4SKwoW17MNzY20srKSiMvlpeX0+Li4k6OUD7thvnz4j6oEEXEnJw/0haFOekTaSsqFyjch8W3urqajh49mubn59PBgwdHrtsRsSJ9ojCPwk/tMIykdEraYTCA1DGEvMNCKXTSp4i2SJ8ozKPcFellL4kVZcuLuZ5hqM+5bl/1jPkWNjKXvVwfhh+Vf2R8EX3K8VG4a4fBntEU5lH4KcFgmHsJBgNIEgw+kFqjqcWFskMuLFGKnATDWNRs/CWKV5Qd0ieS61Hji+hXxCaK5FVEzKfFdT303F1rI3K9hJ8SDIa1VILBAJIEgw8kCQYXXiVFToLBBXXXYAp3yg7Z2E2rifKiHxUryq+ITRTJKwon0qdpcV2CQYLBVO8iJgnlkwSDiQI7gyjcp1XkfNFxd13JBSEi5lHjI7GibHmbKB1J0pEkS92i+Enmspfrw+KMGF9En6a1lkowSDBY6hK2dU0WJipxJRhMFJBg8MHUGE1xlLJDLixR4yOxomx5mygJBgkGS7mh+EnmspfrEgz14boEgwSDpS5hjQ9ZmKhiKcFgooAEgw8mCQYHXlQuk/WFtOVtoiQY6tNEOWiO1gSSn6QtL9clGOrDdQkGCQZTvYu4oFM+STCYKCDB4IMJbQ4ormuHwTeJFO7eJkqCoT5NlI9R3K4j2eSTtrxcl2CoD9clGCQYTPWOWjjJwkT5JMFgooAEgw8mCQYHXlQuk/WFtOVtoiQY6tNEOWiO1gSSn6QtL9clGOrDdQkGCQZTvYu4oFM+STCYKCDB4IMJbQ4ormuHwTeJFO7eJkqCoT5NlI9R2mHw4EXlHymIIvpE1vVh8UkwSDCY8jdiklA+STCYKCDB4INJgsGBF5XLZGNA2pJgsJOB5IIX90Fekj7Nui0KczL/SFtR54/CXYLBXqsozKPwU99hMMy9BIMBpI4hZMGkEo70KaIt0icK8yhFrpe9JFaULS/m2mHQDoOlKlP8JHPZy/VhcUaML6JP2mGwZEtzDDl/EbleEp8Eg4FHEgwGkCQYfCC1Rpckb+cPUnbIhYUsvmR8EW15FxYJBgkGS8GZBa5LMNSH6zqS1M1Wb12fBtdLaoIEg6HqSjAYQJJg8IEkweDCq6TIaYfBBXXXYAp3yg4pQklxHDW+iH5FbKJIXkXEfFpcl2CQYDCtNhGThPJJgsFEgZ1BFO7TKnK+6NgtSworyg6J+W5YhCncvU2Udhjqc9d1FuoLmcterk/jrisZH1UTSJ/Iuq5nGOwZHZHrJfzUDoNh7iUYDCBph8EHknYYXHiVFDntMLig1g7DGHDNOj/J5jViE0XGF5ULFO4SDPYCQWEehZ8SDIa5l2AwgCTB4ANJgsGFV9RFmPLLu7Boh0E7DJYEovhJNixermuHoT5c15GkbrZG5HpJTZBgMFRdCQYDSBIMPpAkGFx4lRQ57TC4oNYOwxhwzTo/JRjspIjKBap51Q6DnQsU5mT+lfBzz+bm5gl7+INHbm1tpb179xKmEmWLsrO2tpYOHDiQlpaW0qFDh4pjpPzKjlC2KDukT9nW+vp6WlhYmEnMSazI+aMwjxofiRVly4v5xsZGWllZaeTF8vJyWlxc3MkRyqfdMH9e3AcVooiYk/NH2qIwJ30ibUXlAoX7sPhWV1fT0aNH0/z8fDp48ODIdTsiVqRPFOZR+KkdhpGUTkk7DAaQOoaUKNjeX6IUOulTRFukTxTmUe6K9HKKxIqy5cVcR5Lqc0zDVz1jvlSBzGUv14fhR+UfGV9En3J8FO7aYbBnNIV5FH5KMBjmXoLBAJIEgw+k1mhqcaHskAtLlCInwTAWNRt/ieIVZYf0ieR61Pgi+hWxiSJ5FRHzaXFdzzB019qIXC/hpwSDYS2VYDCAJMHgA0mCwYVXSZGTYHBB3TWYwp2yQzZ202qivOhHxYryK2ITRfKKwon0aVpcl2CQYDDVu4hJQvkkwWCiwM4gCvdpFTlfdNxdV3JBiIh51PhIrChb3iZKR5J0JMlStyh+krns5fqwOCPGF9Gnaa2lEgwSDJa6hG1dk4WJSlwJBhMFJBh8MDVGUxyl7JALS9T4SKwoW94mSoJBgsFSbih+krns5boEQ324LsEgwWCpS1jjQxYmqlhKMJgoIMHgg0mCwYEXlctkfSFteZsoCYb6NFEOmqM1geQnacvLdQmG+nBdgkGCwVTvIi7olE8SDCYKSDD4YEKbA4rr2mHwTSKFu7eJkmCoTxPlYxS360g2+aQtL9clGOrDdQkGCQZTvaMWTrIwUT5JMJgoIMHgg0mCwYEXlctkfSFteZsoCYb6NFEOmqM1geQnacvLdQmG+nBdgkGCwVTvIi7olE8SDCYKSDD4YEKbA4rr2mHwTSKFu7eJkmCoTxPlY5R2GDx4UflHCqKIPpF1fVh8EgwSDKb8jZgklE8SDCYKSDD4YJJgcOBF5TLZGJC2JBjsZCC54MV9kJekT7Nui8KczD/SVtT5o3CXYLDXKgrzKPzUdxgMcy/BYACpYwhZMKmEI32KaIv0icI8SpHrZS+JFWXLi7l2GLTDYKnKFD/JXPZyfVicEeOL6JN2GCzZ0hxDzl9ErpfEJ8Fg4JEEgwEkCQYfSK3RJcnb+YOUHXJhIYsvGV9EW96FRYJBgsFScGaB6xIM9eG6jiR1s9Vb16fB9ZKaIMFgqLoSDAaQJBh8IEkwuPAqKXLaYXBB3TWYwp2yQ4pQUhxHjS+iXxGbKJJXETGfFtclGGZbMPz/bc9zTEoyQX4AAAAASUVORK5CYII=;" parent="1" vertex="1">
          <mxGeometry x="440" y="580" width="780" height="334" as="geometry" />
        </mxCell>
        <mxCell id="NvDlcgz7w1ASb2CDfUmZ-1" value="" style="ellipse;whiteSpace=wrap;html=1;aspect=fixed;" parent="1" vertex="1">
          <mxGeometry x="720" y="220" width="20" height="20" as="geometry" />
        </mxCell>
        <mxCell id="NvDlcgz7w1ASb2CDfUmZ-2" value="" style="ellipse;whiteSpace=wrap;html=1;aspect=fixed;" parent="1" vertex="1">
          <mxGeometry x="760" y="330" width="20" height="20" as="geometry" />
        </mxCell>
        <mxCell id="NvDlcgz7w1ASb2CDfUmZ-5" value="" style="ellipse;whiteSpace=wrap;html=1;aspect=fixed;" parent="1" vertex="1">
          <mxGeometry x="720" y="440" width="20" height="20" as="geometry" />
        </mxCell>
        <mxCell id="NvDlcgz7w1ASb2CDfUmZ-6" value="" style="ellipse;whiteSpace=wrap;html=1;aspect=fixed;" parent="1" vertex="1">
          <mxGeometry x="500" y="220" width="20" height="20" as="geometry" />
        </mxCell>
        <mxCell id="NvDlcgz7w1ASb2CDfUmZ-8" value="" style="shape=image;verticalLabelPosition=bottom;labelBackgroundColor=default;verticalAlign=top;aspect=fixed;imageAspect=0;image=data:image/png,iVBORw0KGgoAAAANSUhEUgAAA0MAAAFCCAYAAAAzAwZjAAAgAElEQVR4Xuy9DZhV5Xku/Aw/M+AwgoqITsaZIVA04k9s4t+JTVJMbMSQo1+/RppTuPjOJCcnJmDBK5jh1CQ2IEnhqp40OWlDyyknkaTHakUgGKXG+tPRpAkGjVorDBo1QTEoDA7D3zfP2lmbtfbsvZ/1dzPr3fteXvsC2Ws/+9338zz389zrfde7Go4OHpLiOHDggPT398v48eNTWAl/FGHT/4Y333xTxowZI01NTanHu2PHDlm4cKHce++9Mn36dLnxxhulq6srtV01kOU4gwNCYIuwifCXb/Ohhx6Sjo4OaW9vz8RX9NcxGBFxS39lz7F5zK/Vq1fL+vXri8F02223yZQpU4r/j+AZV2zm0V8WebqCLWKc9FcBAdewdaV+RcH2j//4j2Xfvn2eHzo7O+X222+3Urau/dVAMWTGR8UTKIbcJDw21/XRXFfLbETRi1KgkrCNaw1F0vyiGLKjAxG3Sf1ljRYRt67YpBhyszeopfyiGLIYKvx+w549e1LNDB08eFAGBgakubk53jdXORth0/+6vr4+aWxslNGjR6ce786dO2XJkiWyefNmmTp1qixYsEDmzp2b2q4ayHKcwQEhsEXYRPjLt7l161aZPHmy98rqoL8KSCJwoL+y59g85tfatWtl06ZNxZRcsWKFN4PrHwieccVmHv1lcacr2CLGSX8VEHANW1fqVxRsdZWSPzOkPKp8ah317K+GwSVuqcSQCiG9WtPS0mLhHPl9hE3/y/fu3estkVNBlPbo7e2VxYsXy8aNG2XatGmyaNEimT9/flqz3uezHGdwQAhsETYR/vJt9vT0SFtbm7S2tmbiK/rrGIyIuKW/sufYPObXmjVrZMOGDcVgWrlypbe8wz8QPOOKzTz6yyJPV7BFjJP+KiDgGrau1K8o2M6bNy8khlatWmWlbF37i8vkzPCofAKXyRWwQSxd8FF3ZdoaMU4UtvQX78nLY35xmZxdjBA8w2VyXDbMWlPIvVrKLy6Ts/k0eAbFUDy8QmdTDFEMIZtKFqgCuohmDVH06K90/qIYsosRIm4R+eVSLvDiEK6Ou4ZtLeUXxZDNpxRD3E2uLnf/8wMfUfwRJOpSQ4EUhfRXfVy5phiyizeCZxD55RJ3udaw17u/kLWmlvKLYsjmU4ohiiGKIW6tnWkMIAsUovgjip5LDWAe/UUxZBdvRNwi8sulXKAY4sxQHvnQYgMrbimGLATD73OZXDy8QmdzmRyORF0jJ0ST4lJDQX/hcsEqeikoLFdr5CmGbE8ieIZiqD5mXq3oQvAMwiay1tRSflEMWRFPMcSHrtbpQ3K5TA7XsCMLFKJZQxQ9itdCFCT1F8WQXbwRcZvUX9ZoEY2wKzZd40NyV8FjtZRfFEMWQ1EMUQxRDHnPL2lvb4+XLVXORpAoC1S65rqac+mv/BV/iiGbjhBxSzHEmSHWmvzxocUG1oUBiiELQYohiiGKIYqhjGPAtSuhiKaSDUU68UoxZBdvRNxSDFEMkbsohlAxgOwNsuRD3jNk15+KZ/CeoQI01hWKFBA7M22dZVIG8UJgi7CJJDxEs0Z/5a/4UwzZTImIW0R+oeoCgrsQNl3jQ5f8hcS2lvKLM0M2nwbPoBiKh1fobIohiiEkMbNApZtpqJbaiKJHf6XzF8WQXYwQcUsxxJkhclf+Lg5ZbGCJeIohC8Hw+xRD8fCiGCqDl5WUKSDmzNCB7As1/YW5UZYNBcUQKgaQF10ohrLnWPrLzQultXSxgWIoXudJMRQPL4ohiqGyEYMgUVRjRTFEMZTHZo0zQ3YxQvAMxRDFEGsNZ4ZQMYCsNVnyIcWQXX8qnsFlcm5e/UEU/yyTMhhwCOGCsIkkPPqrPpo1iiG7GCF4BpFfqMYKwV0Im67xoUv+QmJbS/nFmSGbT4NnUAzFw4szQ5wZ4sxQlZxxpZggxsmGohAYSZtriiG7GCHiNqm/rNEiRIYrNpENe737C4ltLeUXxZDFUOH3KYbi4UUxRDFEMUQxVBEBNmsUQ4gYQDaA9d5c01+F6ELggLCJzAWKIbdWIWTpL4ohiqEUCOBIFEl4iOKfZVIGHYIoJgib9BcuF+rFX5wZsqkYwTMIPnSpua6X/LKiC4EDwiay1tRSfnFmyIp4zgzxoasZP3DTNcJDFH8EibrUUCALFP3l1tW6pP6iGLKLN4JnkvrLGi2iLrhi0zU+ZK0peKyW8otiyGIoiiGKIYoh6ejokPb29njZUuVsBImyQBUARzRr9Ff+ij/FkE1HiLhF5JdL3IUQWBRDuJlyJLa1lF8UQzafBs/gMrl4eIXO5m5ybhIeovgjSNSlhgJZoOgvzgy5lAtsrnF1AYEtwqZrfOhSfiGxRdRxRP2K4i+KoXjNfcOePXuOxvtI+OyDBw/KwMCANDc3pzET+izCpv8FfX190tjYKKNHj0493p07d8qSJUtk8+bNMnXqVFmwYIHMnTs3tV01kOU4gwNCYIuwifCXb3Pr1q0yefJk75XVQX8VkETgQH9lz7F5zK+1a9fKpk2biim5YsUKbwbXPxA844rNPPrL4k5XsEWMk/4qIOAatq7UryjYdnV1yb59+zw/KI8qn1pHPfurob+/P5UYUiGkV1ZaWlosnCO/j7Dpf/nevXulqanJE0Rpj97eXlm8eLFs3LhRpk2bJosWLZL58+enNet9PstxBgeEwBZhE+Ev32ZPT4+0tbVJa2trJr6iv47BiIhb+it7js1jfq1Zs0Y2bNhQDKaVK1dKZ2dn8f8RPOOKzTz6yyJPV7BFjJP+KiDgGrau1K8o2M6bNy8khlatWmWlbF37i8vkzPCofAKXyRWw4TIDzI2XKGzpL/rLZ7U8LQvhPUN2McqTv6zRInjGFZt5zK9a8RcS21rKLy6TsyI+/D7FUDy8QmdTDFEMIYmZYqiALmLNNaLo0V/p/EUxZBcjRNwi8sulXEAILGRdqHd/IbGtpfyiGLL5NHgGxVA8vCiGyuDFYsKZBmSBQhR/RNFzqQHMo78ohuxihIhbRH65lAusX7iLmq5hW0v5RTFk8ynF0Jgx3n1DaQ/ODOFINI/NWrV4QZCoSw0F/YXLBdcaiqTNNcWQXZEQPJPUX9ZoEXHrik3X+JC1puCxWsoviiGLocLvc2YoHl6cGeLMUNmIQZAoC1QBakSzRn/lr/hTDNnFCBG3iPxyibsQAotiCHdxCIltLeUXxZDNp8EzKIbi4UUxRDFEMVQlZ1wpJohxutQAIhuKpM01xZBdjBBxm9Rf1mgRIsMVm3nMr1rxFxLbWsoviiEr4jkzJGO4TE7Gjx8fL1KqnI0oUEjCQxR/BImyuebMECoG8phfFEM2JSN4BsGHqLhF1BqEzTzmlxVdCBwQNpHY1lJ+UQxZEU8xRDHU308xNPgQsvb29njZcpxnRFxqKJAFCtGsIYoe/ZVOvFIM2XSEiFtEfrmUC6417PXuL2StqaX8ohiy+TR4BpfJxcMrdDY3UCjAwWKCufEShS39RX8hG4qkzRrFkF2MaqlZs3/t0DMQ3IWwmcf8svBG4ICwicS2lvKLYsiKeM4McWaIM0PSwZmhTGcHkQUqaXNdjQoRRY/ilTNDqBhwLb9QOCCaa4RN+svNC6WIuoCoX1Hyi2KIYqgqAlkGO2eG3CQ8BDllGVfBAEYUaoRN14o//VXwGAKHpPnFmSG7eOfJX9ZoETzjik3X+DBKc235u9z7CH8hsa2l/KIYihexXCYXD6/Q2RRDFENIYmaBSjfTwJkhm9zyVPwphtzylzVaRCPsik1kXUh6saFW/IXENk98mNZfFEMWguH3KYbi4UUxVAYvRIFCEh6imCBIlGKIYggVA3nML4ohuxgheAbBh6i4RdQahM085pcVXQgcEDaR2NZSflEMWRFPMcR7hnjPEO8ZyjgGkAUK0awhip5LDWAe/UUxZBdvRNwi8sulXHCtYa93fyG5q5byi2LI5tPgGZwZiocXZ4Y4M1Q2YhAk6lJDgSxQiOJPfxU8hsAhqb8ohuxilCd/WaNFiAxXbLrGh6w1+ePDtPlFMWQhyJkhGTt2rDQ2NhaRuO6662TPnj2yefPmWOjxnqECXIgC5VoxQTQpKGzpL4wIoL8KWUsxdED663zm1aVcIB/i6rhr2CLqeFI+tJpRC1uKIQvBOhdDfX190tzcXETh+uuvl29+85ty5ZVXUgzFi53i2VZSJjTrfcwVckKM06WGguKVDYUfA0mLP2eGbKZE8ExSf1mjRdQFV2y6xoesNQWP1VJ+UQxZDFXnYujw4cMycuRIeeSRR2TRokXy4x//2EOEYihe4ATPRhQo14oJgkRZoApRgGjW6K/8FX+KIZuDEXGLyC+XuIv1ixdyXOs3ouQXxZDNp8Ez6u6eIf/HjxgxQo4ePSp33HGHaNBQDMULHIqhMF6IJiUK4SXxGos/5gog/ZVOvFIM2dmM4BmKIS5rJHfl7+KQxQZWHacYshAMv1+3YugjH/mI3HrrrXLBBRdIQ0MDxVC8uAmdbSVlCtPOTFsjmpRqBWrX3l3Sd6BPtr+2XfoG+ry/e6/Bv+96a5fsO7CvCLv+e/DQ2VF9ndRykoxrGifNTYVlo/rnpJZJ3t87J3Z67006cVLx36L4EYEDollDjJMNBcUQKgb83EPELSK/UDggag3CJv1VQMA1bGspvyiGonQsx85p6O3tPRrvI+GzDx06JPoaM2ZMGjOhzyJs+l8wYcIEGT9+fOj7gmJIZ4tefPHFSL/lpZdeki9/+cvywAMPyJQpU+RTn/qU6GYMWRx6A+6oUaO8V5YHAluETf83I3AYjHnRONBXVgdinPsH9kvv7l7pfaNX3hp4S17a85LsP7hfXt/3urx96O3EQz9y5Ig3K6rLRaMep5xwipx50pmif57SPPj3CWfK9EnTh3wcgYMr/lIwELmAsJnH/Pre977ncal/3HzzzXLmmWcW/x+Bgys28+gviztcwRYxTvqrgIBr2LpSv6Jgu2DBAtm/f7/nh7a2NvniF79opWxd+6vhRz/6USoxZKKbwxNOO+00mTZtWrEZDIohvWKu9xNFOV599VX5+te/Lo899pgXbCqEZs2aFeWjPIcIhBDoP9Qv2/dsl1f3vSo79uzwxI7+Pe/HmJFjZMpJU+T0cafLlAlTpHNCZ96HzPHlFIGNGzfKo48+Whzd5z73OTn99NNzOloOiwgQASKQXwRuueUWb1dLPZRHlU95VEag7pbJlZsG5TK5dCni2lQ4YllI3Ol1Xbq27eVtsuP1HdKzvcdb2qZL3EoPncVRgT569OhYTmpuPLZjor8MzjfgL5Pbc2BPLJtRTj548KCc33a+nH7S6TLjjBlyyZRLisvwony+3Dl58FfUsSNyAWHT/z1x4zYKDkn9xXuGbHTz5C9rtIi4dcVmHvOrVvyFxLaW8ovL5KyID79PMTSIB8VQvKApPRtRoJCEl7RZq4aSRaIqflT4qABS8aN/j3KUiiEVOXofz2knnubdy+Pf0+Pf+6PCR88pFUDB7yrnL70HSQ+9B0kPf3z67yrU/HuTrDGrGNLld7pBiX+c23qudw+SCqMZrTMsE0PeHw5/xR7kbz+AyAWEzTzmF8WQHXUWz9gWhp6ByC/9FkTcumIzj/llxQaxxWysM1z5RTFkRTzFkHd/U1NTUxEJiqF4QUMxNBSvck2KP/vz+I7HpeeFnrIzP5WQV0Ez5dQp0jahTSaMmSAXT7vYEz/VRE5UL6Ypeirk9HepSHrq5aeGiKRyYqh0XCqKLu68WGaePTPSkBHFBNFUutQA5rFZoxiy0wERt4j8cikX0vCh5TH6y62d+mrJXxRDVnZSDFEMZfx0dBaTY1eUBrcT8WZ+1j+5vuLSt9IU9YWPP3uigkf/7kpDocJo2y8LS/6efflZeXbXs6GZoWqUFEUYIZo1RNFzxV9BfyBwSOoviiG7eOfJX9ZoEXXBFZt5vNhQK/5CYltL+UUxZEU8xRDFEMWQdHR0SHt7e7xsqXC2NwPUu01++NwP5ZlfPWPOAPniR5eM+UvIKs34uFr8f/byz4r3Q0VdElhJGCVtrqs5F1H0KIYKiCf1F8WQTUeIuE3qL2u0rnAXYpzIhr3e/YXEtpbyi2LIYiiKIYohiqFMxJAuE9NZoC3PbJE9fXuG3CsTTDUVQOe+41xveVicTQUQhRph0ypQitFTrwziFXG54OzzZ8vsC2Z7SwMRxR9R9CiGKIZQMWDlV7yyHz4bkV8oHBDchbBJfxUQcA1bRF0YrvyiGIrHitxAIR5eobN37NghCxculHvvvVemT58uN954o3R1daWweOyjiKREkZNrhJeGnHQWyF8GF5zxKHevjDbyKnz03pik9/sgsEXYjFP8FT8VkiqQyu2gF0wgnTmbODBRrr3k2sxm8tQ+86uAMgKHpPnFmSG7dOTJX9ZoETzjis04fGjhWPp+0vyyvofY5osP0/qLYshCMPw+xVA8vCiGyuCFING8FZPgLFC5Bt4XQy1jWjzxoy//vp8UIQa5spYnf0URRrt375YTTjhBPn7Jx4uzRWkwRYkAXmwoeCVps0YxZEc1xVD2N+TniQ/tCEieX5ZtBA4Im8jeoJbyi2LIiniKoSHL5OJBduxszgwVsHCN8OI0ayqCvv3wt6tuha1L4FpPbJWPvftjcmHHhZns+OZHGQJbhM0sCpQKI915T2eMgocvhsaOHev9s8626TK6JNt0ZzHOanyBwBZhE4lDnPwKYkkxZFeiWmrW7F879AxELiBs5jG/LLwROCBsIrGtpfyiGLIinmKIYoj3DFW9Z8h/JpAlgnQJ18VTBreIPmumHOo/lFlcBVMUUUwQNrMuULob3/qtgzvyDe5UVyqG/O/SmTcVRVG36A7iiih6qAsDLvgriC3FUPazF1nnVxb+sloNRNy6YpP+KiCA8BcSW0RdSMqHafOLYshCkGIos6aVM0NuEl4lclIRtOXZLd7MRKUd0Pyd4Lou7wotg0OQKKqYuFSgdGburzf8tTz71rPizwyVUpzejzXnojmxRBH9VUARgUPS4s+ZIbt458lf1mgRPOOKTWTDnjS/asVfSGxrKb8ohqyIpxiiGOLMUGhmSEWQzkSoCNKZiHKHiiDd3czfDKH0HASJUgwVUNbiP+mMSfL8/udl9cOrKzJcHFFEf1EMMb+O5VeWjxrwE9QV4YIYJ7JhpxjCcReiLgyXvyiGKIaqIpBlsHNmyO2ZoYmTJ3ozQf5yrHKBo0uxvA0RBpfCVXoWEOoKO5u18s1acAldOZ9FEUVZ8kBwDIjGCmEzj80aZ4bs4o2I2+Fq1uxfO/QMRC4gbOYxvyy8ETggbCKxraX8ohiyIj78PneTi4dX6GyKITfF0H1b7pO3x74tD774YMXlcMH7gaqJICQxUwxVv3KtGy7oTFG12TxdzljuniJE0aO/0s00UAzZxQgRtxRDvMeL3IWbbRqu/KIYsvk0eAbFUDy8KIbK4OXS1R+9B+VL3/uSvHnkzbL3oKgIKr0fKEqIIJoUFqhozbUlispttEB/5a/4UwzZTIOI2+Fq1uxfy5mhchjVu7+QFyBrKb8ohuIxDMVQPLwohhwVQ8EtssvtTqYiSG/CT7pdM4JEKYaiiSE/JKOIoqWzlnoPwKW/KIaYX/HyK26pRFwkc8UmsmGnGMJxF6IuDJe/KIbiMRbFUDy8KIYcE0O6OcK6J9Z5myP4D0sNiiEVQR89/6Pes2vSHAgSZbOWrFlT4XvbA7dVXD6ny+ZmnTVL2ia2SVNTUxq3D/ksm7XkD4XkzJAdigieGa5mzf61nBnizFDlKEHkAsLmcOUXxVA8hqEYiocXxZAjYqicCPKHrmJo+hnT5RPv+0Ss7ZirhQqCRCmGkokh308qgFUIl7un6ODBg/KxCz4mn/7gp1MwAJu1LJs1iiE7FBE8M1zNmv1rmV9Z5peFNy/k5OtRA2n9RTFkIRh+n2IoHl4UQw6IoWozA7pF9rnN58o1F10jZ087O4X3wx9FNCkUQ+nEkO8h3X2udEtuFUMjR46Ud056Z+IHt5YLHjYUnBlCxIAfawieoRjiBgqsNYUMq6X8ohiK19419Pf3H433kfDZAwMD3lOGW1pa0pgJfRZh0/+CvXv3ektjGhsbU4+3t7dXFi9eLBs3bpRp06bJokWLZP78+antqoEsxxkcEAJbhM0k/urd3Svf/8n35YneJ4b4QEXQrHNnydXnXi3bfrZN2trapLW1NRNf0V/HYETEbU9PTyb+2rBtg6x5bI032EOHDsmIESO8lx4zzpghn/3gZ+XUcaemiglELiBsJsmvqMAk9deaNWtkw4YNxa9ZuXKldHZ2Fv8fgYMrNvPoLyseXMEWMU76q4CAa9jmuX6V5puF7bx582Tfvn3ex/Q5YqtWrbJStq791bBnz55UYkivsKpTmpubTaCjnoCw6X93X1+fJ4RGjx4ddTgVz9u5c6csWbJENm/eLFOnTpUFCxbI3LlzU9tVA1mOMzggBLYIm3H8tX9gv9z5szvloecfKt4XFPzN55x+jsy9eK60n9zu/fPWrVtl8uTJ3iurg/4qIInAIUt/vbbvNfnHrf/o3UOmQqihoSEUAledc5UXK0kPRC4gbMbJr7hYJPXX2rVrZdOmTcWvW7FihVfE/QOBgys28+gvKy5cwRYxTvqrgIBr2Oa9fsXp5bq6ukJiSPnUOurZX1wmZ0VHlff5nKECOMO5LCS4S1ypq3RL5U9e/skhO8QhloUgptdR2A6nv5KkG8JfP9/xc/nLB/9Sdu/fPWRIleImytgR2CJs+r8FEbdJ/cV7huwIy5O/rNEi4tYVm3nMr1rxFxLbWsovLpOzIj78PsVQPLxCZ1MMDZ8Y8jdI0PtBSg9dEjfn4jky86yZUu6BqUmbtWqhgiBRiqEC4kh/3ffsfUPuJ/L9PPv82d4zp+IcbNaS+4tiyI40BM8g8ssl7kLkLLJhr3d/IbGtpfyiGLL5NHgGxVA8vCiGyuB1vItJtQ0SdKvshVcs9J4lU+lAFBMEibrUUCALFNpfKqxXP7LaWzpXTlirINLtuKMciFxA2MyjvyiG7AhD8Awiv1zirnrJLyu6EDggbCK5q5byi2LIivjw+xRD8fCiGBpGMVStadWlTfrQ1CjPC0IUfwSJutRQIAvU8fLXjtd3yLKNy8puxa1iqOt9XWVnGoMpgSj+CJt59BfFkF2MEDyDyC+XuKte8suKLgQOCJtI7qql/KIYsiKeYkjGjBmTycMWuUyuEEzHg/Cef/15r1H1H5zqh7G1JK5cOiCKP4JEUdgeD39l+TDT4+0v3Ya70vJLa5YIgS3CJrKhSOoviiG7eCN4Jqm/rNEi4tYVm3nMr1rxFxLbWsoviiEr4imGKIb6+2X8+PHxIqXK2YgC5X/dq6+9Knf89A5vp7jSQ2eDbrjiBtE/4xyI4o8gUYqhgleHw1/WLNHCmQvLhhwiFxA2kQ1FUn9RDNkshuCZpP6yRouIW1ds5jG/asVfSGxrKb8ohqyIpxiiGHJEDOm9QV/b9DV54+03is+D0fBNMhsUDHtE8UeQKMXQ8IkhP17KPbDVj0G9N610WSabteTilWLILt4InkHwoUvchchZZMNe7/5CYltL+UUxZPNp8AzeMxQPr9DZXCZXgCPrYhLcKU73vR85cmRRDOkGCbpUKe5sEMXQMQSy9lcQW1eKSZxx6izRbQ/cJvpn6VG64xwCW4RNZEORtFmjGLKLUZy4ta3hLjYg6oJLNvOYX1Y8IHgGYROJbS3lF8WQFfHh9ymG4uFFMVQGrywJr/S5Qb4YahnTUnW77DhuTNqsVfsOBImy+OOatST+WvfEOtFX6RFcrpllLvjfg7CJbCiS5hfFkM1iSeLWsprUX5ZdRNy6YjOP+VUr/kJiW0v5RTFkRTzFEJfJ5XCZnD8bpNsbBzdJUDH0zknvlE9/4NNDHp4aL9SPnY0o/ggSpRjKlxjS0VS7l0hnLK8860rpz2F+VcoVRNwmzS+KIZvR8uQva7SuCBfEOJENe9L8qhV/IbGtpfyiGLIinmKIYihnzZoKodu33C4923uGRO9/6vxP8snLPyknn3hyvMiucjaimCBIlGIof2LID6tKO869a/K7ZOH7F8rpp56eWbzWS7NGMWSHDIJnEHzoEnfVS35Z0YXAAWGTYqiAgIUtxZAV8RRDFEM5EkOVHqCqmyToDepnn3J2Zv7yQx9R/BFNShTCi5fu0Ug0iU1kgcqrvzR2S7d7P3LkiIwZOUa+9J+/lNlMplX0asVfFEO2JxE8g8gvl7irXvLLii4EDgibyFpTS/lFMWRFPMVQZs01N1BI3lxXWhanFnWTBBVCk1omiSvkhBinSw0FskAhmrWs/KVxvHzTctn28jYPAhVDhw8fltGjR0vp5grxqPnY2a41FEn9RTFkR0hWcRv8pqT+skaLiFtXbLrGh6w1BY/VUn5RDFkMRTFEMTTMM0OVlsX5W2ZrE+laMUGQKAtUIQoQzVrW/vK34A6KIR27bq6w7JplMq5pXDxmDpyNaADzmF8UQ3aIZB23qPxyibvqJb+s6ELggLCJ5K5ayi+KISviKYYohoZRDJVbWuQ3jXpv0IzWGaEIdYWcEON0qaFAFigXxJD+ft1c4Zb1t8iv3vyVNzPkHyryl85amnjZnGsNRVJ/UQzZxRvBM0n9ZY0WEbeu2HSND1lrCh6rpfyiGLIYimKIYmiYxJDedF66W5yGoz64cuHMhdLc1Dwkel0hJ8Q4WaAK4YBo1pD+0mcSPbrj0SGxPOeiOaKvuAeiAcxjs0YxZEcGIm4R+eUSd9VLflnRhcABYRPJXbWUXxRDVsRTDFEMHWcxFGdZXGn4ukJOiHG61FAgCxSiWUP766Heh0TFf+mh98N1X9VdVvhXom7XGoqk/qIYsos3Im6T+ssaLSJuXbHpGh+y1hQ8Vkv5RTFkMRTFEMXQcRRDlZ7LEnxQZbWQdYWcEONkgRKIDiwAACAASURBVHJzZsh/zlCl2Ndlc8uvXe7dTxTlQDSAeWzWKIbsaEDwDMXQgcyfDZbH/LKiC8EzCJtIbGspvyiGrIinGKIYOk5iSG8qX/f4utBDVDX84lwdd4WcEOOkGHJbDOnoqz1DSx/SGtwshDNDq2X9+vVFGG677TaZMmVK8f8RjZUrNpENIMUQxRBrDWeGUDGA5K4s+66Go4NHPP0UPrueiwm31i7EQmkM+NtmqxgKHuV2i7NiL8tg978LUfwR40SREyJnkYRXC/5a98Q60VfpEWX77XrxF2eGLDasrWU89q8degYiFxA2XeND1hqKIVQMIHMhy76LYigJI//2MxRDQ8VQtfuD9NlBullCnCPLYKcYKi9e4/jDOpf+qnyVWZfNdd/VPWSm1Np+u16aNYohK7sohhC5gLCJbAARF4dQjbBr2LpSv6L4i8vkbD4NntGwZ8+eVDNDBw8elIGBAWluHroTWLyhHDsbYdO33tfXJ42NjaGtb5OOc+fOnbJkyRLZvHmzTJ06VRYsWCBz585Nai70uSzHGTSMwNa3+fqB12XlAyvltX2vhX7LOaefI5++/NNy6rhTY2ODwGHr1q0yefJk75XVgRinjg3pryxzFpFfvs1a8tf+gf1yyw9ukd7dvaHQ01nTP7vqz6Tj5I4hIYmIgTz6a+3atbJp06bi71+xYoV0dBzDA4GDKzbz6C+LO13BFjFO+quAgGvYIuo4on5Fwbarq0v27dvn+UF5VPnUOurZXw2DN/umEkMqhFT9t7S0WDhHfh9h0//yvXv3SlNTkyeI0h69vb2yePFi2bhxo0ybNk0WLVok8+fPT2vW+3yW4wwOCIGt2rz/6fvl+1u/P+Sq99XnXi1/9Lt/FGv3rOB4ETj09PRIW1ubtLa2ZuIrF/2Vdc4i8su3WYv+WvPYGtmwbcOQ+Pv8lZ+XizsuDv07Imfz6K81awYx2XAMk5UrV0pn57FNJhA4uGIzj/6yyNMVbBHjpL8KCLiGrSv9RhRs582bFxJDq1atslK2rv3FZXJmeFQ+gcvkCjeI/5/H/o/cs/WeIQ+anHPxnEg3iFdzgSvT1ohxKi6IZQYIm74PETggloUgxhnXX3pPXbntt0ufR1Qv/uIyObsYIeIWkV9xc8H+5YUzELmAsOkaHxLbgsdqKb+4TC4qqxTOoxiKh1fo7HoXQ/79QY/9x2Ny+PDhohjSJT9J7g8q5wpXyAkxThaoQkQgmrW8+KvSfUS64+Kya5bBGsA8NmsUQ3YxQsQtIr9c4i6KIQrNPPKhxQZW3FIMWQiG36cYiocXxdBvEdi1d5cs27hMtJk7cuRIUQzpzeBLZy2VSS2TUiB77KOuFH/EOF1qKFwrJnnyl15UWHr3Utn++vZQzvi5NL5xfF08B4ViyKZMRNxSDHFrbdaaQu7VUn5RDNl8GjyDYigeXhRDgwiUPkzSF0OXT79cFs5cmPj+oHKucIWcEONkgSpEBKJZy6O/lm9aLj3be0JpoLOsX7r6SzK5ebKMHz8+BVuV/ygCh6T+ohiy3Zsnf1mjta5cW58v974rNl27OMRaQzGEigFkLmTJhxRDSRj5t5+px2VyW57Z4t3n0DfQV0ROxdA1510j//UD/zUFmvlv1qr9uCyTMvg9LP71I4bU75pbpc/n0vy64QM3yBXnXVHT+UUxZLsXwTNJxas1Wle4CzFOZANY7/5CYltL+cWZIYuhwu9TDMXDK3R2vYmhcg+O1CvX8y6ZJ5e2X1rzV64phuxkcaWYIMaZ1ZU1nR3SWSL/8Gde5/6nuaKbK2R5IHBI2qxRDNmezZO/rNEiRIYrNpENe9L8qhV/IbGtpfyiGLIinmJIxowZ422vnfaoFzGk9zSsfmS16KxQ8PA3Snh367vr4p4GiiE7Y1wpJohxZiWG1E5wY4XgPXn60OLuq7ptR0Q8A4FD0maNYsh2Wp78ZY3WFeGCGCeyYU+aX7XiLyS2tZRfFENWxFMMUQz190eexfF3jCu9lyG4UQKLCebGyyyb62Da019u+Etzr/vubnlh1wuh3Rp1p7mvXPMVaRj8L+2Rp+JPMWR7M0/+skaL4BlXbCIbdoqhArqIXEDYHC5/UQxZDEUxRDEUUQyVbpTgh442Y1+46gsyrmmc90+IAuVaMUGQKApb+gtTSFH+uunOm+TJl54MPcdLL0Z0z+qW01pOi8f4JWcj4jZp8acYsl2ZJ39Zo0XwjCs2XatfKO5C+AuJbS3lF8WQxVAUQxRDEcRQJSE0+/zZ3n0LzU3NxUhyjfCSNmvVUgtBoixQBcTprwPyNw/9jdz/7/eHQlCXqS6/drmoMEp6IOI2qb8ohmwv5slf1mgRdcEVm8iGPWl+1Yq/kNjWUn5RDFkRTzFEMWSIoadefsp7hlBwxzgNm67Lu0TFUOmBKFBIwkMUEwSJUgxRDAVjYNNzm0Q3MSk9ll+zXGa0zojH/L89GxG3SfOLYsh2YZ78ZY0WURdcsela/WKtKXislvKLYshiKIohiqEqYki39V33+LqQENIr0CqEZp49s2x0IQqUa8UEQaIsUBRDpTGgFyr0Aa1HB/8LHpUuVFjlABG3FEN8iKdL3MX6VWAJBA4Im8jeIE98aHG3hS3FkIUgxRDFUAUxVGnr7IVXLBTdxarSYSVlvJAMn+0KOSHGyQJFMVQuBoI7zQWzRZevxt16GxG3FEMUQy5xF+sXxRBSYCXlQ6tvsuKWYshCkGKIYqhEDFXaOju4Y1y1sLKSMl5IUgwFEUBgi7DpWjFBiIDj2QDu2rtLuu/qFv0zeOjs7cKZCyOnHAKHpMWfy+Rst+XJX9ZoETzjik3X+PB4cpcVN1HfR+QCwmZSPrRwsHKBYshCkGKIYigghqJsnW2FlJWU1uerve8KOSHGyQLFmaFqMeBvva0zRcFDd3tcds2ySGmHiNukxZ9iyHZZnvxljRZRF1yxSTFUQADhLyS2tZRfFEMWQ1EMUQz9VgxVEkLaTOmDHYM7xlULK9cIL2mzdrxFG6qY0F+YG2WHy196D9G2l7eFwlNndXVjBSuH81T8KYbs4p0nf1mjRfCMKzaRDTuifg0Xd1kxdLxrbi3lF8VQvOhqODp4xPtI+Ox6JqcdO3bIwoUL5d5775Xp06fLjTfeKF1dXWngLH4WkZRBwjsw4kDZZTblts62fhAiBlwrJmh/jR8/3nJD5Pfpr9oSQ+r427fcLlue2TJEEFnPIkLEbdJmjWLITuE8+csaLYJnXLHpWv2iGCp4rJbyi2LIYqjw+xRD8fAKne2qGHrulefkf/7L/xxyv4EKId2VKu6BKFCuFRMEibJAFaIgaXNdLY5r0V+rH14tuhtk8NCdIJddu0ymTJxSFg4EDkn9RTFkM2+e/GWNFlEXXLHpWv1iraEYQsUAMhey5EOKIYvRq7zvohhSIaTLagaODoR+WdKteV1MoKTNWr0110lSI0ty8r+f/oq+O1mlHSErCaI8+YtiyM64PPnLGq0rwgUxTmQDiOBDVB13Ddtayi/ODFkMFX6/Yc+ePamWyR08eFAGBgakubk53jdXORth0/+6vr4+aWxslNGjR6ce786dO2XJkiWyefNmmTp1qixYsEDmzp2b2q4ayHKc/oCe+dUz8rUffk32HdgnI0eO9P5ZrxzPvXiuvH/a+xOP2xV/+T9w69atMnnyZO+V1YHwl44NgS3CJiK/6K8CAnH9pXn+5U1fHhLaN191s7xr8rtC/46I26T5tXbtWtm0aVNxfCtWrJCOjo7i/8fFIUpuu2LTtfxKErf0VxQERJLml2WduYDpu4bLX3rLxr59+zy3K48qn1oHIgaQ3JVl/Wro7+9PJYZUCKn6b2lpsXCO/D7Cpv/le/fulaamJk8QpT16e3tl8eLFsnHjRpk2bZosWrRI5s+fn9as9/ksx6n2NmzbIP/wk3+Qvf175ciRIzJq1ChPCH32g5+VizouSjVmV/zl/8ienh5pa2uT1tbWVL87+OGs/eXbRmCLsInIL/qrgEASfz39ytNy8703D4nvJVcuCeU7Im6T5teaNWtkw4YNxTGvXLlSOjs7i/+fBAcrwV2x6Vp+JY1b+stCQCRpflmWmQvZ912K+XD5a968eSExtGrVKisEEtUa0+hvT0DUmixtcplcVE+WOc+VZXJ6H8G6x9dJ30CfJ4QOHz4sE5oniPUw1ajQuDYVjlhmgJheV/wR2CJs+rGCwIH+ir5MLpizlR7OGlwSmyd/cZmczbh58pc1WgTPuGLTNT5krSl4rJbyi8vkLIYKv08xFA+v0NkuiCEVQnpjtX+oGDp57Mmy8rqVMqllUopff+yjiALlWjFBkCgLVCEKKIaSiSHFzhJEiLhN6i+KIZuO8+Qva7SIuuCKTdfqF2sNxRAqBpC5kCUfUgxZjF7l/byLoXK7S5150plywwdukKmtU1P88vBHEQUKmUBJm7VqgGWZlMHvQWCLsEl/FRBAYJvWpj5PTDdN2f769lAIz7lojlw1/arMnrvmG0+aXxRDNiUjeCapv6zRpo3bcvZdsekaH+aVu453za2l/OLMkMVQ4fcphuLhFTo7r2JIm5/Vj6wu+9yRL171RRl5dKTwuTUd0t7ensL74Y8iSJQFqoAxolmrN39VEkQf+p0Pyafe/ynvPsqsjqT+ohiyPYCI26T+skbrinBBjJNiCHdxCIltLeUXxZDFUBRDmV0JzaMYqiSEzm09V7qv6pZRg/8NbppBMTS4uwrFUHYPckUWKESzhih6eRevyg3LNy2XbS9vK1YB3T3o/LbzZcUf2jsNRS0tSf1FMWQjjIjbpP6yRosQGa7YdI0P885d5WINkQsIm8OVXxRDFkNRDNWsGNJmR59E37O9J+TlS6ZcIgtnLpTmpuZcLuOpFrKukBNinCxQnBlCxIAumfMFkYoh3WZfBdGya5bFqx4Vzk5a/CmGbPgRPJPUX9ZoXREuiHFSDHFmyI+B4coviiGLoSiGalIMVRJCs8+fLXpvgAohRGOFsulaMUE0KShsWfwxuwa55C+9aLLlmS3eM4xUDI0YMUJ09vgr13xFGgb/S3MkLf4UQzbqCJ5J6i9rtAieccWma/XLJe5CYltL+UUxZDEUxVDNiaGoQoiEx5kGVAwgCxSiWUMUPRS2iAZQx6qCaPPPNxfFkP5b58ROue2621IJoqT+ohiyizcibpP6yxotIm5dsekaH7rGXTpeRC4gbA5XflEMWQxFMVRTYqjcfQDqYp0R0ueJlB4sJrwhHxEDrhV/RNFzsaH4+g+/Lvc9e583M+QfKoh0ydy4pnHxqslvz05a/CmGbLgRcZvUX9ZoETzjik3X+NBF7kLkAsLmcOUXxZDFUBRDNSOGdu3dJd13dYv+GTx0WZy+yh0sJhRDiBhwrfgjip6rDcU9T90jd/7szhBdqCBafs3y4vLaOGUlafGnGLJRRsRtUn9Zo0XwjCs2XeNDV7lrzJgxme6EWUv5RTFkMRTFUE2IoUpCKPh0eYqh8smAKP4IEmWBKviP/kr+0FWrHPhxe9eTd8m6J9aFTteHMi+/dnnshzMn9RfFkOUtzNKgpP6yRuuKcEGMk2KogIBr2CLq+HDlF8WQxVAUQ86LIX2q/LKNy0IzQs2Nzd6yuJlnz6waAQhyQth0rZggSBRVTOgvTFPpur/WP7le9EHNwUN5RQWRzhRFPZIWf4ohG2EEzyT1lzVaBM+4YtO1+uU6d1mxGPX9WsoviqGoXi+cx4euxsMrdPZwPGcojRAi4RXchyj+CBKlv+gvVAxUataeevkp0a23jw7+5x9xBVHS/KIYsosRgmeS+ssarSvCBTFOiqECAq5hW0v5RTFkMVT4fYqheHgNqxhSIaT3CPUN9IUalSgzQv4HEOSEsOlaMUGQKKqY0F+cGaqWX2kFUdLmmmLILkYInknqL2u0CJ5xxaZr9Yu1puCxWsoviiGLoSiGnFwmV0kILbxioehDVaMeLCacGULEgGvFH1H0aqmhUEHUfXd3iFaizhAlba4phmwWR8RtUn9Zo0XwjCs2XePDWuIuKy6rvV9L+UUxFC8SODMUD69hmRnKSgiR8AruQxR/BInSX/QXKgaiNGtJBVHS/KIYsosRgmeS+ssarSvCBTHOKPll4Vfp/Xr3FxLbWsoviqF4GUYxFA+v4y6Gnn/9eW+zhNKlcXFnhPyBI4gfYRNJeIhigiBRVCNMf2GWQ9Siv/RCzMLvLRwyQ7R01lKZ0TqjLHsmzS+KIbsYIXgmqb+s0SJ4xhWbrtWvWuQuKz7LvV9L+UUxFC8CKIbi4XVcxdALb7wgf3H/X2QmhEh4nGlAxYBrxR9R9FDYIhrAOP4qJ4j08/pg1nNbzx3CoEmba4ohuxgh4japv6zRIuLWFZtx8svCsfT9evcXEttayi+KoXiZRTEUD6/EYujJl56UTds2yVv9b3k2rnvvdXJ+2/kVv73nuR75ywf/Ut4+9HbxHF2zn3RGyDfCYsJlcogYQBYoRPFHFL1aFUP6u+IIoqT+ohiyixEibpP6yxotgmdcsekaH9Yyd1lxGny/lvKLYiiO5we31t6zZ8+xPVTjfdY7++DBgzIwMCDNzc0JPl3+Iwib/jf19fVJY2OjjB49OvV4d+7cKUuWLJHNmzfL1KlTZcGCBTJ37tyi3ZaWFhkxYoR848FvyGfv+Gzo+9b+f2vlTy79k+LWk8E3n/nVM7Ji8wrpP9wvDQ0N3lsqhP7sqj+TjpM7Uo0bgS3CJsJfvs2tW7fK5MmTvVdWR5ZxFRwTAluETfqrgAACW4TNJP7a+cZOuWXTLaGZarVz81U3y7smv6sYtknza+3atbJp06ainRUrVkhHxzG+Q+Dgis0k/orKbUn9Zdl3BVvEOOkvHB8isUXU8eHKr66uLtm3b58Hl/Ko8ql1uJYLWfqrob+/P5UYUiGkV2u08c/qQNj0x7Z3715pamryBFHao7e3VxYvXiwbN26UadOmyaJFi2T+/PlFs/o9epz3pfNk28vb5OrzrpZP/t4nvX97T/t75IwJZ8ihQ4fk8OHDxc88+NyDsuaxNfLm/jc9IaUvFUJfnv1l6Twl+oMPK/02BLYImwh/+TZ7enqkra1NWltb04ZA8fNZxlVwUAhsETbprwICCGwRNpP6q3d3r9y8/uYhguiWj94i55xxjmc2aX6tWbNGNmzYUAz/lStXSmfnMc5D4OCKzaT+ikJwSf1l2XYFW8Q46S8cHyKxRdTx4cqvefPmhcTQqlWrrJSF1C9X/MVlcmZ4VD4h6kNXGz5ZmN2557P3yOzzZ1c0uOWZLd4T4HWzBFXoI0eOlJYxLbGfAF/tJ3GZAZfJIWLAjzlXlhkgxqkYILBF2Ezjr3K7W6q95dcs9zZVSLrsisvk7GKEiNuk/rJGi4hbV2ymyS8L13r3FxLbWsovLpOzMin8PsVQPLxCZ1tiSJfH/fI3v5QVPyhMT37i4k9I28ltcuk7Lx0iioJCSM9VMTR5/GT56v/7VZnUMinFKMMfZTGhGELEALJAIYo/oujVixjS37lr7y65Yd0Nsm+gsAzDP7qv6pYDLx3wlmW0t7fH4i2KIRsuRNwi8sulXCAfFuIOgQPCJrLW1FJ+UQzZfBo8g2IoHl6xxND7/+L98i///i9DvuGmj9wkt157a/Hf1z+5XtY9vi609GRC0wRvRugdp7wjxQiHfhRBTgibSMJDFH8EibJAFaKA/jogg8uZZfz48ZlygRpLE7eVBNEHT/2gXHvJtRRDOfNXpeBB5JdL3MX6RTHkWr8RJb8ohuKVS4qheHjFEkMP/ftD8ubbb8rH/upj3ud0Gck5redI+8ntxZ3kygkhnQm66YqbpG1im3d/U5YHgvgRNl0jpzRNZTX/IrBF2KS/6rOhUEHUfVe3N1PkH7t375br33+9/PEH/jgWdXFmyIYLwTMUQ/m82EDxWj0fELmAsDlc+UUxZPNp8AyKoXh4xRJD/smV7hn6Se9PZNUPV4VmhDondoo+0LDpSJOMGTOGYujNNzPHAUFOCBKNcvUnSfhSDKWbEaF4DSPQd6BPuu/u9rbf1kPF0AknnCA3XX2TzDx7ZuQQpRiyoULwDIIPXeIu8mF9Xsgpl221lF8UQzafUgxlJDKse4aqiaFqQkhnhhBJ6VKB4kwDC5QfA4hmjflVQDcrHIKCyBdDY8eOlYUzF0YWRBRDdvHOyl/Bb0Lkl0u1hmKItca1fiNKflEM2XxKMTTMYuipl5+SZRuXlZ0R8jdLQBS9KAkUL3xwJOoaOdFf2TbX6GaN/sreX74g+slzP/FmhlQM6RFVEFEM2eyLiFuKIS6TY2+QPR8iL+ZF8RfFkM2nFEPDLIbWPrZW7vzpnUU/+EvjgrvGIYpelASKFz4UQ0jRRn8V0EU0a8wvTPFXQTTvr+bJm0feLIqhqIKIYshmX0TcIvLLJe7izBCujruGbS3lF8WQzacUQ8Mshr798Lfl3ifv9fygQqh7Vrec1nJayHOIpHSpQCFFBqL401+Y5ppiCLPlLTK/7ttyn3x/+/fl9QOvhzjNmiGiGLKLN4JnEHzoUq1xrWGvd38huauW8otiyOZTiqGciKFKQkgdhEhKlwoUkvAQxYT+ohhifh2byZt0xiT51r99q7ipgp/P1QQRxZBdvBE8g+BDl3KBYogzQ671G1Hyi2LI5lOKoRyIIe++oWuWybimcWU9hih6URIoXvjgSNQ1cqK/KIaYX8fEkD50deLkiaFd5ixBRDFksy+CZyiGeM8Qucut+hXFXxRDNp9SDA2zGLrrp3fJledcKc1NzRW9hSh6URIoXvhQDCFFG/0Vbq7b29uThCcvNlRBDcEzwea6dNvtaoKIYsgOb7S/7BFEPwMx4+KKTWRdqHfxisS2lvKLYig6V+mZfM5QPLxCZyfdWnvg0IA0jmqs+s2IpGRzzeYaFQPIAoUo/syv43clVAXR0ruXyvbXt4c4r3TJHMWQXYwQcYvILxTPUAxhNpRxyV/IWlNL+UUxZPNp8AyKoXh4RRZDDz73oHxw+ge98ys9dLXaVyOSkoRHMYSKAWSBQjRrzK/jJ4b0m6IIIoohuxgh4haRXyieoRiiGELWmlrKL4ohm08phsDL5NY/uV7ue/o++cYff8PD+gt3fcH787r3Xifnt50fyUOIpHSpQCEJD1H86a/j21xHSqIqJ9Ffx99fliCiGLKjGhG3CD50qdYgBJZr9cslfyGxraX8ohiy+ZRiCCiGJr13kqx+eLWH8cWdF8uCmQukZUxLPK8Mno1IShJewQ2I4k9/Hf/mOnZSBT5Afw2Pv6rdQ7Tj0R2yfv36opduu+02mTJlSvH/EU2rKzaRDSCCD12qNYgYoL8KCLiGLaIuDFd+UQzF6xC4TC4eXqGzS+8Z+tDHPyQ7T90ZOuc9He+RpVctlZEjRsb6JkRSosjJNcJDkBP9NTzNdaykohgaAhcibq38qiSIpv1mmjz/4+cphqoE9XD4K2mOIeqCKzYphiiG/Biw+BCVXxRD8ZClGIqHV0Ux1Dq1VSa+d6KcedmZxXP0OULLr1ledde4Sl+PKHoUQwW0EeREf1EMMb+i51c5QfTiYy/KCb86QSaOm+gZ4szQ0OqA4BkEH7qUCwiBRTFEMUQxFOYvBHdlaZNiKAsx9MC9Mm7yOHnnJe8siqE0QkiHlKWTgz8RQfwIm64VE/qLYsilBjAP+VUqiFQM/Wrbr2TKqVM8QUQxRDFUigCi1iBs5iG/4rY2CBwQNpHYIur4cF1s4MxQvAygGIqHV+hsXSb38fkflx//4scybtwxMaRCqNoDVaN8JSIp2axFv3IdxUfBc+gviiHmV/z8CgoiXwypFRVE31n9Hd4zVEJECJ4ZrmYtLscyv+LnVxyMEcIFYZNiqICAhe3H/p+Pyc5fF27buOyCy+Sbf/VNMxwsm6aBKicguCtLmw1f+tKXjqb5gYcOHRJ9jRnclCCrA2HTH1t/f7+MGjXKe6U9dr2xS7674bvy5t43pbGxUU6efrK0n9cuM0+cKY0jqj9HyPruLMcZ/C4EtgibCH/5Nnt7e2XChAneK6uD/iogicCB/sqeY/OUXwNHBmTLW1tk5893yr4d+4op+eErPyznTT6v+P8InnHFZp78FZUzXcEWMU76q4CAa9i6Ur8sbH9z6Dfyv//hf8vhg4c9P5xy0ikyf/Z8M3Xr2V8Ng+ikEkMmurV8gu6JcHLgB544+HcV4odq+UfztxEBIkAEMkZAr021D77eCtg9a/DvLwy+Xsn4u2iOCBABIlCrCOjmxe8ZfD0z+CpoocLxWq3+4Gx+F5fJpcBRl8l94r9+Qv5167/KpJMnyc033izXf/r6FBaPfTTL6b/ggBDToAib/pgROCCWhSDGqRggsEXYpL8KCCCwRdjMo7++8a1vyKpvr5L9A/u94c34wxlywiknyMKZC2Xm2TOdwbZe/GUVOgQOrtjMY37Vir+Q2CLqOKLfqFRrdry+Q7rv6pa+gT756f/+qRw6cEhGjRglH3jPB+Q7f/sdKwQgHOuKvyiGzPCofELp1to33nijdHV1pbBIMVQKnivkhBgnm+tCNCCKCf1VwBaBQ1J/6UNX7/6nu+WZV5/xBJEvhnScKojeN+V93jLM8ePHZ8KxzC9cfrmELUJgIRvApPllJQ0CB4RNJLZ54sO4/goKIf2siiE5KNJ5aqdceM6Fcvvtt1smKYZMhKqcgAh2hE1EAlEMFVB1xV9+DCCKCYJEUdjSXxgRQH+la65VDOlDVw8fOewJoimzp3gzQ/7xmd/7jFzafinFUEYPDUfyoUu5QD7E1XHXsEXUcUS/UZpfpUJI339y7ZNy5olnykknnCSdnZ0UQ4bQ4cxQCiVIMYQjUYR4RRZ/BIm61FDQX7hccK2hSFr8fTGkSKogmvThSbJ7xO4iQx85ckQ+ddmnZPZ7Zqdg7fBHEdgibLqWXy5xF/1F7nI5v944+EZxaZz/O5obm2X3rbF2twAAIABJREFUvbtlTENhYzOKIbtkUAzZGFU8g2IIR6KukRPFUMFjCBySNtfVUhsxTpcawDzmV1AM6fiWf225fHvrt0WveuqhYujw4cNy4x/c6N1DlMWBaIQRNvPoLwt/BA6u2KS/3OwNEHUBUb/8WvPcK8/Jrfff6t0jFBRCC69YKLcvvV36+gr/TjFksZUIxZCNEcWQgRGiQLlWTBAkyua6EAWIYkJ/FbBF4JDUX6ViSB+6elrradJ9d7cniHwxNHr06OKmCino2/sogrsQNl3jQ5ewpb9wwsU1bPPEhxa3qRBaevdSGTg6MEQIXTLlEuFDVy0Ew+9TDMXDK3Q2Z4ZwJOpa8UeQqEsNBf2FywXXGoosxdCUKVPEfzDrC7te8GaGVAzp4e8yl4LCKYZAFxtc4q56yS8rTxA4IGwiaw2ijiflw2r+0otDN915k7z19ltFPtSlcTojpEJID4ohK+IphrwHxDY1NcVDqszZFEO4BhBJeEpO73znO+Ud73hH6hhAjtOlhgKJw/bt22XSpEkybtw4+iszBAqGEMVfH5J76qmnSnNzc6zRlpsZUjGkhwqiJXcuERVEvhjKQhAhmjWETWR+IZo1l7jLNX8pH5500kneK8sDgQPCJjIXEHz4i1/8wus1TjxRH0SZ/vA3S9jbv7d4cahUCFEMxce5LmeGtKkaOVKfmJruoBhyUwwpOZ199tnS0KDPHM7mQJCoSw0FskBl46GwFfqrgAcKhyQ+qyaG1N4bb70hS/9pqbz81ssh82lmiBDNGsImMr9UDF166aXS2NiYxG0VP4PAwRWbSH9l6qSAMWKbLz4s5+fgrnH+suEJzRNCM0L+5zgzFC9T6k4M6XMqdGZIjyeffFLuu+8+7+9XXnmlnH/++bHQoxgqwIUgUWQxOXr0qCeEHnnkEfnlL38p1113XSy/lzsZ1VQisEXYRPpr06ZN8tRTT3lfMWPGDLnqqqvor9QIFAwg4jborzi8aokhjVsVRCu2rChuquDDkFQQIXIBYROZX8qBeuV69+7d8rd/+7dy2WWXyfve977UEYbAwRWbKH9973vfkxdffHGIb84888zUdazesUXxoc7k3X///R7XpqlfpdtnqxgaM3KM3PiRG4tL44KBQTEUncLUR3Unhnx4rr/+evnmN78p73nPe7x/+slPfiLd3d2ybNmyyAhSDLkphnTUKoQ/+MEPykUXXSSbN2+O7PNKJyKaSv2uei5Q2pz9wR/8gZeb2lTr/+vfNWfVZ6ecckpiv9Ff2Ysh9c8nPvEJ7wJT0F/Kq1/5ylfMmdgoYkgvZo0aM6q4qUIwALou75LZ58fbdrue86s0eT7zmc/I//pf/0u++tWvyuc///nEueV/0BVsEeNEiaGTTz5ZfvOb3wzxjeZb2jqGwAFhE4UtQgz99V//tXz605/2luXrska/lsX1VbnnCI0dNVY+edkn5YrzriibqxRD0SlML4zXpRjSqysaKN/97ndlzpw5HmJ+0D788MORr4pRDLkphvTK9X/5L//FKypZFBEEibrWUCAKlDZnmqsPPvhgcdZWRewFF1wg//2//3fvYkbSg2IoezH0ta99TZYsWSIbN24szt75vHrHHXcUubaSz6KKofHjxxc3VfC33fZtxhVEiGYNYRORX0E/aJ75tZBiKCmrDP1cljyjFxsmTpyYmVgtHS0ibhE2kbmQpb+0z7j66qs9MeTXKj/PvvWtb8l/+2//LVKglRNCeo/QZ97/GTlv8nkVH0JNMRQJ3uJJdSmGdDZAl0o98cQToauVU6dO9a46a8BGOSiG3BNDOtOgV67Vz0mv0pSLjSxJNGgfUUwQNhEFSpcylhM9/hVszeGkB/2VvRjSq9Yf/vCHh/Cn+nHFihWeUKp2xBFDasffZS6NIELkAsImIr98m7pE5L3vfa986EMfku9///uZNdsIHFyxifCXXr2+/PLLJc4F2zj8WM/YIvylfeYbb7wh//Ef/xFyg/aZOkv04x//2HRPJSGku8a9u/XdojPlenGo3EExZMIbOqEuxdCIESPk1ltvHVKc4zZZFEPuiSFtzD7+8Y/LN77xDe8qG2eG4hGGdXZWIkOvgt55551yzjnneDO1/n1e+v1x85TitbLXsvKXfoNeCdUdk4L3m6BmhvxfpIJIn7Wx/fXtoR8ZdYaIDaB4S4V1177PfvazXrPNmSGL5aK/n2V++TOvL7zwgnchV+8dSnMPSumvYC5kdw+l1i/dUbNcn6kX2zUurJmhp15+SpZtXFb2gaq6fbblL4qh6HmqZ9adGNKrK7/3e79XNkh9snn99dcj3Y9AMeSeGFL/+82aCiOKoXiEYZ2dZfH3v0uXM+o2zbrblRaZadOmpb7XCzFOHa9VoCz8yr2PsIm4Ehocu3LpT3/6U2+mIet7hkqvhKYRRAhsETZR/vof/+N/eDN5PT098uyzz1IMJUnQKp/Jkmf8ZcN6/4neLxm8h/IHP/iBd3EvzYGIW4RNVC6o3az85feZ9957r1xyySXeBgoqXqNudGEJoSi1hmIoXjZQDAXw8sVQ1GloiiH3xFAwPSiGyk+vx6OQ8NlZFZOg1f3798sJJ5zgFf+PfOQj3vKCqDla6bcgxhmlQCXB1rWGQn+jLkf1mzW94PCd73zHbNbiLpMLYplUECGwRdhENID+PQ26tbbOCPnLsDgzlCRLy38mS57RpYw6K7R+/friBT2/6dblqXFvyi8dMSJuETYRuZC1Td8veq+QXgzyBay/RL/aBkCVhNDSWUtlRuuMotssbCmG4uUxxRDFULyIKXO2lZRpviDLYlI6DoohN8SQ+k0ba930QovIunXrUm8ji4orRC4gbGZd/CvluN9gqyDSq9fVnu2VRgzp91e6h2jORXNEX+UOBLYIm1n7S/Ppd37nd7yl4v7OcRRD+eZDncHTZailjxbwd8ZVoeQ/pDhJzUXELcJm1rkQxCqruuCLIV3eHbxwZ+1iW0kILb92uXRO7Ay51cKWYiheFlAMlRFDUW/M5sxQATwrKeOFZPjsrMip3BgohvJd/H2fBWeEouxKFiXeUHGFyAWETWRDcfjw4dBDrf17vPRGYr1CWulIK4aSCCIEtgibWftLn632wx/+UG666aaiO3p7e72ttVW4/v7v/7784R/+YV001y74qzRn9Bkzeu+zHnFXtFTKPwQOCJtZ5wJSDAV3kvO/Z+nSpbJ8+XJvli8oXuMIoSh9F8VQlE7g2Dl1J4b0p3MDhco7kMQLH4ohJDFHIbxa95d/JU1/5z333OMt58nioBgqoJgVDv6GF7o+Xh9effDgQRk9enSoWfuXf/mXqv7LQgwVG47BTRW2vbwtFCrlZogQzRrCZtY8ow3Zv/3bv4Xw8Zc1qmDVHa90uVzcB5EHDSJwcMVm1v7SHf90Qxl/w4S33nrLmyWiGBojTU1NWZSETPlQ69a73/3u4r3pGrf+OMuJ1y3PbJHVD68esllCuRkh/8dauUAxFC8sGga35ku+P+3gdw0MDHgzAy0tLfG+ucrZCJs6C6A3YOsRdWtt/V3VDr2StnjxYu+5GnpT96JFi2T+/PmZ4LB3714vefwxZ2LUIX/5vzdrHIJxUDozZPm7mg+yHqf/XYhcQNjM0l/aROsFi6AQ+ud//mfv+ULBQ2cgDh06lCg16K8CbGlxGDlypIwaNUq0WdMm2t8KPbj7n85C6EYKejVbc06Fkv699FizZo1s2LCh+M8rV66Uzs5jS0Pixu0X7/2iPPXKU6Gv+aPf/SP5+Hs+Xvy3uDajBBvCZlb5Va1xrLRMrpK/LCwQOLhiMyt/+fnlP2NId0LV5XLB/NLnQ+m/+Rs/1bq/ssK2XPym5UOtW/5FIO0Jf/d3f3fIowb8mXLfX/dtu0/+7tG/GyKEbpl9i3Sc0lExzaxcmDdvnuzbt8/7fEdHh6xatcpKWUg/n2d/+WPTutSwZ8+eVGJIE0+dors9ZXUgbOrYxo0b5y3fiPLQVSUbvfpS7di5c6e35lrvY9AraQsWLJC5c+dmAkNfX58nhPzEysTooBEEtgib/u/NGgclK1+4B8VQFH9X80HW4/S/C4EtwmZW/tKYHzt2rGfOv2E4+NDVUh+oIFLsoy5tzWqclWIBgS3CZlY4KJ8qr+rhP8Nr69atxRkF/yGDwR3llFfL+Wvt2rXe9tz+oc8m0iKeJhf+/Ad/Lk+/+nTIXVedc5XMvbjA0whsETaz8pcKV92MpNy9W+XEkH/1OUn9QeDgis2s/BXML7+JDj7U2O9lgls4a0Nf7mKD5cN6w7YcHlnUce0vtM/wZ4CC97j6F/j0ApFurvDALx6Qbz34rZAQOnXcqXLzVTeL/lntsPzV1dUVEkPKp9Zh2bQ+f7x7pCz8pWNWXqzLZXL64/2bDvXhm3roAzi1YC9btiyyv3nPUAEqa7o2MqBlTsxqGU+5MfCeofzeM6RN8axZs6qGTlwBFDSGiitELiBs+lhkiYNevVZB5D/M2F92pbNF+lyvapsn6HiyXCYX9LU+h6h0ydzs82eLPosIgS3CJsJfvk29eqyClhso5JcP1VfB/Ar2LVHzy6rDiLhF2ETmQpZ8WNpn6nbowd3kHv3lo7Lu8XUhITSpZZLo0jj90zosbLlMzkIw/H7diaHgjYdK/o899piHiN40Gnd9NMWQ22JIr9xE3fffSqusSdT/PovwrHGVex9hM+sCFczNSr/R3wUrCQb0VwE1BA4qZJ96qrA8LQ6vosSQjqOcIDq39VzvCmy1p7gniS0X8iv4u3RjC13Z4N+Xctlll4UenJsEA/0MAgdXbGbNh0EfJM0vy4/EFsOHOhukIkgP/56v9U+uTyWEouQXxZAV8eH3604M6RINvQrm78QSD67w2RRDBTwQJIosJs8995xMnz49jeuHfBbRVKKwdc1fmTrqt8borwIQKByS+AwphnQ85QTRuya/S77woS9I6YNck4zf/4xr+aXPGbrwwgszve/XJe5yzV9pYrPaZxE4IGwie4PjwYflhJBum909q1tOazktsnstbCmGIkPpnVh3YijLYKcYclMMafHXKzQ6bZ3VkWVcBcdkEV6S8SNsIgvU4H2NMmbMGO+V1UF/4cSQYqs7XVnL4kp9iRZD+n3LNy2Xnu09xa/WlQJnTTpLVl63MqvQcu7ikPKh3pvV3t6eGQYUQ7j8Uj7U+1L0fqIsD0RdQNhE1hpEXfj1r3/tPXBa/aVCSHeNCx5JhFCU/KIYipcdFEPx8AqdTTHkrhjKuvgjSDQK4SUJX9cKFKJZo79wzVpSfx0PMaS/+vYtt4tuZauHiiHdhOPCjgtl2TXR7xetlnfML1xdQGCLsIls2JPml1UrEDggbCKxRdQF319P7nkyMyEUpTegGLIiPvw+xVA8vCiGyuDlGuEhigmCRKMQXpLwpb9wy8MQ2CJsIhuKpPl1vMRQUBD5Ykh37dR7iLIQRPXiL4t7EDi4YjOP+VUr/kJii6jjyofPDzwv659bH3KBzggp34xrKuzGGfewcoFiKB6iFEPx8KIYohgqGzEIEqUYKkCdtLmultr0VwEdBA5J/XU8xZAviO5/+n5vZsh/hEEWgshqUlKUnFz5y/odCBxcsYls2JPmV634C4ktgg9v/vub5V93/WvxkRE6fhVCy69ZLs1NyR9JY+UCxZAV8eH3KYbi4UUxRDFEMVQlZxDFBFH8EeOkeE0nXo+3GNLR6jM+7tl6T+h5btqo3H7d7Ykrg9WkJDacM/Fq/Q4EDq7YRDbsCD4kd2EuDun9QWv+eY33bC//+XlZCKEo/qIYshiKYsi7Ebvak7ijQsh7hgpIIQqUa8WEzTWmmKhVRPGnv/Lnr+EQQ8pdf/PQ38j9/35/iPbTLGEhH+LqAgJbhE3X6heqjruGbVZ1oe9An6x+ZLV3b6I+H8oXQzrz3H1Vd6oZIT+2LGwphqJ28oXzODMUD6/Q2RRDuKLnWjHJikRLw9EivCThi7BJf+FyoV78NVxiSJ8ztOm5TbLuiXWZCKJ68ZfFPQgcXLHpGh9SDGV3cSgohNSqL4YumnpRZkIoir8ohiyGCr9PMRQPL4qhMnghCpRrxYRiKLtiUhpinBk6kPmDQfOYX8MphvQ5QyqGSgWRPgl+2bXLMn3+R4qSw3uGBmfy6v0huQg+jNJcJ4lb13qDtHVchZDuVhncvl/F0BXvukI+P/vzmcwI+X6wsKUYihexFEPx8KIYohgqGzFpSbRSGFqElyR8ETbz2FxXw4b+yp94HW4xpIiUew5Ic2OzJ4imTJwSKd2YXwWYEDi4YtM1PnTJX0hs09SFckJIx3rW2LNk/u/Nl7OnnR2JP6KeZOUCxVBUJAvnUQzFw4tiiGKIYqhKzqQpJpXMIq6EIsbJhqLgwaT+yoMY0vE/9fJT0n13dygcVRAtv3a5twuUdVhNivX5au8j4japv6zfgcDBFZvIhr3e/YXENml+VRJCs8+fLW0DbXLW1LOO+0ONKYYshgq/TzEUDy+KIYohiiGKoYoIsFlzXwz5gmjp3Uvl6OB//hFVECFiANkA1ntzTX8VoguBA8ImMheSiKFqQqjr8q7EF4es1tTClmLIQpBiiLvJDd4wrGvkszqspEzzPUnIyfo+RPFHjJMFquBJ+iv7+ySQDUVSf+VlZsjHRmeISgWRvqfPB5nROuO4CuI8+sviWURdcMUm/YUTWEhs49bxXXt3Sfdd3aJ/Bg+dEVIhhKpfUXoDiiGLoSiGKIYohqSjoyPTaeu4JBo1TVn8KYYQMYBsKGpFDClGO17fITd874bQDJH+u26Pe8mUS8qmcb34y+IwBA6u2MxjftWKv5DYxqnjyg3LNi4bIoTmXDRH9OUfSfkwrb8ohiwEKYYohiiGKIYyjgFkgUIUkzhFLw6lsllLLl7zNjPk+12bHr362zfQFwqFhTMXysyzZw4JD0QMuJZfUa5cx8kr/1wEtgib9FcBAdewjVoXynGCLqPV2aBSTkDUryjYUgzFYxjeMxQPr9DZfM6Qm4SHIKeoJBo33BDFBGHTteJPfxU8hsAhaX7lVQwpTpUEkTY/uiQmeDC/cHUBgS3Cpmt8GKW5jlu7UDaR2EbhQ10+qzNCwYsjlYSQjjUpH1p4W3FLMWQhGH6fYigeXhRDZfCykjIFxLlq1qr9jigkmgQHBLYIm8gChSgm9BfFUNxmTW+U1l3mVBgFj9JlMcwviiHX+DBuLkStZa7lglUXKgmhhVcsrLhsFlG/oviLYihqlBbOoxiKhxfFEMVQ2YixSDRpmCGKCcKma8Wf/qIYitJQlOZtJUGkS2N02VwSm3G4ARG3w9Wsxfnd/rkI7kLYdI0PUXHrGrbV8kufQbbu8XVDZoSqCSHFdbjyi2IoHsNQDMXDi2KIYohiqErOuNKsIcbJhqIQGEmLf56XyQVDvpIgOrf1XPnKNV+RgQMD0l/n9+S5lAuuNexJ88tqdRA4IGwihWalulDpYcxLZy2turNkGj5M6y+KIQvB8PsNe/bsOfYghXif9c4+ePCgDAwMSHNzc4JPl/8Iwqb/TX19fdLY2CijR49OPd6dO3fKkiVLZPPmzTJ16lRZsGCBzJ07N7VdNZDlOIMDQmCLsInwl29z69atMnnyZO+V1UF/FZBE4EB/Zc+xecyvtWvXyqZNm4opuWLFCm+jE/9A8Ewam3/+gz+Xp199OkQhHad0yC1X3SIHBw5mWhPz6C+LO9NgW8m2KzbprwICCH8hsS1Xv9Y+PshLTx/jJf3+U8edKjdfdbP3p3Ug6lcUbLu6umTfvn3e8JRHlU+toxb8Zf3GSu83DF7BSiWGVAip+m9paUk6hiGfQ9j0v2Tv3r3S1NTkCaK0R29vryxevFg2btwo06ZNk0WLFsn8+fPTmvU+n+U4gwNCYIuwifCXb7Onp0fa2tqktbU1E1/RX8dgRMQt/ZU9x+Yxv9asWSMbNmwoBtPKlSuls7Oz+P8Inklr869+9Ffy4HMPhnikbUKbfOGKL8hpp5yWGb/k0V/Wj0uLbTn7rtikvwoIIPyFxDZYv3QGeM2/rhmS33rB46Y/uCmSENKxIupXFGznzZsXEkOrVq2yUtZpf5k/zjiBy+RSIMjd5ArguTYVjlhmwGVXhVhA4EB/8aGrKJ7JgrtWP7xadBmNfxw5ckROHnuyfPmaL0vnxGNiLkWpKX7UlfzKs79K/ZBFDFTyLf3lFnf5/jokh+T2LbdLz/aekGt1Kaw+Y6y5KfpKKET9ipJfXCYXj3EphuLhFTqbYohiyA8IRNGLQnhJwpfFHyPa6K9CNCYt/q7cM1Qu59Y9sU70pYeKocOHD8uE5gmy/NrlmQoiBM8k9ZfFPQieccUmsi7Uu7+Q2Gp+HW44LN965FtDhJA+ZFk3SYkjhNLwYdr8ohiyEAy/TzEUDy+KoTJ4IQoUkvAQxQTRpLC5TtdcV0tt+quADgKHpPnlshhSLLc8s8W7muyLIf++1OXXLDdvso5ahvLkL2vMiLrgik3X6hdrTcFjP9/xc/nLB/9Sdu/fHQpvfZaYbqEfVwhRDB2DEcFdWdqkGLIYvcr7nBkqgIMoUK4VkyyTMhhyCGwRNukvXC7Ui79cF0MaAfocki/84xfk0OFDoU16yj2cNUnpQfBMUvFqjR8Rt67YdI0PUXUc4S8Utvr8sC/e/UV54+03ZMSIEcXwViGk+Zv0GK784sxQPI9RDMXDK3Q2xRCuAUQRHupKDaJJYYEqRAGimNBfBWwROCT1Vy2IIcX0uVeek6V3L5WBowOhelH6cNYkpSdP/rLGj2iEXbHpWv2q91rjP0x1T98eGTlypCeGmhubZc7Fc0TFUJojKR9a32nlAsWQhWD4fYqheHhRDJXBy0rKFBDnqlmr9jsQTUq9Fygfb0Qxob8ohpD59dLrL8mKB1bIrr27QrQRfDhrEl5ExC0iv5DYZv0MJ9avQiQicEDYzFpoBh+mqltLqxhqGdPizQZpvqY9hiu/KIbieY5iKB5eFEMUQ2UjBtGk1HOBCoKMKCb0F8UQOr9GjRkl3Xd3iy6/CR7+w1kbpCF29UHELSK/0NiOHz8+NnaVPuBCw47mQ5f8laUYCm58onZVDJ049kT50w//qeiGCVkcw5VfFEPxvEcxFA8viiGKIYqhKjnjSrOGGGe9NhSl4ZC0+NfKMrnS5lqXzG17eVsIJt1yu3tWt5zWEu9ZRIi4Teovq3QiRIYrNrNs2LPKr1rxVxbY6jOEVj+y2tv0JHi0ntgqS2ctlXec8g4LrsjvD1d+UQxFdpF3IsVQPLwohiiGKIYohioiwGYt+T1etSqGNFh0l7nSxkvvSVh27TKZMnFK5CpEMZT9c2sQOZtFw14pKIaruY4cpIET84itCqFyzxDSCxSfu/xz0jaxTZqampL83LKfGS5/UQzFcyHFUDy8KIYohiiGKIYohqrEQNLiX8tiSOEqXZLjQ6gPcYy6JIdiiGIoaX5ZrQ5CuCBsphGaumR12cZlQ+7l8x+meqj/kIwZM4ZiKMNlqGn8ZcVslnxIMWShXeV97iZXACdvhGe5FFFMskzK4PgR2CJsIgmP/sq+Acyjv2pdDCnm+kT75ZuWD6GoqFtvI3gGkV+ouoDgLoTNPOaXVRcROCBsJsXW3zGub6AvBEXwGUK1lF+cGbIiPvw+xVA8vEJnUwxRDCUl5qhhhygmCJtIHBDNGqLoudQA5tFf9SCGFHe9Ot19V7eUa8qs55kg4haRXy7lAvkQV8fzgm1wxzif+8ptnV1L+UUxFLXLKpxHMRQPL4qhMnjlhfCiuhJR/BEk6lJDkcfmulo80F8FdBA4JM2vehFDviC67YHbyu40t+yaZRVDN0/+svgWURdcsekaH9ZyrSm3PFWF0MIrFg5ZnlpL+UUxZDFU+H2KoXh4UQxRDJWNGASJ1nKBipN2SZtriiEbZUTcJvVXPYkh9YzeyK1L5srtNHfDFTeI3tBdeuTJX1Z0uSJcEOOkGCogMJzYVtoxToWQ7hg3o3VGTecXxZDFUBRDmd0gx2Vyw0948cK9cHbSZo3NtY22K80aYpyo4j+cDYXt8aFnJM2vehNDPnKVdpor17Ah4japv6zYQMStKzYphoa3N9ClqKsfXl32QoPm1aSWSWXDt5byi2LIYiiKIYqh/n7hQ+s6pL29PV62VDkbQaJsrileUTGQx2atXsWQ+qLSTnOlGysgeIZiqD42KLGKXa0IzUobJfg7xjU3NVeEopbyi2LIiniKIYohiiHp6KAYylIQ57G55kyeXQzyVPzrWQypp7SJ6767e4jTdLcrf2OFPPnLii5XmmvEOF3jQ9RFl+ONbbmNEvS3BXeMO951YbguNlAMWQxFMUQxRDFEMZRxDLhW/BFNZa00FPFKyNCzkxb/ehdDimSl56Do/UO6scLh/sOZ1S/fc0n9ZcUJohF2xaZrfOg6d+n9QTq7qmIoeOj9QXohYebZM61w9d5H1IXhyi+KoUguL57EDRTi4RU6m/cMFeBAFCjXigmCRFHY0l+Yokd/FbI2afGnGCrgV2ljBW3sbvrQTXLWGWfVxEMhk5ReBHchbLpWv1zmrkNySPS+O32GV6kQKrdjXLW4Q9TxpHxo5YcVtxRDFoLh9xv27NlzNN5HwmcfPHhQBgYGpLm58jrMuPYRNv0x9PX1SWNjo4wePTrusIacv3PnTlmyZIls3rxZpk6dKgsWLJC5c+emtusVxAzHGRwQAluETYS/fJtbt26VyZMne6+sDvrrt40cIG7pr+w5No/5tXbtWtm0aVMxJVesWOHN4PoHgmfybHPt44N4PH0MD8Xh8OHDMvfiufLR8z6aFXUJIr90cHnGFl0T85hfVsC44q8gti+88YJ8+1+/La/tey308845/Rz59OWfllPHnWr97ND7iDo+XPnV1dUl+/bt836f8qjyqXUgYgCZC1n6q6G/vz+VGFIhpAq1paXFwjny+wib/pfv3bvXu6qmgijt0dtyTzMyAAAgAElEQVTbK4sXL5aNGzfKtGnTZNGiRTJ//vy0Zr3PZznO4IAQ2CJsIvzl2+zp6ZG2tjZpbW3NxFf01zEYEXFLf2XPsXnMrzVr1siGDRuKwbRy5Urp7Dy2vTSCZ/Juc8O2DbLmsTVFTA4dOiQjRozw7oGYf1k2tQaRXzrgvGPrg4oYZx7zyyp2CBwQNv3f8X+f+L9yz7Z75O1Db4d+2tXnXi1/9Lt/JNU2SqiEhSv1K0p+zZs3LySGVq1aZYUAJGeRuZClv7hMzgyPyidwmVwBG2u6NgXEzqzhRUyvo7Clv7hMzs9JRNwmXRbCZXLlmVLvI+q+q1v6Bvq82ZaRI0d6gkjvI6q2TXBU3k3qL8s+gmdcsZnH/KoVf/nPD9r8883FXNDfpstI51w8x7tQkPTIEx9av8HKBS6TsxAMv08xFA+v0NkUQxRDyKJHMVRAF9GsIYoe/ZXOXxRDlYuRNoBL714qz7363JAGMO59EaXfgsgvl3LBaipTtAjOXMxzxV/B5wcFLwyoEEqbB4oBoi4MV35RDMXLXIqheHhRDJXBi8UEQ6KuFKhgSLhSTBDjpL8ohlAx4OfY13/4dbnv2fu8maHgMeeiOaKvJMdwNWtJxoqoNQibyItk9eqv0ucH+WLo/LbzPSFU6UGqceIMUReGy18UQ3E8L0IxFA8viiGKobIRgyBRVGPF4k/xmsdmjTNDdjFSnnng+Qfk73v+fsjJ/vbb45rG2YYCZwxXsxZrkL89GcFdCJt5zC8LbwQOWdistG22iqGPXfAx+ZPL/iTR/UHl8EDU8eHKL4ohK+LD71MMxcOLYohiiGKoSs64UkwQ46R4LQRG0uJPMWQXIz9uX9n7iizbuEx27d0V+pAuF+qe1S3ntp5rG/vtGUn9ZX1BFo1w6Xe4YpNiqIBAWn/psjh9flC5bbPnXDhHrjz3yky3mUfUheHKL4ohi6EohjJ7aB3vGcqG8KqFrCvkhBhnFsWkHLZpCxT9VRkBBLYIm3ls1iiG7OJdyjPLNy0f0iiqlTjL5oarWbN/7dAzELmAsJnH/LLwRuCQxmbpsjh//DoDesMVN8jJo0/OrJerRX9RDFkRTzGUWQJRDFEMIUmUYqiALqJZo3gtYIvAIam/KIbs4l3OX+ufXC+rH1495MNRd5tL6i9rtGka4Uq2XbGJrAu17q9Ky+IUU90pToW+bpuN4C6EzeHyF8WQxVAUQxRD/f0yfvz4eJFS5WxEgXKtmCBIlGKIYggVA3nML4ohm5Ir8YwuJyq3bE4tLpy5UGaePbOi8eFq1uxfO/QMRK1B2Mxjfll4I3CIa1Pj+LYHbhP9M3iU2zYbUXMRNocrvyiGrIinGKIYohjynsjc3t4eL1uqnI0gUVQjHLdAxQEJgQOimCDGSX+lE68UQ3amVYtbvaJ++5bbyy6b0yvqXZd3lf0CRH65lAvkw0JYIHCIY1NnONc9vs57nlbw8JfF6Z/BA8HhCJvDlV8UQzafBs/gBgrx8AqdzWVyOBJ17coagkTzUKDipgcCB0QxQYyT/qIYQsVAHD6stmxO77UobSoR+YXCIU5zHZW7EDbj+CvqOP3zas1f1US8zmh2va+r7G5xCA5H2Bwuf1EMxcssiqF4eFEMlcGLxQRz74VLDYVrxR9R9OgviiFUDMTNr0rLjdRO6eYKw9WsJSm9iFqDsBnXX3GwqCV/VdokQZfF6UxmteWdCA5H2Bwuf1EMxckqPmcoHlolZ3NmiDNDyKKHaqxY/ClekXGbtPhzmZxdjuI2a7qxgs4UlR46O6RbcJ/WchpkgxKXuIt8iKvjlbCttkmCbgsf5SGqcXPBzi5MXUjKh9Z4rbilGLIQDL/PmaF4eHFmiDNDZSMGQcwuNRR5bK6rpTb9VUAHgUPS4k8xZBejJP6qdPVdv01nic54+4zM76F0ibusptL2SuUzkvjL+r6k+WXZReBQzqbGo26SUO4ZWXMuniMzz5oZ6SGqCGwRNofLXxRDVsRTDHEDBW6gkHnxR5CoSw0FxdDxv7oaj+rLn42I26TFn2LI9mhSf+mV+NWPrJYtz2wZ8iWNBxql+6puufDsC+0BxDjjeDXXMYZU9lTEOF3jw+NRa6rNBlXaJOF4X9BKml/VxpmUD624tuKWYshCkGKIYohiiGIo4xhwrfgjit7xaCji0bt9NgKHpMWfYgjvLxVDuuNc8Ni9e7eccMIJ8rkPf857jktWh9WsJfkeV2y6xodo7npp30sVZ4P0viD/2UFxYgLBXQibSfnQwsLKBYohC0GKIYqhjBthKynjhWT4bFfICTFOdIHK8llTrhV/+qvgMQQOSYs/xZDNlFn4q3T3Ll8MjR071ttprtyOc/bIhp6BqAuu2HSND1G15o233pDv9nxX7v/3+4cEiMaaiqBLplySJLwg3JVFfpX+mKR8aIFi5QLFkIUgxRDFEMUQZ4YyjgHXij+i6KEaCqvoxaP8/F5soBiyPZll3PpbcAfFkD+Cas8lskdZOAMRt67YdI0PEf7SWci/eehv5K2335LRo0cXw0Z3iks6GxSMvSxzoRb9RTEUlakK53EDhXh4hc7mbnK4oucaOSGIGVGgUDbpL1wuIBrAPPqLYsguRlnzjM4S/enqP5Ud+3eIzgwFjyjbG1cbMSJuXbGZx/yyoisrbHVbd93FcNvL2+TIkSNy+PDhohhKOxtEMXQMActfFENWxIffpxiKhxfFUBm8rKRMATFkKhwxbZ11k+JjhsAWYdO14k9/FTyGwCFpflEM2UyJ8tfLR1+We//9Xukb6BsyCP8q/qSWSfYAA2cgeMYVm67xYRYXyfwNEnRGyI8jXwxNaJ4gcXaKixJoiFxA2EzKhxYGVi5QDFkIUgxxmVzGS6SspIwXkuGzXSEnxDizKFDlsKe/MCKA/ipEW9LiTzFkMyWCZ4L+0s0Vyu04pyOLu3QOwTOu2Kw3MVRpu2wVQ2dNOkuuv+J67360LA9ELiBsJuVDCysrFyiGLARLxFB/f//ReB8Jnz0wMOCtDW5paUljJvRZhE3/C/bu3StNTU3S2NiYery9vb2yePFi2bhxo0ybNk0WLVok8+fPT21XDWQ5zuCAENgibCL85dvs6emRtrY2aW1tzcRX9NcxGBFxS39lz7F5zK81a9bIhg0bisG0cuVK6ew81kAheMYVm8fTX727e2XF5hXy2r7XhvDjqeNOlY+/5+PywekfNLnTFWwR4zye/jIdEfGEJDg8/crT8neP/Z1ozJQeuszy2guulUvPvFROO+W0iKOIfhqi1iBsIuqXomT5a968ebJv3z4P0I6ODlm1apUJrmXTNFDlBAS2Wdps2LNnTyoxdPDgQc8pzc3NaXAKfRZh0/+Cvr4+TwgFb+hLOvCdO3fKkiVLZPPmzTJ16lRZsGCBzJ07N6m50OeyHGfQMAJbhE2Ev3ybW7dulcmTJ3uvrA76q4AkAgf6K3uOzWN+rV27VjZt2lRMyRUrVnhF3D8QPOOKzeHw1w9+8QP5+56/L0uRHad0yOKZi0XFUaXDFWwR4xwOf6WtZXFw2D+wX+782Z3y0PMPlV1a+d7298rci+fKhKYJmfeHSGxdqV+KgeWvrq6ukBhSPrUOy6b1+WrvI7DN0ibvGUrhXW6gUADPmq5NAXGu7mmo9jsQ0+sobOkvLpPzYxkRt0mXhXCZnM2Ux9tfu/buknVPrKu6dG72BbOl3P1ECJ5xxWYe88uKrijYlrsvKGj33NZz5aPnf7S4XXYUm9a4Kr2PyAWEzaR8aOFiYctlchaC4fcphuLhFTqbYohiCFn0KIYK6CKKCaLo0V/p/EUxZBcjRNxGyS/dIWzZxmWi4qjcUe5+IqtZs3/t0DNcsYmsC1H8lTW2KoJ6tvd4wrhcDOiSuHIbJCD8hcR2uPIra3+pPYqheKhSDMXDi2KoDF6uER6imCBIlM11uua6WmrTXwV0EDgkzS+KIbsYDbe//GcTVRppUBQh6oIrNpENe9L8sqKrEra6OcK3H/62qCAuPaxnBiH8hcR2uPPL8lHwfQtbiqE4aPI5Q/HQKjmbM0MFQKykTAOyK+SEGCcKW/oLIwLor3TilWLIZkoEzyRprqvtOuc/n+h9U94ngxs0yfjx4+0fFvEMBHchbCIb9iT+igJvKQ7VRJDa0yVxXZd3Vd0lzjVs85JfSfxV+hmKoSgoHjuHM0Px8AqdTTFEMYQsemyu0zXX1VIbUfTor3T+ohiyixEibpM219b9RGNHjRUVRJ/78OfsHxbxDERzjbCJrAtJ/WVBrDi88dYbsntgd8WZIF8EzblojsxonWGZdO5CaZ7yywLXiluKIQvB8PsUQ/Hwohgqg5eVlCkgztUyHjbXtiddKSaIcVIMUQyhYiDPzbUun9Llc6XPJ/IfuKk7t8Z9RlElpkHUGoTNPPurHLZ6T9BPe38qdzx+h7z81stl4S/dHMGuBu6tGkHUBaR4rTbzSjEUJUKPnUMxFA8viiGKobIRgyBRVGPF4s9lcnls1jgzZBcjBM9k1aypKFr98GrZ9vI274cExZD/y1QUVdp9zv71mOa6nvlQRdCWZ7d4QvaFXS/I4cOHhzx2RB+WOvPsmTLzrJnS3BTvESquYZvn/CrNDwtbiqEojEIx5D14Ne3BZXIFBK2kTIOzK+SEGCcKW/qLYohiCMdd9Z5feq+JzhQ99h+PlW2uFflLplzizRZFWWoVrB8IbBE285hfQRx1ieP6rYXZvL6BvrLiVbdLV+GaRAT53+Uatog6ntXFBoqhoZ1klv7izFCKTp1iCNdQ5L2YlIZNlknJ4h9GF1FM6K8CxggckvqLM0N2McqTv6zRPvfKc/JPP/sneXTHoxVP1VkHFUU68xDlQDTXCJt5rV++UN32y21DHpbqz+Rd2HGhXDzl4lQiiGLoWDQn5UMrH6y45cyQhWD4fYqheHiFzqYYohhCFj21bRFekvBF2ETigCgmiKaS/ipEQVJ/UQzZ2YyI26T+skbr88wbB98oe09R6eejLKFDcBfCZp74MLgUrtz22P5Y3zX5XXLF71whV5x3heXayO+7hq2L+VVpt0aKochh6p1IMRQPL4qhMni5RniI4o8gUTbX6ZrraqlNfxXQQeCQNL8ohuxilCd/WaMtrQvaiOuyLF1CV+3QG/V1ZkLFUemBqDUIm8MthlQA+RtblJsF8sen26BPOXWKt0X2GS1nOLEVOhJbl/OrNFcohiyGCr9PMRQPL4ohiqGyEYMgUYohiiFUDCAbCoqhA5k3lXn0l1U6q4kMFUR6z4reu1Lt0HuLfv+s3/fuMULlQi2JIV0G17O9J3QvUDl8VQTp/UCKqy5VJLYFlBB1PCkfpskv/SzFkIUgxZCMGTOGGyjk/EF4rhV/BImyQFEMoWIgj/nFmSG7eCN4ZriaNf212rg/vuPxIdtyl0NCG/cL33GhXNp+ae4f5Hq88sufAdId/BTLasvgdEz+rFu5TREQohBhE4ltLeUXxZDNp8EzODMUD6/Q2bxnqACHa4SHKP4IEkVhS39hrgDSX+nEK8WQXYwQPIPgw7i54N/XYs0W+Tf5Xz79cm8nujQ7nflou8aH9225TxpObJBn3npGel7oGbIRQmkU6SyQtzX24MufBSoXaQgcEDYphqL1XRRDNp/WvRgaO3asNDY2FnG47rrrZM+ePbJ58+ZY6FEMRUvKWKCWnOxK8UeMM25DERVn1woUolmjvwrRgsAhqb8ohuwMzpO/rNEm5Rld6uU/+6b0O8o9u0gbfJ3xUHHkL6ezxhZ8P+k4o3xHFv4qnf156j+ekhFNI0T7mEqHfy/QR8//qIdNlOcDIXBA2KQYitZ3UQxFydBj59TdzFBfX580Nx97cNj1118v3/zmN+XKK6+kGIoXO8WzXSO8pM1aNXiyKHq8WlceYfqrPu5BoRiyCRjBM4j8yupCTukyunJiqBQ1FUT6jBxPJL3jXO/v1Y681a9S8bPrrV2h2Z/du3fLCSecMEQM+QIo6bbYCBwQNimGKIYQMVB3YkifsDxy5Eh55JFHZNGiRfLjH//Yw5ViyC7Elc5wjfAQxR/RpGTVUJT6jf7CzIjQX4VIS5pfFEM2ByN4Jqm/rNFmzTMqjLbu3CoP/OIBGTg6YH196H1/owAVRqedeFroYa9ZjzP4xdX8paJHN5D49Vu/9u710RmxfQf2mff9BMWQL4D8TSaizAAdzzo+XNjGCo7AybWUX5wZihcFdSeGfHhGjBghR48elTvuuMPbdYNiKF7gBM92jfAQxR9Bomyu0zXX1SKa/iqgg8AhaX5RDNkcnCd/WaNF1AXf5jO7nykKCN08IMmhwki3lW4a2SQTmiZIx2kdnlBSQaEva0bJ+k4VOy+88oK3WdNv+n/jCR+d5VHho6KndMbHsue/33igUd77zvfKrPfO8ma/0gggdB1HxIA/ZkQuIGwm5UMrHixsKYYsBMPv160Y+shHPiK33nqrXHDBBdLQ0EAxFC9uQmdbSZnCdK6aNTbXtiddKSaIcVK8phOvFEO1k1/HOxf8ndSi7KhWinK1pXdBQaSiY1zTOO/j+ncVO/6h4sY/9N+910CfHDx40FuJohdfkx46+6PL/S7uvNgTby8+/aJ0dHRIe3t7UpNlP4eo4wibFEMFBCxsKYbipUdDb2/v0XgfCZ996NAh0ZduV53VEdfmSSedFPmrdTao9Im9QTGk77/44ouR7L300kvy5S9/WR544AGZMmWKfOpTnxLdjCGLo7+/X0aNGuW9sjziYhvluxE2/e9F4DAY8zJhwgTvldWBGKeODYEtwib9VUAAgS3CZh799b3vfc/jUv+4+eab5cwzzyz+PwIHV2zm0V8Wdw4ntj97+Wfy0p6XvNezv35W3j70dsXhqhjSuq+iJetDl+VrfxFVDI0dNVbOPOlMaZvQJtMnTZeJzRO9vwcPRP0idxUQRtTx4fLXggULZP/+/d7vamtrky9+8YtmeCNyFsldWfqr4Uc/+lEqMWSiCz5hxowZcsopp0T+ltdee010ze20adOK5BcUQ0peej9RlOPVV1+Vr3/96/LYY495waZCaNasWVE+ynOIABEgAkQggMDGjRvl0UcfLf7L5z73OTn99NOJERFIjUD/oX7Zvme7vLrvVdG/65+6dE1fw3GMGTlGThp7kpw0pvDqnNDp/Xn6OMb7cPijFr/zlltu8cSdHsqjyqc8KiNQl8vk9EpQ8EoNl8mlSxFrujaNdcRyJsQaXsQ4FTcEtgibvo8RONBf3E3OpVxgfhXYAIEDwuZPd/xU3tj7hjSMbijc1zP48pe66eYGevhL4nTpW7lDl7L5h3/Pkd5/NPLoSBl/wng54+QzxN/sQJfepbnPB8GHLvkLWWtcqV9R/MVlcvE6z5oQQ1/72tdkyZIl5i//6le/Kp///OeFYqifT/DOeM01gkSjEJ4Z9GVOQDQUyAKFKP70V8FjCByS+ov3DNnZnCd/WaNF8ExebPriyBI19JdbF3JqyV8UQxZDhd+vCTG0fft2eeWVV8xffsYZZ3j39ui6yOC9OJwZMqGregKiQLG5duvqKv1Ff/kxQDHkVgOY1F9W1UDUBVdsusaHvPCWv4tDafOLYshCsAbFUJyfrGsoVfzodpf+QTEUB8Gh5yIKlGvFBHFFiQWqEAWIZo3+yl/x58yQzcOIuEXkl0vcxfrFCzmu9RtR8otiyObT4Bk1MTMU5yeXKyYUQ3EQpBgqhxaiSYlCeEk8x+KPWR5Gf6UTrxRDdjYjeIZiiDN55K78XRyy2MCq4xRDFoLh9ymGBvGgGIoXNKVnW0mZxrorxR8xThaodM11tbijv/JX/CmGbKZExC3FEMUQa03++NBiA6vvohiyEKQY8p6JFFwmFw+yY2fv2LFDFi5cKPfee69Mnz5dbrzxRunq6kpqLvQ5RNEj4bG5RsWAH7yIuEU0a4hxorC1il4awkHgkNRfFEO2J/PkL2u0iLh1xaZrfEjuohhCxQAyF7LkQ84MWYxe5X2KoQI4iAKFTKCkzRpnGuxkyZKc/G+jv+rjyjXFUO3kF6ouIGoNwqZr9cslfyGxdaV+RfEXZ4ZsPg2eQTEUD6/Q2RRDFENIYo5CeEnCl8Wf9wwh4zapeKUYsrO5lpo1+9cOPQPBXQibecwvC28EDgibSGxrKb8ohqyID79PMRQPL4qhMni5RnhJmzXODNnJ4koxQYyT4rUQH0nzi2KodvLLpVxg/cJd1HQNW0RdSMqHFhtY2FIMWQhSDPGeocHtxcePHx8vUqqcbSVlmi9yhZwQ43SpoUBerUMUE/qr4DEEDkn9RTFkM2We/GWNFlEXXLHpGh+y1uSPD9PmF8WQhSDFEMUQxZB0dHRIe3t7vGypcjaiSWGBSjfTUM259Ff+ij/FkE1HiLhNKl6t0boiXBDjpBjCzTYhsa2l/KIYshiKYohiiGKIYijjGEAWKESzhih6FK/pxCvFkF28EXGLyC+XcoFiCCdcXMO2lvKLYsjm0+AZvGcoHl6hs7mBAo5E2VzjsHWtQCGaNUTRc6kBzGN+UQzZxQgRt4j8cikXyIesNXnkQ4sNrLilGLIQ5MwQZ4YynhWwkjJeSIbPdqX4I8bpUkPhWjGhvwoeQ+CQtLmmGLKZMk/+skaLqAuu2HSND1lr8seHafOLYshCkGKIYohiiMvkMo4B14o/oqlkQ1GIAoqh+ngulNVquCJcEON0jQ/JXRRDqBhA5kKWdZzL5CxGr/I+l8kVwGExwVxhR2FLf9FfyAJFMUQx5BJ3kQ9xddw1bLNsrn2OTcqHVmtqYcuZIQtBzgxxZijjWQErKeOFZPhsV8gJMU6XGoo8NtfV4o7+yt+VUC6Ts5kSEbfD1azZv3boGYhag7DpGh+y1uSPD638sOKWYshCkGKIYohiiMvkMo4B14o/oqlkQ1GIgqTNNcWQXbwRcZvUX9ZorWbN+ny5912x6RofkrsohlAxgMyFLPmwob+//2gSUvI/MzAw4C2TamlpSWMm9FmETf8L9u7dK01NTdLY2Jh6vL29vbJ48WLZuHGjTJs2TRYtWiTz589PbVcNZDnO4IAQ2CJsIvzl2+zp6ZG2tjZpbW3NxFf01zEYEXFLf2XPsXnMrzVr1siGDRuKwbRy5Urp7Ows/j+CZ1yxmUd/WeTpCraIcdJfBQRcw9aV+hUF23nz5sm+/7+9M0iNIwmiaHohe0AYbwXGGIN8LRmD1lrYC11BC+sMBp3BFjqClzqCdQOBJfBYixm6i9Z0gdShqsrHZFQ/gRdDp1I5PyL+j19RVX1zs4zD4nsVT09Po5Ld6ng9u76+nmSG7u7ulgDu7u6GQD91AbHn6m/f3t4ujdDOzs5Tj/Pouqurq3J8fFwuLi7K/v5+OTo6KgcHB5P3XWxQ85zrByKwJfYk4rXa8/Lysuzt7S3/1foxXh2SBA7Gqz7HtlhfZ2dn5fz8/L4kT05OliK++iF4JsueLcYr4s4s2BLnNF4dAtmwzaJfT8H28PCwZ4YWfBr9bHO8fIFClB0bPvcFCh04xK0LK9hrjkFXexK3hRDnpLA1Xr5AocX68ja5WIwIniH4MBN3yYecjmfDdk715TNDMZ+ur9AMDcOrt1ozxJFoi83aplQhSDRTQ2G8uFrI1lCMba41Q7EYETwzNl7RaYm8zbJnNj5Ua7qIzam+NEMRQ/U/1wwNw0sz9ABehEBlExOCRBWoLguIZs14tSf+mqFYjIi8JeorE3epX17IydZvPKW+NEMxn66v0AwNw0szpBl6MGOIJuUphDcmfRV/5gqg8ZpmXjVDcTUTPKMZ8nuh5K72Lg5FbBDpuGYoQtDJkK/Wrvxa5agoh6Vkf3UW8SfOqUBNa6435Z3xak/8NUMxUxJ5qxnSDKk17fFhxAZR36UZihDUDGmGNEN+z1DlHMh2mwHRVNpQTDOvmqFYvIm81QxphuQuzRCVA2RvUJMPvU0u1p9HV/gChQ6a6ArFBIjTPNBYsyjX8SKwJfYkCY9o1oxXe+KvGYqZkshbor4oXSC4i9gzGx9miheJ7Zzqy8lQzKfrKzRDw/DqrdYMaYZIYlagpk0aNpU2IXrGa1q8NEOxGBF5qxlyMiR3tXdxKGKDyMRrhiIE+59rhobhpRl6AK+oKCdA7GTo7/pCbbx8gQJp4sc215qhmCk1Q/Lh2PqKsovQBWJPkrvmVF+aoSjjNUM+M1T5eZFshEeICUGiXq2bNmlwMhSLAZG3Y+tLM5QrXtFpCV3IsifZsI+tr7nEi8S2JT6cGi/NUISgZkgzpBnyBQqVc4AUKEL8CdHTvE4zr5qhWLyJvCXqK1MtEAYrGx9miheJ7ZzqSzMU8+n6Cm+TG4aXt8l5m9yDGUOQqAI1rbl2MhSTG5G3Y5trzVCueEWnJUxGlj3Jhn1sfc0lXiS2LfHh1HhphiIEnQw5Gao8FSAEiiQ8QkwIEtUMaYaoHGixvjRDsXgTPEPwIZW3hNYQe7ZYX1F2ETgQe5LYzqm+NENRxmuGNEOaIW+Tq5wDpEARzRohepkawBbjpRmKxZvIW6K+MtVCtoZ92+NFctec6kszFPPp+gpvkxuGV2+1r9bu4FBMfDsZKVCE+BOiR9XCttSXZigWIyJvifrKVAvbUl9RdhE4EHuSWjOn+tIMRRnvZMjJUOWpQDbCI8SfINFMDQUpUMar/uuEW4yXZigWb4JniPrKxF3qF3dRMxu2c6ovzVDMp06G/vqrvHjxYhhSD6x2MsSRaIvN2qaEIUg0U0NhvLhayNZQjG2uNUOxJBE8MzZe0WmJvM2yZzY+VGu6iM2pvjRDEUM5GXIy5GTIZ4Yq50A28SdEz4aiy4KxzbVmKBZvIm/Hxis6bRbjQpwzGx/KXZohKgfIWqjJhz4zFDH6hs+dDHFXw8kCIsS/ZlGupxwh1MSexourhW2Jl2YoFiOCZwg+pBorohaIPbPxYaZ4kdjOqb6cDMV8ur5CMzQMr95qzRDXABa6/x0AAAULSURBVJKER4g/QaIK1LRJw6bSNl7tXQnVDMViROQtwYeZuEszxOl4NmznVF+aoZhPNUM+M1RevXo1LFM2rM5GeIT4EySaqaHQvNpQrHJgbH1phmJKJnhmbLyi0xK6kGXPbHyo1rR3cWhqfWmGIgT7nz+7vr7+Z9iv9Fff3d2VP3/+lN3d3Snb9H6X2HP1B25vb8vz58/Lzs7O5PNeXV2V4+PjcnFxUfb398vR0VE5ODiYvO9ig5rnXD8QgS2xJxGv1Z6Xl5dlb29v+a/Wj/HqkCRwMF71ObbF+jo7Oyvn5+f3JXlycrJ8tm/1Q/BMlj1bjFfEnVmwJc5pvDoEsmGbRb+egu3h4WG5ublZxmHBows+jX62OV7Pfv/+PckMLYzQ4mrNy5cvI5yf/Dmx5+qP//r1a/kmuYUhmvrz8+fP8vnz5/L9+/fy/v378unTp/Lx48ep2y5/v+Y51w9EYEvsScRrteePHz/KmzdvyuvXr6vEynj9ByORt8arPse2WF9fv34t3759u0+mL1++lHfv3t3/N8EzWfZsMV4ReWbBljin8eoQyIZtFv16CrYfPnzomaHT09OoZLc6Xj4zFKbH4wt8ZqjDhrh1YYV6lttCiHNS2Bov5hWqxqur2rG3XXmbXCxGBM+MjVd0WoJnsuyZTb/kri5ic6ovb5OLGKr/uWZoGF691ZohzRApegrUtOZ6U2kTome8psVLMxSLEZG3mqHt+FLjKLs0mpohIgfIHqkmH2qGIobY8LlmSDNEFrrN9bTmWjMUk1tNMVn9tbHNtWYoV7yi0xKNVZY9SV0YW19ziReJbUt8ODVeToYiBJ0M+aWrlb9wkxAokvAIMSFIVDOkGaJyoMX60gzF4k3wDMGHVN4SWkPs2WJ9RdlF4EDsSWI7p/rSDEUZrxnSDGmGlm9Xefv27bBq2bCaINFMDQUpUESzZry6iBE4jI2XZiimo5biFZ2WaISz7JmND9Wa9vhwan1phiIENUOaIc2QZqhyDmQTf6KptKGYNsnTDMXiTeTtWPManTaLcSHOmY0P5S7NEJUDZC3U5EOfGYoYfcPnPjPUgaOYMFfYKWyNl/EiBWpsc60ZisWopviv/trYeEWnJXgmy54t1tdc4kViO6f6cjIUZbyTISdDlacChECRhEeIP0GimqFpk4ZNVGi82rsSqhmKxZvIW4IPM3GX+sVd1MyG7ZzqSzMU8+n6CidDw/DqrXYyxJGoZojDNptAEc0aIXqZGsAW60szFIsRkbdEfWWqBflQrWmRDyM2iPJWMxQh6GTIyZCTIZ8ZqpwD2cSEaCozNYAtxkszFIs3kbeaIb9nSO5qb1IesYFmqO7t7k6Goozb8LmTIe6KUovNmrddxcWSpVkjzmlD0eXH2OZaMzSf+spUC1FTGUfl8RUEz4ytr+j/g8CB2JPsDeYULydDUcY7GXIyVHkqkI3wCDEhSDRTQ0EKlPHajivXmqFYvAmeIeorE3epX9xFzWzYzqm+NEMxn66vcDI0DK/eaidDHInaXHPYZhMoolkjRC9TA9hifWmGYjEi8paor0y1IB+qNS3yYcQGUd5qhiIEnQw5GXIy5DNDlXMgm5gQTWWmBrDFeGmGYvEm8lYztB2T1yi7ouY6+v2HPif2JLlrTvWlGRqWsU6GhuHlZOgBvLIRHiH+BInaXHfJZry2o1nTDMViRPAMUV+ZuEv9cjJEGqz/q740QzGfrq/4F19KXD3IQvTWAAAAAElFTkSuQmCC;" parent="1" vertex="1">
          <mxGeometry x="440" y="914" width="741.65" height="286" as="geometry" />
        </mxCell>
        <mxCell id="NvDlcgz7w1ASb2CDfUmZ-9" value="Plot of function calculating x value" style="text;html=1;strokeColor=none;fillColor=none;align=center;verticalAlign=middle;whiteSpace=wrap;rounded=0;" parent="1" vertex="1">
          <mxGeometry x="330" y="1000" width="60" height="30" as="geometry" />
        </mxCell>
        <mxCell id="NvDlcgz7w1ASb2CDfUmZ-10" value="Plot of function calculating y value" style="text;html=1;strokeColor=none;fillColor=none;align=center;verticalAlign=middle;whiteSpace=wrap;rounded=0;" parent="1" vertex="1">
          <mxGeometry x="330" y="710" width="60" height="30" as="geometry" />
        </mxCell>
      </root>
    </mxGraphModel>
  </diagram>
</mxfile>
